<?xml version="1.0" encoding="utf-8"?>
<!-- Generator: Adobe Illustrator 16.0.4, SVG Export Plug-In . SVG Version: 6.00 Build 0)  -->
<!DOCTYPE svg PUBLIC "-//W3C//DTD SVG 1.1//EN" "http://www.w3.org/Graphics/SVG/1.1/DTD/svg11.dtd">
<svg version="1.1" id="Layer_1" xmlns="http://www.w3.org/2000/svg" xmlns:xlink="http://www.w3.org/1999/xlink" x="0px" y="0px"
	 width="500px" height="500px" viewBox="0 0 500 500" enable-background="new 0 0 500 500" xml:space="preserve">
<rect fill="#A9CF38" width="500" height="500"/>
<g enable-background="new    ">
	<path fill="#005C84" d="M220.452,271.514v4.637h-28.123c-0.142-0.422-0.281-1.123-0.281-1.611c0-1.896,0.493-3.165,2.813-5.979
		l11.038-13.498c5.555-6.818,7.595-10.543,7.595-14.978c0-5.977-3.796-8.084-10.335-8.084c-2.883,0-6.75,0.352-10.125,1.055v-4.569
		c3.375-0.843,7.241-1.336,10.967-1.336c4.992,0,9.211,1.055,11.952,3.516c2.32,2.039,3.657,5.132,3.657,9.14
		c0,5.766-2.109,9.631-9.351,18.138l-11.531,13.568H220.452L220.452,271.514z"/>
	<path fill="#005C84" d="M257.148,254.848l7.73-13.146h6.396l-11.387,17.224l11.526,17.229h-6.608l-8.646-13.011l-7.733,13.011
		h-6.469l11.461-17.017l-11.6-17.438h6.539L257.148,254.848z"/>
	<path fill="#005C84" d="M317.543,271.648v4.5h-21.374v-4.5h8.296v-39.375h-8.154v-3.938c2.883-0.422,7.381-0.773,9.912-0.773
		c3.024,0,4.012,0.773,4.012,3.305v40.774h7.311L317.543,271.648L317.543,271.648z"/>
</g>
<path fill="none" stroke="#FFFFFF" stroke-width="4" stroke-linecap="round" stroke-miterlimit="10" d="M457.667,95H404
	c-2.761,0-5-2.239-5-5V31c0-2.761,2.239-5,5-5h59c2.761,0,5,2.239,5,5v50.834"/>
<g>
	<path fill="#FFFFFF" d="M439.572,67.354v16.379h-10.998V67.354h-16.379V56.358h16.379V39.979h10.998v16.379h16.379v10.997
		L439.572,67.354L439.572,67.354z"/>
</g>
</svg>
