<?xml version="1.0" encoding="utf-8"?>
<!-- Generator: Adobe Illustrator 17.0.0, SVG Export Plug-In . SVG Version: 6.00 Build 0)  -->
<!DOCTYPE svg PUBLIC "-//W3C//DTD SVG 1.1//EN" "http://www.w3.org/Graphics/SVG/1.1/DTD/svg11.dtd">
<svg version="1.1" id="Layer_1" xmlns="http://www.w3.org/2000/svg" xmlns:xlink="http://www.w3.org/1999/xlink" x="0px" y="0px"
	 width="500px" height="500px" viewBox="0 0 500 500" enable-background="new 0 0 500 500" xml:space="preserve">
<rect fill="#11C5D7" width="500" height="500"/>
<path fill="none" stroke="#FFFFFF" stroke-width="4" stroke-miterlimit="10" d="M468,90c0,2.761-2.239,5-5,5h-59
	c-2.761,0-5-2.239-5-5V31c0-2.761,2.239-5,5-5h59c2.761,0,5,2.239,5,5V90z"/>
<g>
	<path fill="#FFFFFF" d="M439.572,67.354v16.379h-10.998V67.354h-16.379V56.358h16.379V39.979h10.998v16.379h16.379v10.997h-16.379
		V67.354z"/>
</g>
<g>
	<path fill="#FFFFFF" d="M211.4,274.625c1.976,0.416,4.784,0.676,7.072,0.676c3.328,0,5.356-0.52,6.812-1.612
		c1.56-1.144,2.288-2.964,2.288-5.304c0-1.924-0.624-3.692-1.768-4.784c-1.508-1.404-3.848-1.925-7.229-1.925h-0.936v-3.224h0.884
		c5.148,0,8.164-1.976,8.164-6.656c0-2.028-0.624-3.64-1.768-4.628c-1.353-1.145-3.328-1.612-6.448-1.612
		c-1.977,0-4.316,0.208-6.5,0.572v-3.38c2.288-0.521,5.096-0.78,7.333-0.78c4.16,0,7.228,0.936,9.152,2.808
		c1.664,1.612,2.6,3.9,2.6,6.813c0,4.212-2.236,6.864-5.356,8.061c3.9,1.352,6.396,4.316,6.396,8.788c0,3.38-1.196,5.98-3.328,7.748
		c-2.236,1.82-5.356,2.757-9.724,2.757c-2.704,0-5.564-0.364-7.644-0.885V274.625z"/>
	<path fill="#FFFFFF" d="M259.032,245.92c-1.561-0.208-3.796-0.416-5.46-0.416c-7.021,0-9.309,4.42-9.673,12.792
		c2.496-1.04,5.616-1.924,8.58-1.924c6.137,0,9.984,3.64,9.984,10.66c0,6.864-3.899,11.909-11.284,11.909
		c-8.685,0-11.752-6.449-11.752-16.641c0-7.697,1.352-13.157,4.16-16.485c2.184-2.6,5.46-3.848,9.621-3.848
		c1.819,0,4.108,0.26,5.824,0.624V245.92z M243.848,263.288c0,7.437,1.768,12.116,7.436,12.116c4.473,0,6.813-3.172,6.813-8.111
		c0-4.837-1.768-7.437-6.5-7.437c-2.288,0-5.356,0.571-7.748,1.352V263.288z"/>
	<path fill="#FFFFFF" d="M279.26,278.941c-8.841,0-12.221-6.865-12.221-18.461c0-11.597,3.38-18.513,12.221-18.513
		c8.84,0,12.22,6.916,12.22,18.513C291.479,272.076,288.1,278.941,279.26,278.941z M279.26,245.66c-5.772,0-7.697,4.888-7.697,14.82
		c0,9.932,1.925,14.769,7.697,14.769c5.771,0,7.695-4.837,7.695-14.769C286.955,250.548,285.031,245.66,279.26,245.66z"/>
	<path fill="#FFFFFF" d="M301.705,261.321c-4.608,0-6.762-2.911-6.762-7.853c0-4.942,2.153-7.854,6.762-7.854
		s6.762,2.911,6.762,7.854C308.467,258.41,306.313,261.321,301.705,261.321z M301.705,247.678c-3.031,0-4.123,2.001-4.123,5.791
		c0,3.789,1.092,5.79,4.123,5.79s4.123-2.001,4.123-5.79C305.828,249.679,304.736,247.678,301.705,247.678z"/>
</g>
</svg>
