<?xml version="1.0" encoding="utf-8"?>
<!-- Generator: Adobe Illustrator 17.0.0, SVG Export Plug-In . SVG Version: 6.00 Build 0)  -->
<!DOCTYPE svg PUBLIC "-//W3C//DTD SVG 1.1//EN" "http://www.w3.org/Graphics/SVG/1.1/DTD/svg11.dtd">
<svg version="1.1" id="Layer_1" xmlns="http://www.w3.org/2000/svg" xmlns:xlink="http://www.w3.org/1999/xlink" x="0px" y="0px"
	 width="500px" height="500px" viewBox="0 0 500 500" enable-background="new 0 0 500 500" xml:space="preserve">
<rect fill="#A8CF38" width="500" height="500"/>
<path fill="none" stroke="#FFFFFF" stroke-width="4" stroke-miterlimit="10" d="M468,90c0,2.761-2.239,5-5,5h-59
	c-2.761,0-5-2.239-5-5V31c0-2.761,2.239-5,5-5h59c2.761,0,5,2.239,5,5V90z"/>
<g>
	<path fill="#FFFFFF" d="M439.572,67.354v16.379h-10.998V67.354h-16.379V56.358h16.379V39.979h10.998v16.379h16.379v10.997h-16.379
		V67.354z"/>
</g>
<g>
	<path fill="#02577D" d="M151.064,272.127v-37.615h10.063c4.895,0,8.084,0.825,10.063,2.805c1.54,1.54,2.365,3.795,2.365,6.544
		c0,3.96-1.815,6.819-5.005,8.249c4.675,1.1,7.425,4.399,7.425,9.404c0,3.354-0.936,5.884-2.86,7.644
		c-2.199,1.979-5.554,2.97-10.668,2.97H151.064z M155.959,250.79h4.839c3.3,0,5.17-0.55,6.38-1.815
		c0.989-1.045,1.484-2.584,1.484-4.509c0-1.979-0.495-3.52-1.54-4.51c-1.21-1.154-3.135-1.595-6.379-1.595h-4.784V250.79z
		 M155.959,268.277h5.004c4.399,0,6.6-0.439,8.084-1.76c1.155-1.045,1.87-2.64,1.87-5.06c0-2.199-0.55-3.794-1.65-4.894
		c-1.484-1.431-3.629-1.925-7.644-1.925h-5.664V268.277z"/>
	<path fill="#02577D" d="M185.164,240.066c-1.65,0-2.695-0.825-2.695-2.915v-0.109c0-2.09,1.045-2.915,2.695-2.915h0.274
		c1.65,0,2.695,0.825,2.695,2.915v0.109c0,2.09-1.045,2.915-2.695,2.915H185.164z M187.583,272.127h-4.563v-26.946h4.563V272.127z"
		/>
	<path fill="#02577D" d="M215.081,271.852c-2.31,0.66-5.499,1.045-7.975,1.045c-4.179,0-7.424-1.045-9.623-3.244
		c-2.42-2.42-3.52-6.104-3.52-10.943c0-9.624,4.784-14.299,11.658-14.299c7.534,0,11.163,5.335,11.163,14.188v1.045
		c0,0.44-0.22,0.604-0.659,0.604h-17.378c0,2.97,0.77,5.39,2.364,6.875c1.431,1.319,3.465,2.034,6.874,2.034
		c1.925,0,4.564-0.274,6.654-0.715L215.081,271.852z M212.276,256.894c-0.165-5.169-2.145-8.799-6.654-8.799
		c-4.564,0-6.819,3.354-6.874,8.799H212.276z"/>
	<path fill="#02577D" d="M227.018,245.181l0.221,1.979c2.805-1.705,6.159-2.75,9.293-2.75c2.915,0,5.225,0.771,6.765,2.365
		c1.484,1.484,2.255,3.685,2.255,7.039v18.313h-4.564v-17.763c0-2.31-0.385-3.63-1.32-4.564c-0.935-0.935-2.364-1.375-4.344-1.375
		c-2.42,0-5.335,0.715-7.534,1.76v21.942h-4.564v-26.946H227.018z"/>
	<path fill="#02577D" d="M272.831,271.852c-2.31,0.66-5.499,1.045-7.975,1.045c-4.179,0-7.424-1.045-9.623-3.244
		c-2.42-2.42-3.52-6.104-3.52-10.943c0-9.624,4.784-14.299,11.658-14.299c7.534,0,11.163,5.335,11.163,14.188v1.045
		c0,0.44-0.22,0.604-0.659,0.604h-17.378c0,2.97,0.77,5.39,2.364,6.875c1.431,1.319,3.465,2.034,6.874,2.034
		c1.925,0,4.564-0.274,6.654-0.715L272.831,271.852z M270.026,256.894c-0.165-5.169-2.145-8.799-6.654-8.799
		c-4.564,0-6.819,3.354-6.874,8.799H270.026z"/>
	<path fill="#02577D" d="M296.92,248.92c-2.419-0.55-4.894-0.88-7.094-0.88c-3.85,0-5.884,1.265-5.884,3.795
		c0,6.049,15.013,3.189,15.013,12.813c0,5.719-4.399,8.248-10.889,8.248c-2.584,0-5.884-0.494-7.919-1.154l0.22-3.52
		c2.2,0.604,5.17,0.989,7.534,0.989c4.399,0,6.765-1.484,6.765-4.234c0-6.049-15.014-2.914-15.014-12.813
		c0-5.225,4.07-7.755,9.789-7.755c2.694,0,5.719,0.495,7.864,1.155L296.92,248.92z"/>
	<path fill="#02577D" d="M307.042,238.856c1.32-0.44,3.135-0.825,4.564-0.825v7.149h7.095v3.354h-7.095v14.958
		c0,2.585,0.165,3.904,0.935,4.729c0.605,0.66,1.54,1.045,3.465,1.045c0.936,0,2.75-0.165,4.069-0.44l0.221,3.354
		c-1.431,0.385-3.575,0.715-5.555,0.715c-2.64,0-4.784-0.715-5.994-2.09c-1.32-1.539-1.705-3.354-1.705-6.709v-15.563h-4.895v-2.585
		l4.895-0.715V238.856z"/>
	<path fill="#02577D" d="M341.689,270.313c-2.364,1.539-5.225,2.584-8.469,2.584c-2.915,0-5.39-0.88-7.039-2.584
		c-1.32-1.375-2.145-3.3-2.145-5.829c0-2.53,0.88-4.51,2.31-5.83c2.034-1.869,5.225-2.584,9.129-2.584h5.609v-1.705
		c0-2.199-0.386-3.574-1.375-4.564c-1.155-1.1-2.915-1.595-5.609-1.595c-2.035,0-4.619,0.22-7.259,0.66l-0.165-3.52
		c2.529-0.605,5.609-0.936,8.193-0.936c4.015,0,6.709,0.881,8.414,2.476c1.705,1.649,2.365,3.794,2.365,7.313v17.928h-3.685
		L341.689,270.313z M341.085,259.424h-4.95c-2.804,0-4.729,0.385-5.994,1.375c-0.935,0.77-1.484,1.925-1.484,3.574
		c0,3.244,2.035,4.839,5.555,4.839c2.199,0,4.894-0.77,6.874-1.76V259.424z"/>
	<path fill="#02577D" d="M357.035,245.181l0.275,2.31c2.585-2.145,5.279-3.08,7.644-3.08c0.495,0,1.155,0.056,1.76,0.165v4.07
		c-0.604-0.056-1.595-0.11-2.364-0.11c-2.364,0-4.619,0.604-6.544,1.814v21.777h-4.564v-26.946H357.035z"/>
</g>
</svg>
