<?xml version="1.0" encoding="utf-8"?>
<!-- Generator: Adobe Illustrator 16.0.4, SVG Export Plug-In . SVG Version: 6.00 Build 0)  -->
<!DOCTYPE svg PUBLIC "-//W3C//DTD SVG 1.1//EN" "http://www.w3.org/Graphics/SVG/1.1/DTD/svg11.dtd">
<svg version="1.1" id="Layer_1" xmlns="http://www.w3.org/2000/svg" xmlns:xlink="http://www.w3.org/1999/xlink" x="0px" y="0px"
	 width="500px" height="500px" viewBox="0 0 500 500" enable-background="new 0 0 500 500" xml:space="preserve">
<rect fill="#00C6D7" width="500" height="500"/>
<g>
	<g enable-background="new    ">
		<path fill="#FFFFFF" d="M180.015,236.533c3.193,0,5.391-0.574,6.857-1.878c1.152-1.043,1.779-2.504,1.779-4.434
			c0-1.565-0.367-2.921-1.256-3.862c-0.889-0.939-2.408-1.669-5.286-2.556l-2.722-0.835c-3.455-1.043-5.653-2.295-6.962-3.547
			c-1.832-1.722-2.565-3.808-2.565-6.47c0-2.974,0.995-5.27,2.775-6.94c2.25-2.086,5.287-2.974,9.631-2.974
			c2.984,0,6.333,0.574,8.166,1.096c0.576,0.157,0.837,0.365,0.837,1.043v6.208h-3.351c-0.261-0.521-0.68-2.869-0.68-4.122
			c-1.361-0.208-3.822-0.365-5.13-0.365c-2.931,0-5.077,0.47-6.491,1.878c-0.89,0.887-1.414,2.139-1.414,3.704
			c0,1.513,0.367,2.817,1.466,3.913c0.942,0.887,2.408,1.774,5.183,2.608l2.879,0.887c3.612,1.148,5.862,2.296,7.328,4.017
			c1.309,1.513,1.937,3.496,1.937,6.208c0,3.078-0.995,5.425-2.723,7.095c-2.146,2.087-5.601,3.13-10.155,3.13
			c-3.664,0-7.118-0.47-9.055-1.043c-0.628-0.208-0.837-0.417-0.837-1.096v-6.364h3.35c0.262,0.574,0.681,2.921,0.681,4.173
			C175.512,236.271,177.815,236.533,180.015,236.533z"/>
		<path fill="#FFFFFF" d="M206.502,240.29c-4.711,0-8.584-2.609-8.584-8.035c0-2.347,0.733-4.226,2.041-5.53
			c1.728-1.774,4.659-2.609,8.584-2.609c1.884,0,3.821,0.104,5.705,0.209v-2.243c0-2.087-0.367-3.131-1.152-3.861
			c-0.89-0.834-2.356-1.096-4.816-1.096h-7.957v-2.713c2.722-0.73,6.438-1.148,9.265-1.148c3.298,0,5.602,0.835,7.067,2.348
			c1.256,1.304,1.832,3.078,1.832,5.843v14.921h3.455v3.13c-1.779,0.208-3.455,0.365-4.816,0.365c-1.727,0-2.512-0.73-2.774-1.826
			C212.103,239.351,209.277,240.29,206.502,240.29z M214.249,227.455h-5.234c-2.408,0-4.187,0.365-5.234,1.147
			c-0.994,0.73-1.518,1.878-1.518,3.443c0,2.66,1.466,4.539,5.339,4.539c2.146,0,4.659-0.417,6.647-1.147V227.455L214.249,227.455z"
			/>
		<path fill="#FFFFFF" d="M231.89,239.559h-4.239V205.23h-3.56v-3.13c1.151-0.104,3.664-0.312,4.868-0.312
			c1.046,0,1.832,0.208,2.355,0.73c0.419,0.417,0.575,1.043,0.575,2.086L231.89,239.559L231.89,239.559z"/>
		<path fill="#FFFFFF" d="M244.872,230.95c0,2.139,0.313,3.444,1.151,4.279s2.304,1.147,4.241,1.147
			c1.936,0,4.292-0.312,6.857-0.991v-18.156h-3.403v-3.234h7.642v22.381h3.562v3.027c-1.777,0.209-3.562,0.365-4.921,0.365
			c-1.728,0-2.515-0.73-2.771-1.617c-2.565,1.252-5.444,2.139-8.325,2.139c-2.931,0-5.129-0.834-6.438-2.243
			c-1.308-1.409-1.832-3.234-1.832-6.104V217.23h-3.403v-3.13c1.152-0.104,3.56-0.313,4.711-0.313c1.046,0,1.833,0.209,2.355,0.73
			c0.418,0.417,0.576,1.044,0.576,2.087L244.872,230.95L244.872,230.95z"/>
		<path fill="#FFFFFF" d="M286.279,237.993c-2.461,1.356-5.184,2.295-7.695,2.295c-6.438,0-9.789-5.112-9.789-13.669
			c0-8.244,3.823-13.356,10.104-13.356c2.307,0,4.977,0.783,7.172,1.878v-9.913h-3.562v-3.13c1.154-0.104,3.665-0.313,4.869-0.313
			c1.047,0,1.831,0.208,2.354,0.73c0.418,0.417,0.578,1.044,0.578,2.087v31.772h3.453v3.13c-1.779,0.209-3.453,0.365-4.816,0.365
			c-1.725,0-2.405-0.73-2.668-1.826V237.993L286.279,237.993z M286.068,235.229v-17.165c-2.094-0.521-4.396-0.939-6.071-0.939
			c-4.71,0-6.806,3.182-6.806,9.444c0,7.512,2.252,9.86,6.543,9.86C281.62,236.428,284.236,235.958,286.068,235.229z"/>
		<path fill="#FFFFFF" d="M314.231,230.95c0,2.139,0.312,3.444,1.148,4.279c0.838,0.835,2.303,1.147,4.238,1.147
			c1.938,0,4.294-0.312,6.854-0.991v-18.156h-3.398v-3.234h7.642v27.338c0,3.965-0.889,6.47-2.562,8.191
			c-1.676,1.722-4.293,2.505-7.801,2.505c-1.887,0-4.396-0.262-6.229-0.627v-2.921h4.921c2.932,0,4.766-0.469,5.863-1.565
			c1.204-1.148,1.569-2.87,1.569-6v-2.712c-2.564,1.251-5.396,2.086-8.221,2.086c-2.931,0-5.13-0.835-6.438-2.244
			c-1.312-1.408-1.832-3.234-1.832-6.104v-14.713h-3.4v-3.13c1.152-0.104,3.562-0.313,4.71-0.313c1.048,0,1.831,0.209,2.356,0.73
			c0.419,0.417,0.574,1.043,0.574,2.087v14.347H314.231L314.231,230.95z"/>
	</g>
	<g enable-background="new    ">
		<path fill="#FFFFFF" d="M151.615,276.891c2.304-1.094,5.025-1.824,7.485-1.824c3.245,0,5.497,1.252,7.014,3.287
			c1.78,2.453,2.67,5.896,2.67,10.069c0,8.556-3.193,13.669-9.631,13.669c-2.67,0-5.601-0.99-8.113-2.505
			c-0.052,0.522-0.367,1.409-0.576,1.774h-3.088v-34.33h-3.56V263.9c1.152-0.104,3.664-0.312,4.868-0.312
			c1.047,0,1.833,0.209,2.356,0.729c0.419,0.418,0.575,1.043,0.575,2.088V276.891z M151.615,279.918v17.008
			c1.833,0.783,4.345,1.305,6.333,1.305c4.292,0,6.438-2.348,6.438-9.856c0-3.078-0.576-5.431-1.413-6.938
			c-1.047-1.826-2.669-2.506-5.078-2.506C155.698,278.926,153.5,279.396,151.615,279.918z"/>
		<path fill="#FFFFFF" d="M180.616,301.361h-4.24v-22.33h-3.664V275.9c1.152-0.104,3.769-0.312,4.973-0.312
			c1.047,0,1.832,0.21,2.356,0.729c0.419,0.418,0.576,1.045,0.576,2.092L180.616,301.361L180.616,301.361z M178.104,270.525
			c-1.571,0-2.564-0.781-2.564-2.767v-0.153c0-1.98,0.994-2.768,2.564-2.768h0.314c1.571,0,2.564,0.784,2.564,2.768v0.153
			c0,1.983-0.995,2.767-2.564,2.767H178.104z"/>
		<path fill="#FFFFFF" d="M191.242,289.883c0.105,2.766,0.681,4.799,2.041,6.208c1.466,1.563,3.77,2.296,7.904,2.296h6.491v2.608
			c-2.25,0.625-5.443,1.095-8.061,1.095c-4.345,0-7.538-1.199-9.474-3.287c-2.251-2.398-3.298-6-3.298-10.279
			c0-7.979,4.03-13.459,11.202-13.459c6.856,0,10.626,4.955,10.626,12.834v1.516c0,0.361-0.158,0.47-0.576,0.47L191.242,289.883
			L191.242,289.883L191.242,289.883z M204.642,286.545c-0.367-4.957-2.355-7.931-6.595-7.931c-4.554,0-6.595,3.599-6.752,7.931
			H204.642z"/>
		<path fill="#FFFFFF" d="M240.448,298.178v3.131c-1.152,0.104-3.508,0.313-4.712,0.313c-1.046,0-1.833-0.209-2.355-0.729
			c-0.419-0.418-0.576-1.045-0.576-2.088v-14.4c0-2.137-0.314-3.438-1.152-4.273c-0.838-0.834-2.304-1.146-4.24-1.146
			c-1.937,0-4.397,0.365-7.066,0.99v21.392h-4.24v-22.328h-3.56v-3.079c1.78-0.209,3.56-0.365,4.92-0.365
			c1.728,0,2.513,0.418,2.826,1.617c2.565-1.252,5.548-2.138,8.48-2.138c2.931,0,5.129,0.834,6.438,2.241
			c1.309,1.408,1.833,3.232,1.833,6.104v14.767h3.404V298.178z"/>
		<path fill="#FFFFFF" d="M248.458,289.883c0.105,2.766,0.681,4.799,2.041,6.208c1.466,1.563,3.769,2.296,7.903,2.296h6.492v2.608
			c-2.252,0.625-5.443,1.095-8.062,1.095c-4.344,0-7.538-1.199-9.474-3.287c-2.251-2.398-3.298-6-3.298-10.279
			c0-7.979,4.03-13.459,11.201-13.459c6.856,0,10.626,4.955,10.626,12.834v1.516c0,0.361-0.156,0.47-0.576,0.47L248.458,289.883
			L248.458,289.883L248.458,289.883z M261.857,286.545c-0.365-4.957-2.355-7.931-6.596-7.931c-4.558,0-6.598,3.599-6.755,7.931
			H261.857z"/>
		<path fill="#FFFFFF" d="M274.789,294.63c0.209,0.627,0.575,2.399,0.682,3.496c1.098,0.313,3.453,0.574,5.129,0.574
			c2.356,0,4.03-0.365,5.077-1.253c0.732-0.627,1.101-1.67,1.101-2.766c0-2.351-1.568-3.342-4.865-4.121l-3.034-0.783
			c-2.728-0.68-4.503-1.409-5.651-2.559c-1.259-1.256-1.832-2.926-1.832-4.695c0-2.191,0.783-4.069,2.305-5.322
			c1.83-1.564,4.344-2.139,7.537-2.139c2.094,0,5.23,0.261,7.172,0.729c0.838,0.208,0.994,0.573,0.994,1.199v5.062h-3.143
			c-0.262-0.625-0.574-2.299-0.683-3.342c-1.259-0.152-2.882-0.261-4.296-0.261c-3.926,0-6.02,1.254-6.02,3.758
			c0,2.142,1.57,3.078,4.866,3.912l3.142,0.782c2.879,0.729,4.448,1.517,5.604,2.658c1.256,1.254,1.831,2.926,1.831,4.854
			c0,2.295-0.786,4.173-2.197,5.429c-1.729,1.514-4.396,2.241-7.854,2.241c-2.723,0-5.967-0.362-8.062-0.938
			c-0.786-0.209-0.94-0.572-0.94-1.197v-5.322L274.789,294.63L274.789,294.63z"/>
		<path fill="#FFFFFF" d="M298.188,269.85c1.205-0.365,2.936-0.679,4.239-0.729v6.678h6.963v3.234h-6.963v14.396
			c0,1.93,0.105,3.075,0.733,3.858c0.576,0.729,1.568,1.097,3.455,1.097h4.765v2.766c-1.414,0.521-3.928,0.938-5.758,0.938
			c-2.619,0-4.397-0.625-5.549-1.722c-1.361-1.308-1.886-3.187-1.886-6.521v-14.818h-4.449v-2.502l4.449-0.781V269.85
			L298.188,269.85z"/>
		<path fill="#FFFFFF" d="M323.156,302.092c-4.711,0-8.583-2.609-8.583-8.035c0-2.348,0.729-4.227,2.041-5.529
			c1.727-1.771,4.659-2.606,8.584-2.606c1.885,0,3.818,0.104,5.705,0.21v-2.242c0-2.089-0.366-3.132-1.152-3.861
			c-0.889-0.832-2.355-1.096-4.816-1.096h-7.956v-2.714c2.728-0.729,6.438-1.146,9.269-1.146c3.298,0,5.602,0.834,7.063,2.348
			c1.26,1.305,1.832,3.08,1.832,5.844v14.92h3.456v3.131c-1.777,0.209-3.456,0.365-4.812,0.365c-1.729,0-2.517-0.729-2.773-1.826
			C328.757,301.152,325.932,302.092,323.156,302.092z M330.903,289.257h-5.234c-2.408,0-4.188,0.365-5.233,1.149
			c-0.991,0.729-1.521,1.878-1.521,3.443c0,2.654,1.466,4.534,5.34,4.534c2.146,0,4.658-0.418,6.647-1.146L330.903,289.257
			L330.903,289.257z"/>
		<path fill="#FFFFFF" d="M349.122,301.361h-4.24v-22.33h-3.56v-3.078c1.776-0.208,3.56-0.364,4.92-0.364
			c1.728,0,2.618,0.364,2.826,2.034c2.095-1.253,5.392-2.557,7.381-2.557c0.837,0,1.255,0.26,1.255,1.096v3.184h-1.361
			c-3.088,0-4.971,0.155-7.224,0.678v21.338H349.122L349.122,301.361z"/>
	</g>
</g>
<g>
	<path fill="#FFFFFF" d="M443.692,60.361v14.005h-9.404V60.361h-14.005v-9.403h14.005V36.953h9.404v14.005h14.005v9.403H443.692
		L443.692,60.361z"/>
</g>
<path fill="none" stroke="#FFFFFF" stroke-width="4" stroke-linecap="round" stroke-miterlimit="10" d="M458.125,84h-44.849
	c-2.361,0-4.275-1.915-4.275-4.275v-50.45c0-2.361,1.914-4.275,4.275-4.275h50.446c2.359,0,4.275,1.915,4.275,4.275V73.5"/>
</svg>
