<?xml version="1.0" encoding="utf-8"?>
<!-- Generator: Adobe Illustrator 16.0.4, SVG Export Plug-In . SVG Version: 6.00 Build 0)  -->
<!DOCTYPE svg PUBLIC "-//W3C//DTD SVG 1.1//EN" "http://www.w3.org/Graphics/SVG/1.1/DTD/svg11.dtd">
<svg version="1.1" id="Layer_1" xmlns="http://www.w3.org/2000/svg" xmlns:xlink="http://www.w3.org/1999/xlink" x="0px" y="0px"
	 width="500px" height="500px" viewBox="0 0 500 500" enable-background="new 0 0 500 500" xml:space="preserve">
<rect fill="#00C6D7" width="500" height="500"/>
<g enable-background="new    ">
	<path fill="#FFFFFF" d="M206.87,230.301v3.728h-3.909v31.169h3.909v3.728h-12.406v-3.728h3.909V240.86l-11.217,19.48h-2.72
		c-1.076,0-1.53-0.227-2.04-1.13l-10.253-18.577v24.562h3.909v3.727h-12.123v-3.727h3.909v-31.169h-3.909V230.3h5.212
		c1.982,0,2.492,0.283,3.229,1.638l12.974,23.83l13.256-23.717c0.736-1.299,1.36-1.75,3.059-1.75H206.87L206.87,230.301z"/>
	<path fill="#FFFFFF" d="M220.13,259.605c0,2.312,0.34,3.729,1.247,4.631c0.906,0.904,2.493,1.242,4.589,1.242
		c2.096,0,4.646-0.338,7.421-1.072v-19.649h-3.683v-3.501h8.271v24.223h3.853v3.276c-1.926,0.226-3.853,0.394-5.325,0.394
		c-1.869,0-2.719-0.789-3.002-1.75c-2.776,1.356-5.892,2.314-9.008,2.314c-3.172,0-5.551-0.902-6.967-2.429
		c-1.416-1.522-1.983-3.499-1.983-6.604v-15.925h-3.683v-3.388c1.247-0.113,3.853-0.339,5.098-0.339c1.133,0,1.983,0.226,2.55,0.791
		c0.453,0.452,0.623,1.129,0.623,2.258L220.13,259.605L220.13,259.605z M221.886,234.027l8.101-7.735
		c0.906-0.847,1.472-0.96,2.153,0l1.813,2.484l-10.311,7.454L221.886,234.027z"/>
	<path fill="#FFFFFF" d="M250.44,261.641c0.228,0.678,0.623,2.596,0.736,3.782c1.189,0.339,3.739,0.621,5.553,0.621
		c2.551,0,4.362-0.396,5.494-1.354c0.795-0.678,1.19-1.809,1.19-2.994c0-2.536-1.699-3.609-5.269-4.461l-3.285-0.848
		c-2.945-0.734-4.875-1.521-6.118-2.77c-1.359-1.354-1.983-3.161-1.983-5.081c0-2.372,0.85-4.404,2.493-5.759
		c1.983-1.694,4.702-2.315,8.16-2.315c2.264,0,5.664,0.282,7.761,0.791c0.906,0.226,1.077,0.621,1.077,1.298v5.478h-3.399
		c-0.283-0.678-0.623-2.485-0.736-3.614c-1.356-0.169-3.112-0.282-4.646-0.282c-4.247,0-6.514,1.356-6.514,4.065
		c0,2.315,1.696,3.331,5.269,4.235l3.396,0.848c3.115,0.789,4.814,1.639,6.062,2.879c1.357,1.355,1.98,3.163,1.98,5.251
		c0,2.485-0.854,4.519-2.381,5.873c-1.868,1.638-4.76,2.429-8.496,2.429c-2.946,0-6.458-0.396-8.723-1.018
		c-0.85-0.229-1.02-0.621-1.02-1.299v-5.763L250.44,261.641L250.44,261.641z"/>
	<path fill="#FFFFFF" d="M280.411,268.925h-4.588v-24.168h-3.966v-3.388c1.246-0.113,4.078-0.339,5.381-0.339
		c1.136,0,1.982,0.226,2.552,0.791c0.452,0.452,0.623,1.129,0.623,2.259L280.411,268.925L280.411,268.925z M277.691,235.552
		c-1.699,0-2.775-0.847-2.775-2.993v-0.169c0-2.146,1.076-2.993,2.775-2.993h0.342c1.697,0,2.773,0.847,2.773,2.993v0.169
		c0,2.146-1.076,2.993-2.773,2.993H277.691z"/>
	<path fill="#FFFFFF" d="M308.794,268.585c-2.209,0.621-5.438,1.13-7.761,1.13c-4.419,0-7.988-1.355-10.311-3.896
		c-2.27-2.479-3.568-6.209-3.568-10.782c0-4.797,1.529-8.523,3.908-10.952c2.319-2.372,6.062-3.614,10.084-3.614
		c2.662,0,5.099,0.396,6.799,0.791c0.732,0.169,0.902,0.452,0.902,1.187v6.269h-3.513c-0.28-0.678-0.733-2.938-0.793-4.235
		c-0.903-0.113-1.756-0.169-2.772-0.169c-3.172,0-5.608,0.677-7.194,2.314c-1.644,1.694-2.661,4.521-2.661,8.354
		c0,2.99,0.564,6.209,2.436,8.129c1.813,1.865,4.534,2.602,8.611,2.602h5.835L308.794,268.585L308.794,268.585z"/>
	<path fill="#FFFFFF" d="M322.734,269.715c-5.104,0-9.29-2.822-9.29-8.695c0-2.543,0.792-4.574,2.209-5.983
		c1.868-1.92,5.042-2.823,9.29-2.823c2.04,0,4.135,0.114,6.174,0.229v-2.432c0-2.26-0.396-3.387-1.247-4.18
		c-0.962-0.901-2.55-1.186-5.212-1.186h-8.61v-2.936c2.946-0.791,6.967-1.243,10.027-1.243c3.564,0,6.062,0.904,7.646,2.541
		c1.359,1.412,1.983,3.333,1.983,6.324v16.146h3.739v3.391c-1.93,0.226-3.739,0.395-5.213,0.395c-1.868,0-2.723-0.787-3.002-1.976
		C328.794,268.698,325.735,269.715,322.734,269.715z M331.117,255.823h-5.665c-2.606,0-4.532,0.396-5.664,1.243
		c-1.077,0.791-1.646,2.033-1.646,3.727c0,2.879,1.59,4.913,5.777,4.913c2.323,0,5.044-0.452,7.194-1.243L331.117,255.823
		L331.117,255.823z"/>
</g>
<g>
	<path fill="#FFFFFF" d="M443.692,60.361v14.005h-9.404V60.361h-14.005v-9.403h14.005V36.953h9.404v14.005h14.005v9.403H443.692
		L443.692,60.361z"/>
</g>
<path fill="none" stroke="#FFFFFF" stroke-width="4" stroke-linecap="round" stroke-miterlimit="10" d="M458.125,84h-44.849
	c-2.361,0-4.275-1.915-4.275-4.275v-50.45c0-2.361,1.914-4.275,4.275-4.275h50.446c2.359,0,4.275,1.915,4.275,4.275V73.5"/>
</svg>
