<?xml version="1.0" encoding="utf-8"?>
<!-- Generator: Adobe Illustrator 17.0.0, SVG Export Plug-In . SVG Version: 6.00 Build 0)  -->
<!DOCTYPE svg PUBLIC "-//W3C//DTD SVG 1.1//EN" "http://www.w3.org/Graphics/SVG/1.1/DTD/svg11.dtd">
<svg version="1.1" id="Layer_1" xmlns="http://www.w3.org/2000/svg" xmlns:xlink="http://www.w3.org/1999/xlink" x="0px" y="0px"
	 width="50px" height="50px" viewBox="0 0 50 50" enable-background="new 0 0 50 50" xml:space="preserve">
<g>
	<path fill-rule="evenodd" clip-rule="evenodd" fill="#FFFFFF" d="M28.069,35.993v-7.937h7.937c0.447,0,0.971-0.464,0.971-0.91
		v-3.694c0-0.447-0.524-0.91-0.971-0.91h-7.937v-7.937c0-0.447-0.463-0.971-0.91-0.971h-3.694c-0.447,0-0.91,0.524-0.91,0.971v7.937
		h-7.937c-0.447,0-0.971,0.464-0.971,0.91v3.694c0,0.447,0.524,0.91,0.971,0.91h7.937v7.937c0,0.447,0.463,0.971,0.91,0.971h3.694
		C27.606,36.964,28.069,36.439,28.069,35.993z"/>
	<path fill-rule="evenodd" clip-rule="evenodd" fill="#FFFFFF" d="M36.464,43.751H9.393c-1.399,0-2.533-1.134-2.533-2.533V8.955
		c0-1.399,1.134-2.533,2.533-2.533h32.263c1.399,0,2.533,1.134,2.533,2.533v27.071c0,0.518,0.42,0.938,0.938,0.938h3.214
		c0.518,0,0.938-0.42,0.938-0.938V6.422c0-2.811-2.279-5.09-5.09-5.09H6.436c-2.811,0-5.09,2.279-5.09,5.09v37.753
		c0,2.811,2.279,5.09,5.09,5.09h30.028c0.518,0,0.938-0.42,0.938-0.938v-3.638C37.402,44.171,36.982,43.751,36.464,43.751z"/>
</g>
</svg>
