<?xml version="1.0" encoding="utf-8"?>
<!-- Generator: Adobe Illustrator 16.0.4, SVG Export Plug-In . SVG Version: 6.00 Build 0)  -->
<!DOCTYPE svg PUBLIC "-//W3C//DTD SVG 1.1//EN" "http://www.w3.org/Graphics/SVG/1.1/DTD/svg11.dtd">
<svg version="1.1" id="Layer_1" xmlns="http://www.w3.org/2000/svg" xmlns:xlink="http://www.w3.org/1999/xlink" x="0px" y="0px"
	 width="500px" height="500px" viewBox="0 0 500 500" enable-background="new 0 0 500 500" xml:space="preserve">
<rect fill="#A9CF38" width="500" height="500"/>
<g>
	<g enable-background="new    ">
		<path fill="#005C84" d="M138.927,268.477v-3.801h3.988v-31.792h-3.988v-3.802h13.521c7.339,0,11.673,1.383,14.677,4.493
			c3.006,3.11,4.507,8.006,4.507,14.975c0,7.314-1.444,12.384-4.507,15.606c-2.831,2.938-6.876,4.32-13.58,4.32H138.927
			L138.927,268.477z M147.942,264.561h5.663c4.623,0,7.743-1.037,9.707-3.168c2.428-2.646,3.236-6.912,3.236-12.844
			c0-5.644-0.982-9.849-3.525-12.382c-2.138-2.131-5.2-3.168-10.517-3.168h-4.565L147.942,264.561L147.942,264.561L147.942,264.561z
			"/>
		<path fill="#005C84" d="M182.209,255.807c0.116,3.051,0.751,5.297,2.253,6.854c1.618,1.728,4.161,2.532,8.726,2.532h7.165v2.881
			c-2.484,0.689-6.009,1.209-8.898,1.209c-4.796,0-8.321-1.325-10.459-3.628c-2.485-2.648-3.64-6.624-3.64-11.351
			c0-8.812,4.449-14.856,12.366-14.856c7.569,0,11.729,5.471,11.729,14.168v1.67c0,0.401-0.173,0.521-0.635,0.521H182.209
			L182.209,255.807z M197.001,252.12c-0.403-5.471-2.6-8.754-7.28-8.754c-5.028,0-7.281,3.973-7.455,8.754H197.001z"/>
		<path fill="#005C84" d="M214.339,267.036v14.399h-4.681v-37.609h-3.93v-3.398c1.964-0.229,3.93-0.404,5.432-0.404
			c1.907,0,2.773,0.461,3.12,1.728c2.543-1.382,5.259-2.303,8.148-2.303c6.933,0,10.806,5.644,10.806,14.744
			c0,9.445-3.756,15.09-10.863,15.09C219.714,269.283,216.824,268.477,214.339,267.036z M214.339,244.921v18.774
			c2.022,0.807,4.796,1.324,6.876,1.324c4.738,0,7.165-2.598,7.165-10.891c0-7.546-2.601-10.425-7.223-10.425
			C219.136,243.711,216.651,244.287,214.339,244.921z"/>
		<path fill="#005C84" d="M251.323,269.283c-8.437,0-12.943-5.645-12.943-14.918c0-9.271,4.506-14.916,12.943-14.916
			c8.437,0,12.942,5.644,12.942,14.916C264.268,263.641,259.76,269.283,251.323,269.283z M251.323,243.597
			c-5.836,0-8.089,3.857-8.089,10.769c0,6.911,2.253,10.771,8.089,10.771c5.836,0,8.089-3.859,8.089-10.771
			C259.412,247.454,257.159,243.597,251.323,243.597z"/>
		<path fill="#005C84" d="M276.98,268.477H272.3V243.83h-3.929v-3.398c1.964-0.231,3.929-0.404,5.431-0.404
			c1.907,0,2.89,0.404,3.12,2.247c2.311-1.382,5.952-2.822,8.146-2.822c0.926,0,1.388,0.288,1.388,1.209v3.513h-1.503
			c-3.41,0-5.489,0.173-7.975,0.749L276.98,268.477L276.98,268.477z"/>
		<path fill="#005C84" d="M293.855,233.689c1.328-0.403,3.229-0.749,4.681-0.806v7.372h7.685v3.571h-7.685v15.896
			c0,2.129,0.114,3.396,0.81,4.26c0.635,0.808,1.733,1.211,3.812,1.211h5.259v3.054c-1.562,0.573-4.334,1.036-6.356,1.036
			c-2.89,0-4.854-0.69-6.125-1.901c-1.502-1.44-2.08-3.514-2.08-7.198V243.83h-4.912v-2.765l4.912-0.864V233.689L293.855,233.689z"
			/>
		<path fill="#005C84" d="M316.277,255.807c0.11,3.051,0.753,5.297,2.253,6.854c1.618,1.728,4.161,2.532,8.727,2.532h7.165v2.881
			c-2.484,0.689-6.009,1.209-8.896,1.209c-4.804,0-8.323-1.325-10.459-3.628c-2.487-2.648-3.646-6.624-3.646-11.351
			c0-8.812,4.448-14.856,12.367-14.856c7.569,0,11.729,5.471,11.729,14.168v1.67c0,0.401-0.172,0.521-0.636,0.521H316.277
			L316.277,255.807z M331.069,252.12c-0.404-5.471-2.604-8.754-7.28-8.754c-5.028,0-7.282,3.973-7.454,8.754H331.069z"/>
		<path fill="#005C84" d="M345.343,261.048c0.231,0.688,0.644,2.647,0.752,3.856c1.214,0.348,3.813,0.635,5.664,0.635
			c2.604,0,4.45-0.402,5.604-1.385c0.811-0.689,1.214-1.842,1.214-3.051c0-2.598-1.732-3.688-5.374-4.558l-3.354-0.858
			c-3.009-0.748-4.971-1.562-6.235-2.822c-1.393-1.383-2.022-3.226-2.022-5.184c0-2.419,0.868-4.492,2.544-5.874
			c2.021-1.728,4.795-2.361,8.32-2.361c2.311,0,5.777,0.287,7.917,0.805c0.925,0.231,1.098,0.634,1.098,1.325v5.586H358
			c-0.288-0.691-0.636-2.534-0.751-3.686c-1.386-0.173-3.179-0.289-4.737-0.289c-4.338,0-6.646,1.383-6.646,4.146
			c0,2.362,1.729,3.399,5.371,4.321l3.468,0.863c3.178,0.808,4.912,1.672,6.184,2.938c1.394,1.383,2.022,3.227,2.022,5.355
			c0,2.529-0.867,4.604-2.426,5.983c-1.907,1.679-4.855,2.479-8.667,2.479c-3.014,0-6.588-0.4-8.9-1.033
			c-0.868-0.23-1.04-0.637-1.04-1.324v-5.875L345.343,261.048L345.343,261.048z"/>
	</g>
</g>
<g>
	<path fill="#FFFFFF" d="M443.693,60.362v14.002h-9.407V60.362h-14.004v-9.403h14.004V36.954h9.407v14.005h14.005v9.403H443.693
		L443.693,60.362z"/>
</g>
<path fill="none" stroke="#FFFFFF" stroke-width="4" stroke-linecap="round" stroke-miterlimit="10" d="M458.125,84h-44.849
	c-2.361,0-4.275-1.915-4.275-4.275v-50.45c0-2.361,1.914-4.275,4.275-4.275h50.446c2.359,0,4.275,1.915,4.275,4.275V73.5"/>
</svg>
