<?xml version="1.0" encoding="utf-8"?>
<!-- Generator: Adobe Illustrator 17.0.0, SVG Export Plug-In . SVG Version: 6.00 Build 0)  -->
<!DOCTYPE svg PUBLIC "-//W3C//DTD SVG 1.1//EN" "http://www.w3.org/Graphics/SVG/1.1/DTD/svg11.dtd">
<svg version="1.1" id="Layer_1" xmlns="http://www.w3.org/2000/svg" xmlns:xlink="http://www.w3.org/1999/xlink" x="0px" y="0px"
	 width="15px" height="15px" viewBox="0 0 15 15" enable-background="new 0 0 15 15" xml:space="preserve">
<path fill="#808080" d="M14.064,12.705l-2.466-2.699c-0.291-0.318-0.71-0.412-1.092-0.312L10.092,9.24
	c0.827-0.949,1.346-2.192,1.346-3.568c0-2.947-2.317-5.347-5.165-5.347s-5.165,2.4-5.165,5.347c0,2.948,2.317,5.348,5.165,5.348
	c1.129,0,2.166-0.388,3.017-1.027l0.429,0.47c-0.118,0.39-0.05,0.829,0.24,1.147l2.466,2.699c0.221,0.244,0.52,0.367,0.82,0.367
	c0.278,0,0.556-0.107,0.776-0.32C14.473,13.912,14.492,13.172,14.064,12.705z M6.273,9.099c-1.828,0-3.309-1.534-3.309-3.427
	c0-1.891,1.481-3.426,3.309-3.426c1.827,0,3.308,1.535,3.308,3.426C9.581,7.565,8.1,9.099,6.273,9.099z"/>
</svg>
