<?xml version="1.0" encoding="utf-8"?>
<!-- Generator: Adobe Illustrator 16.0.4, SVG Export Plug-In . SVG Version: 6.00 Build 0)  -->
<!DOCTYPE svg PUBLIC "-//W3C//DTD SVG 1.1//EN" "http://www.w3.org/Graphics/SVG/1.1/DTD/svg11.dtd">
<svg version="1.1" id="Layer_1" xmlns="http://www.w3.org/2000/svg" xmlns:xlink="http://www.w3.org/1999/xlink" x="0px" y="0px"
	 width="500px" height="500px" viewBox="0 0 500 500" enable-background="new 0 0 500 500" xml:space="preserve">
<rect fill="#A9CF38" width="500" height="500"/>
<g enable-background="new    ">
	<path fill="#005C84" d="M207.555,173.114v3.764h-3.946v31.468h3.946v3.762H195.03v-3.762h3.946v-24.571l-11.325,19.668h-2.746
		c-1.086,0-1.544-0.228-2.06-1.14l-10.352-18.755v24.798h3.947v3.762H164.2v-3.762h3.947v-31.468H164.2v-3.764h5.262
		c2.001,0,2.516,0.286,3.26,1.654l13.098,24.057l13.383-23.943c0.743-1.311,1.373-1.768,3.089-1.768L207.555,173.114
		L207.555,173.114z"/>
	<path fill="#005C84" d="M220.942,202.701c0,2.337,0.343,3.763,1.258,4.675s2.517,1.254,4.633,1.254c2.117,0,4.69-0.342,7.493-1.083
		v-19.839h-3.718v-3.534h8.35v24.456h3.89v3.307c-1.944,0.228-3.89,0.399-5.376,0.399c-1.887,0-2.745-0.798-3.031-1.767
		c-2.803,1.368-5.949,2.337-9.095,2.337c-3.203,0-5.605-0.912-7.035-2.451c-1.429-1.539-2.002-3.534-2.002-6.67v-16.076h-3.718
		v-3.42c1.258-0.114,3.89-0.342,5.147-0.342c1.144,0,2.002,0.229,2.574,0.798c0.457,0.456,0.629,1.14,0.629,2.28L220.942,202.701
		L220.942,202.701z"/>
	<path fill="#005C84" d="M276.537,208.629v3.421c-1.26,0.114-3.831,0.341-5.146,0.341c-1.145,0-2.002-0.228-2.574-0.798
		c-0.457-0.456-0.631-1.14-0.631-2.28V193.58c0-2.337-0.345-3.762-1.259-4.674c-0.917-0.912-2.517-1.254-4.633-1.254
		c-2.114,0-4.806,0.399-7.724,1.083v23.374h-4.631V187.71h-3.89v-3.363c1.944-0.228,3.89-0.399,5.375-0.399
		c1.889,0,2.745,0.456,3.088,1.768c2.803-1.368,6.063-2.337,9.266-2.337c3.203,0,5.605,0.912,7.035,2.451c1.431,1.54,2,3.535,2,6.67
		v16.133L276.537,208.629L276.537,208.629z"/>
	<path fill="#005C84" d="M299.761,210.396c-2.688,1.482-5.661,2.508-8.407,2.508c-7.033,0-10.69-5.586-10.69-14.936
		c0-9.008,4.174-14.594,11.036-14.594c2.518,0,5.435,0.855,7.838,2.052v-10.832h-3.893v-3.42c1.262-0.114,4.002-0.342,5.317-0.342
		c1.146,0,2.002,0.228,2.574,0.798c0.458,0.456,0.63,1.14,0.63,2.28v34.717h3.775v3.42c-1.944,0.229-3.775,0.399-5.267,0.399
		c-1.886,0-2.63-0.798-2.916-1.995L299.761,210.396L299.761,210.396z M299.531,207.376V188.62c-2.287-0.57-4.805-1.026-6.635-1.026
		c-5.146,0-7.438,3.477-7.438,10.319c0,8.208,2.46,10.774,7.146,10.774C294.67,208.687,297.529,208.173,299.531,207.376z"/>
	<path fill="#005C84" d="M324.814,212.906c-8.354,0-12.812-5.586-12.812-14.765c0-9.178,4.461-14.765,12.812-14.765
		c8.35,0,12.81,5.587,12.81,14.765C337.627,207.319,333.165,212.906,324.814,212.906z M324.814,187.48
		c-5.778,0-8.012,3.819-8.012,10.66c0,6.841,2.229,10.661,8.012,10.661c5.772,0,8.008-3.819,8.008-10.661
		C332.822,191.299,330.591,187.48,324.814,187.48z"/>
</g>
<g enable-background="new    ">
	<path fill="#005C84" d="M172.981,278.072c-2.688,1.479-5.662,2.507-8.408,2.507c-7.035,0-10.695-5.587-10.695-14.937
		c0-9.01,4.175-14.597,11.038-14.597c2.517,0,5.434,0.854,7.836,2.056V242.27h-3.89v-3.42c1.259-0.114,4.003-0.342,5.319-0.342
		c1.144,0,2.002,0.228,2.574,0.798c0.457,0.456,0.629,1.14,0.629,2.28v34.719h3.774v3.42c-1.944,0.229-3.774,0.398-5.262,0.398
		c-1.887,0-2.631-0.798-2.917-1.995L172.981,278.072L172.981,278.072z M172.753,275.051v-18.756
		c-2.287-0.57-4.804-1.025-6.635-1.025c-5.147,0-7.435,3.479-7.435,10.317c0,8.208,2.459,10.774,7.149,10.774
		C167.892,276.361,170.75,275.848,172.753,275.051z"/>
	<path fill="#005C84" d="M193.059,279.782h-4.632v-24.399h-4.003v-3.42c1.259-0.113,4.118-0.343,5.434-0.343
		c1.144,0,2.002,0.229,2.574,0.798c0.458,0.458,0.629,1.141,0.629,2.282L193.059,279.782L193.059,279.782z M190.313,246.09
		c-1.716,0-2.802-0.855-2.802-3.021v-0.171c0-2.167,1.086-3.021,2.802-3.021h0.344c1.716,0,2.802,0.855,2.802,3.021v0.171
		c0,2.167-1.086,3.021-2.802,3.021H190.313z"/>
	<path fill="#005C84" d="M212.22,272.029c-1.773,0-3.375-0.229-4.748-0.684l-1.029,4.271h8.694c3.946,0,6.578,0.688,8.235,2.224
		c1.488,1.368,2.289,3.423,2.289,6.157c0,6.669-5.319,9.402-13.155,9.402h-0.63c-7.549,0-12.125-3.42-12.125-8.775
		c0-2.105,0.8-4.048,2.517-5.982c-0.343-0.398-0.458-0.912-0.458-1.539c0-1.6,1.087-3.938,3.203-6.844
		c-2.803-1.822-4.232-4.847-4.232-8.724c0-6.388,3.947-10.488,11.439-10.488c0.915,0,1.772,0.113,2.574,0.229l2.745-7.354
		c1.315,0.342,3.088,1.026,4.118,1.71l-3.604,6.499c3.661,1.654,5.605,4.959,5.605,9.406
		C223.659,267.924,219.712,272.029,212.22,272.029z M204.842,279.839v0.114c-0.286,1.369-0.515,2.564-0.515,3.705
		c0,3.594,2.288,5.699,8.122,5.699h0.114c5.834,0,8.579-1.594,8.579-5.072c0-1.309-0.401-2.564-1.2-3.249
		c-0.973-0.854-2.517-1.14-5.09-1.14h-9.095C205.415,279.896,205.128,279.896,204.842,279.839z M212.22,254.869
		c-5.262,0-6.979,2.566-6.979,6.669s1.716,6.668,6.979,6.668c5.262,0,6.978-2.565,6.978-6.668S217.482,254.869,212.22,254.869z"/>
	<path fill="#005C84" d="M237.045,279.782h-4.633v-24.399h-4.003v-3.42c1.259-0.113,4.118-0.343,5.434-0.343
		c1.144,0,2.002,0.229,2.574,0.798c0.458,0.458,0.629,1.141,0.629,2.282L237.045,279.782L237.045,279.782z M234.298,246.09
		c-1.716,0-2.802-0.855-2.802-3.021v-0.171c0-2.167,1.087-3.021,2.802-3.021h0.344c1.715,0,2.802,0.855,2.802,3.021v0.171
		c0,2.167-1.087,3.021-2.802,3.021H234.298z"/>
	<path fill="#005C84" d="M246.997,245.349c1.316-0.399,3.203-0.741,4.633-0.798v7.297h7.606v3.534h-7.606v15.731
		c0,2.111,0.115,3.365,0.802,4.222c0.629,0.799,1.715,1.196,3.774,1.196h5.205v3.021c-1.544,0.568-4.289,1.025-6.292,1.025
		c-2.859,0-4.805-0.685-6.063-1.884c-1.486-1.426-2.06-3.479-2.06-7.125v-16.189h-4.861v-2.736l4.861-0.854L246.997,245.349
		L246.997,245.349z"/>
	<path fill="#005C84" d="M274.281,280.58c-5.148,0-9.381-2.852-9.381-8.779c0-2.564,0.802-4.617,2.229-6.042
		c1.889-1.938,5.094-2.851,9.38-2.851c2.062,0,4.177,0.113,6.234,0.228v-2.45c0-2.283-0.4-3.422-1.261-4.222
		c-0.971-0.912-2.574-1.194-5.262-1.194h-8.693v-2.965c2.976-0.799,7.033-1.255,10.123-1.255c3.604,0,6.121,0.912,7.724,2.563
		c1.371,1.427,2.001,3.363,2.001,6.387v16.305h3.773v3.42c-1.942,0.229-3.773,0.398-5.262,0.398c-1.889,0-2.744-0.798-3.029-1.995
		C280.4,279.555,277.312,280.58,274.281,280.58z M282.745,266.557h-5.72c-2.631,0-4.574,0.399-5.719,1.254
		c-1.086,0.799-1.658,2.058-1.658,3.767c0,2.903,1.601,4.959,5.832,4.959c2.346,0,5.092-0.455,7.263-1.254v-8.726H282.745
		L282.745,266.557z"/>
	<path fill="#005C84" d="M302.021,279.782h-4.633v-37.51H293.5v-3.421c1.258-0.114,4.004-0.342,5.318-0.342
		c1.144,0,2,0.228,2.574,0.798c0.457,0.456,0.629,1.141,0.629,2.28V279.782z"/>
	<path fill="#005C84" d="M327.131,270.375c0,2.338,0.345,3.764,1.261,4.676c0.915,0.911,2.52,1.254,4.635,1.254
		c2.113,0,4.688-0.343,7.488-1.082v-19.84h-3.716v-3.533h8.354v29.871c0,4.332-0.976,7.07-2.805,8.95
		c-1.832,1.884-4.688,2.735-8.521,2.735c-2.062,0-4.809-0.284-6.811-0.684v-3.193h5.376c3.203,0,5.206-0.514,6.408-1.709
		c1.315-1.256,1.714-3.137,1.714-6.557V278.3c-2.802,1.368-5.891,2.28-8.979,2.28c-3.202,0-5.606-0.912-7.035-2.451
		c-1.429-1.54-2-3.533-2-6.67v-16.076h-3.718v-3.42c1.26-0.113,3.89-0.343,5.146-0.343c1.146,0,2,0.229,2.574,0.798
		c0.457,0.458,0.628,1.141,0.628,2.282V270.375L327.131,270.375L327.131,270.375z"/>
</g>
<g enable-background="new    ">
	<path fill="#005C84" d="M126.394,313.023c1.315-0.399,3.203-0.741,4.633-0.799v7.297h7.607v3.535h-7.607v15.729
		c0,2.104,0.114,3.36,0.801,4.219c0.629,0.802,1.715,1.197,3.775,1.197h5.205v3.021c-1.544,0.567-4.289,1.024-6.292,1.024
		c-2.86,0-4.804-0.687-6.063-1.882c-1.486-1.426-2.059-3.479-2.059-7.127V323.05h-4.861v-2.733l4.861-0.854V313.023z"/>
	<path fill="#005C84" d="M148.586,334.914c0.115,3.021,0.744,5.244,2.23,6.784c1.602,1.71,4.119,2.508,8.637,2.508h7.092v2.851
		c-2.459,0.688-5.948,1.196-8.808,1.196c-4.747,0-8.236-1.312-10.352-3.593c-2.46-2.621-3.604-6.557-3.604-11.229
		c0-8.727,4.404-14.709,12.24-14.709c7.492,0,11.611,5.414,11.611,14.021v1.653c0,0.398-0.172,0.516-0.629,0.516L148.586,334.914
		L148.586,334.914z M163.228,331.266c-0.4-5.414-2.574-8.664-7.207-8.664c-4.976,0-7.206,3.937-7.378,8.664H163.228z"/>
	<path fill="#005C84" d="M194.573,347.114c-2.23,0.627-5.491,1.141-7.836,1.141c-4.461,0-8.064-1.37-10.409-3.935
		c-2.289-2.506-3.604-6.271-3.604-10.887c0-4.849,1.545-8.607,3.947-11.062c2.345-2.396,6.12-3.646,10.181-3.646
		c2.688,0,5.147,0.396,6.863,0.797c0.744,0.17,0.915,0.457,0.915,1.197v6.326h-3.546c-0.286-0.686-0.744-2.965-0.801-4.273
		c-0.915-0.113-1.773-0.172-2.803-0.172c-3.203,0-5.662,0.686-7.264,2.338c-1.658,1.711-2.688,4.562-2.688,8.438
		c0,3.021,0.572,6.271,2.46,8.208c1.83,1.884,4.575,2.623,8.694,2.623h5.891V347.114L194.573,347.114z"/>
	<path fill="#005C84" d="M228.949,343.979v3.42c-1.259,0.115-3.833,0.346-5.148,0.346c-1.144,0-2.002-0.229-2.574-0.801
		c-0.458-0.457-0.63-1.141-0.63-2.278V328.93c0-2.338-0.343-3.764-1.258-4.676c-0.916-0.911-2.517-1.254-4.633-1.254
		c-2.116,0-4.805,0.398-7.721,1.083v23.372h-4.633v-24.398h-3.89v-3.363c1.944-0.229,3.89-0.396,5.376-0.396
		c1.888,0,2.745,0.457,3.088,1.771c2.803-1.37,6.063-2.338,9.266-2.338c3.203,0,5.605,0.91,7.034,2.449
		c1.43,1.538,2.002,3.534,2.002,6.672v16.133h3.721V343.979L228.949,343.979z"/>
	<path fill="#005C84" d="M245.709,348.255c-8.35,0-12.811-5.587-12.811-14.766s4.461-14.765,12.811-14.765
		c8.35,0,12.812,5.586,12.812,14.765C258.52,342.668,254.059,348.255,245.709,348.255z M245.709,322.829
		c-5.777,0-8.007,3.819-8.007,10.66c0,6.842,2.23,10.659,8.007,10.659c5.775,0,8.007-3.817,8.007-10.659
		C253.717,326.648,251.484,322.829,245.709,322.829z"/>
	<path fill="#005C84" d="M270.477,347.456h-4.633v-37.511h-3.89v-3.42c1.259-0.113,4.002-0.342,5.317-0.342
		c1.146,0,2.002,0.229,2.571,0.797c0.457,0.457,0.632,1.142,0.632,2.277L270.477,347.456L270.477,347.456z"/>
	<path fill="#005C84" d="M290.094,348.255c-8.351,0-12.812-5.587-12.812-14.766s4.462-14.765,12.812-14.765
		s12.811,5.586,12.811,14.765C302.906,342.668,298.443,348.255,290.094,348.255z M290.094,322.829c-5.775,0-8.007,3.819-8.007,10.66
		c0,6.842,2.229,10.659,8.007,10.659c5.778,0,8.008-3.817,8.008-10.659C298.104,326.648,295.871,322.829,290.094,322.829z"/>
	<path fill="#005C84" d="M320.182,339.703c-1.771,0-3.375-0.229-4.747-0.684l-1.025,4.271h8.688c3.946,0,6.578,0.688,8.236,2.227
		c1.487,1.366,2.288,3.42,2.288,6.154c0,6.669-5.318,9.406-13.154,9.406h-0.63c-7.55,0-12.125-3.419-12.125-8.778
		c0-2.106,0.8-4.048,2.516-5.983c-0.344-0.398-0.457-0.912-0.457-1.539c0-1.596,1.091-3.932,3.203-6.842
		c-2.803-1.824-4.229-4.849-4.229-8.725c0-6.384,3.946-10.486,11.438-10.486c0.915,0,1.771,0.111,2.573,0.229l2.747-7.354
		c1.315,0.342,3.088,1.022,4.117,1.711l-3.604,6.498c3.661,1.649,5.606,4.959,5.606,9.403
		C331.62,335.6,327.674,339.703,320.182,339.703z M312.804,347.514v0.114c-0.286,1.367-0.516,2.563-0.516,3.706
		c0,3.592,2.288,5.7,8.122,5.7h0.115c5.833,0,8.574-1.595,8.574-5.074c0-1.31-0.396-2.565-1.197-3.249
		c-0.974-0.855-2.52-1.141-5.093-1.141h-9.096C313.375,347.57,313.089,347.57,312.804,347.514z M320.182,322.543
		c-5.262,0-6.979,2.566-6.979,6.67s1.717,6.67,6.979,6.67c5.265,0,6.979-2.564,6.979-6.67
		C327.159,325.109,325.442,322.543,320.182,322.543z"/>
	<path fill="#005C84" d="M345.005,347.456h-4.633v-24.397h-4.002v-3.42c1.259-0.113,4.118-0.344,5.434-0.344
		c1.146,0,2.001,0.229,2.574,0.799c0.458,0.456,0.629,1.141,0.629,2.281L345.005,347.456L345.005,347.456z M336.426,312.227
		l8.183-7.812c0.91-0.854,1.482-0.968,2.174,0l1.831,2.509l-10.41,7.523L336.426,312.227z"/>
	<path fill="#005C84" d="M361.364,348.255c-5.147,0-9.38-2.851-9.38-8.78c0-2.562,0.801-4.617,2.229-6.043
		c1.888-1.938,5.091-2.852,9.38-2.852c2.062,0,4.175,0.115,6.233,0.229v-2.451c0-2.277-0.399-3.42-1.26-4.219
		c-0.975-0.912-2.573-1.197-5.266-1.197h-8.689v-2.965c2.976-0.799,7.035-1.254,10.124-1.254c3.603,0,6.121,0.912,7.722,2.564
		c1.372,1.426,2.001,3.363,2.001,6.385v16.305h3.776v3.42c-1.945,0.229-3.776,0.397-5.266,0.397c-1.887,0-2.747-0.797-3.028-1.993
		C367.484,347.229,364.396,348.255,361.364,348.255z M369.828,334.23h-5.72c-2.635,0-4.575,0.396-5.723,1.254
		c-1.087,0.8-1.66,2.055-1.66,3.765c0,2.906,1.604,4.959,5.835,4.959c2.348,0,5.094-0.458,7.266-1.255v-8.723H369.828
		L369.828,334.23z"/>
</g>
<path fill="none" stroke="#FFFFFF" stroke-width="4" stroke-linecap="round" stroke-miterlimit="10" d="M458.125,84h-44.849
	c-2.361,0-4.275-1.915-4.275-4.275v-50.45c0-2.361,1.914-4.275,4.275-4.275h50.446c2.359,0,4.275,1.915,4.275,4.275V73.5"/>
<g>
	<path fill="#FFFFFF" d="M443.692,60.361v14.005h-9.404V60.361h-14.005v-9.403h14.005V36.953h9.404v14.005h14.005v9.404
		L443.692,60.361L443.692,60.361z"/>
</g>
</svg>
