<?xml version="1.0" encoding="utf-8"?>
<!-- Generator: Adobe Illustrator 16.0.4, SVG Export Plug-In . SVG Version: 6.00 Build 0)  -->
<!DOCTYPE svg PUBLIC "-//W3C//DTD SVG 1.1//EN" "http://www.w3.org/Graphics/SVG/1.1/DTD/svg11.dtd">
<svg version="1.1" id="Layer_1" xmlns="http://www.w3.org/2000/svg" xmlns:xlink="http://www.w3.org/1999/xlink" x="0px" y="0px"
	 width="500px" height="500px" viewBox="0 0 500 500" enable-background="new 0 0 500 500" xml:space="preserve">
<rect fill="#A9CF38" width="500" height="500"/>
<g>
	<g enable-background="new    ">
		<path fill="#005C84" d="M210.205,200.896v3.771h-3.954v31.526h3.954v3.77h-12.549v-3.77h3.954v-24.615l-11.346,19.704h-2.75
			c-1.088,0-1.547-0.228-2.063-1.142l-10.372-18.792v24.844h3.954v3.77h-12.262v-3.77h3.954v-31.526h-3.954v-3.771h5.272
			c2.004,0,2.521,0.287,3.265,1.658l13.122,24.101l13.409-23.987c0.745-1.313,1.374-1.771,3.094-1.771H210.205z"/>
		<path fill="#005C84" d="M223.617,230.54c0,2.341,0.342,3.771,1.26,4.684c0.918,0.912,2.521,1.257,4.641,1.257
			c2.123,0,4.701-0.345,7.506-1.087v-19.875h-3.723v-3.541h8.364v24.502h3.896v3.312c-1.946,0.229-3.896,0.399-5.385,0.399
			c-1.892,0-2.749-0.8-3.036-1.771c-2.81,1.371-5.961,2.342-9.11,2.342c-3.21,0-5.619-0.914-7.049-2.455
			c-1.433-1.544-2.006-3.542-2.006-6.684v-16.106h-3.725v-3.426c1.26-0.114,3.896-0.343,5.157-0.343
			c1.146,0,2.003,0.229,2.578,0.799c0.458,0.457,0.631,1.143,0.631,2.286L223.617,230.54L223.617,230.54z"/>
		<path fill="#005C84" d="M279.314,236.48v3.424c-1.267,0.116-3.84,0.344-5.156,0.344c-1.147,0-2.008-0.228-2.58-0.799
			c-0.459-0.458-0.63-1.142-0.63-2.285v-15.763c0-2.343-0.345-3.77-1.263-4.684c-0.918-0.913-2.521-1.255-4.644-1.255
			s-4.812,0.399-7.733,1.084v23.417h-4.646v-24.444h-3.896v-3.37c1.945-0.228,3.896-0.399,5.39-0.399
			c1.887,0,2.746,0.457,3.091,1.771c2.812-1.371,6.075-2.342,9.28-2.342c3.211,0,5.617,0.915,7.049,2.457
			c1.438,1.542,2.007,3.541,2.007,6.682v16.165h3.729v-0.003H279.314z"/>
		<path fill="#005C84" d="M302.581,238.25c-2.692,1.484-5.674,2.513-8.427,2.513c-7.045,0-10.713-5.6-10.713-14.966
			c0-9.023,4.184-14.621,11.06-14.621c2.522,0,5.442,0.857,7.851,2.057V202.38h-3.896v-3.426c1.26-0.115,4.01-0.343,5.328-0.343
			c1.146,0,2.002,0.228,2.579,0.8c0.457,0.458,0.629,1.143,0.629,2.284v34.782h3.783v3.425c-1.947,0.23-3.783,0.4-5.272,0.4
			c-1.89,0-2.635-0.799-2.921-1.996L302.581,238.25L302.581,238.25z M302.352,235.223v-18.791c-2.289-0.571-4.812-1.027-6.646-1.027
			c-5.155,0-7.448,3.483-7.448,10.338c0,8.225,2.465,10.795,7.162,10.795C297.48,236.537,300.348,236.021,302.352,235.223z"/>
		<path fill="#005C84" d="M327.68,240.763c-8.359,0-12.832-5.6-12.832-14.794c0-9.194,4.473-14.792,12.832-14.792
			c8.366,0,12.837,5.598,12.837,14.792C340.517,235.163,336.046,240.763,327.68,240.763z M327.68,215.289
			c-5.787,0-8.021,3.827-8.021,10.68c0,6.853,2.229,10.682,8.021,10.682s8.022-3.828,8.022-10.682
			C335.702,219.115,333.469,215.289,327.68,215.289z"/>
	</g>
	<g enable-background="new    ">
		<path fill="#005C84" d="M209.291,277.004v-7.596c0-0.629,0.342-0.857,1.603-0.857h21.032c0.114,0.286,0.171,0.857,0.171,1.2
			c0,2.17-0.572,3.312-2.12,5.312l-8.539,10.623c6.878,0.569,11.748,3.998,11.748,10.854c0,3.827-1.318,6.685-3.383,8.625
			c-2.462,2.284-6.416,3.254-10.714,3.254c-2.232,0-6.245-0.229-8.767-0.687v-3.541h6.076c4.812,0,8.078-0.459,9.854-2.06
			c1.432-1.255,2.063-3.256,2.063-5.481c0-2.107-0.631-3.82-1.948-5.08c-1.662-1.6-4.411-2.284-8.71-2.284h-1.892
			c-0.058-0.345-0.115-0.741-0.115-1.028c0-1.257,0.519-2.281,1.777-3.884l9.568-11.938h-13.693c0,1.199-0.343,2.854-0.917,4.568
			H209.291L209.291,277.004z"/>
		<path fill="#005C84" d="M252.611,282.715c7.736,0,10.89,4.741,10.89,12.053c0,8.228-4.585,13.648-12.319,13.648
			c-9.342,0-12.894-6.968-12.894-18.445v-1.543c0-7.312,1.376-12.965,4.468-16.447c2.465-2.738,6.305-4.172,11.232-4.172
			c2.004,0,4.701,0.287,6.359,0.688v3.538h-5.043c-4.584,0-7.224,0.857-9,2.742c-1.946,2.058-2.864,5.141-3.092,9.646
			C246.079,283.458,249.747,282.715,252.611,282.715z M243.101,290.712c0,8.226,1.72,13.709,8.309,13.709
			c4.699,0,7.508-3.715,7.508-9.312c0-5.826-2.234-8.455-7.736-8.455c-2.406,0-5.674,0.572-8.08,1.146L243.101,290.712
			L243.101,290.712z"/>
		<path fill="#005C84" d="M282.471,308.416c-9.686,0-13.525-7.367-13.525-20.273c0-12.908,3.843-20.334,13.525-20.334
			c9.684,0,13.521,7.426,13.521,20.334C295.991,301.049,292.152,308.416,282.471,308.416z M282.471,272.092
			c-6.592,0-8.599,5.254-8.599,16.051c0,10.795,2.007,15.99,8.599,15.99c6.586,0,8.592-5.195,8.592-15.99
			S289.057,272.092,282.471,272.092z"/>
	</g>
</g>
<g>
	<path fill="#FFFFFF" d="M443.692,60.361v14.005h-9.404V60.361h-14.005v-9.403h14.005V36.953h9.404v14.005h14.005v9.403H443.692
		L443.692,60.361z"/>
</g>
<path fill="none" stroke="#FFFFFF" stroke-width="4" stroke-linecap="round" stroke-miterlimit="10" d="M458.125,84h-44.849
	c-2.361,0-4.275-1.915-4.275-4.275v-50.45c0-2.361,1.914-4.275,4.275-4.275h50.446c2.359,0,4.275,1.915,4.275,4.275V73.5"/>
</svg>
