<?xml version="1.0" encoding="utf-8"?>
<!-- Generator: Adobe Illustrator 16.0.4, SVG Export Plug-In . SVG Version: 6.00 Build 0)  -->
<!DOCTYPE svg PUBLIC "-//W3C//DTD SVG 1.1//EN" "http://www.w3.org/Graphics/SVG/1.1/DTD/svg11.dtd">
<svg version="1.1" id="Layer_1" xmlns="http://www.w3.org/2000/svg" xmlns:xlink="http://www.w3.org/1999/xlink" x="0px" y="0px"
	 width="500px" height="500px" viewBox="0 0 500 500" enable-background="new 0 0 500 500" xml:space="preserve">
<rect fill="#A9CF38" width="500" height="500"/>
<g>
	<g enable-background="new    ">
		<path fill="#005C84" d="M166.069,165.99c-1.076-0.114-2.662-0.283-4.248-0.283c-8.552,0-12.8,4.687-12.8,15.808
			c0,5.757,1.133,9.935,3.511,12.475c2.436,2.597,6.287,3.444,11.78,3.444h6.003v3.443c-2.549,0.452-5.89,0.733-7.816,0.733
			c-6.286,0-11.044-1.636-13.762-4.686c-3.172-3.5-4.758-8.862-4.758-15.354c0-13.378,6.966-20.097,17.614-20.097
			c2.889,0,6.061,0.452,8.043,1.016c0.68,0.169,0.905,0.452,0.905,1.186v7.507h-3.625
			C166.636,170.562,166.069,167.344,166.069,165.99z"/>
		<path fill="#005C84" d="M183.232,200.82h-4.587v-24.161h-3.965v-3.387c1.246-0.113,4.079-0.339,5.381-0.339
			c1.132,0,1.981,0.226,2.549,0.791c0.454,0.452,0.622,1.129,0.622,2.258V200.82L183.232,200.82z M180.515,167.458
			c-1.699,0-2.775-0.847-2.775-2.992v-0.168c0-2.146,1.077-2.992,2.775-2.992h0.34c1.699,0,2.775,0.846,2.775,2.992v0.168
			c0,2.146-1.077,2.992-2.775,2.992H180.515z"/>
		<path fill="#005C84" d="M219.312,197.376v3.387c-1.247,0.113-3.796,0.338-5.099,0.338c-1.132,0-1.982-0.226-2.549-0.79
			c-0.453-0.452-0.624-1.129-0.624-2.258v-15.581c0-2.314-0.339-3.726-1.245-4.629c-0.906-0.904-2.493-1.242-4.587-1.242
			c-2.096,0-4.759,0.395-7.646,1.073v23.145h-4.588v-24.161h-3.852v-3.331c1.925-0.226,3.852-0.395,5.324-0.395
			c1.869,0,2.718,0.451,3.058,1.75c2.775-1.355,6.003-2.314,9.176-2.314c3.17,0,5.549,0.903,6.964,2.427
			c1.416,1.524,1.983,3.5,1.983,6.605v15.976H219.312L219.312,197.376z"/>
		<path fill="#005C84" d="M227.979,188.4c0.113,2.992,0.736,5.193,2.208,6.718c1.585,1.693,4.078,2.483,8.552,2.483h7.023v2.823
			c-2.436,0.677-5.891,1.185-8.721,1.185c-4.701,0-8.156-1.298-10.252-3.556c-2.436-2.597-3.568-6.492-3.568-11.122
			c0-8.637,4.361-14.564,12.12-14.564c7.42,0,11.498,5.363,11.498,13.887v1.637c0,0.396-0.171,0.508-0.623,0.508L227.979,188.4
			L227.979,188.4z M242.477,184.788c-0.396-5.362-2.548-8.581-7.136-8.581c-4.927,0-7.136,3.896-7.308,8.581H242.477z"/>
		<path fill="#005C84" d="M255.279,208.78v-7.056c-1.646-0.339-2.661-1.298-2.661-3.217v-0.17c0-2.257,1.188-3.048,2.889-3.048
			h0.058c2.207,0,3.229,1.073,3.229,3.896c0,2.427-0.622,6.661-1.188,8.75c-0.17,0.621-0.396,0.847-1.188,0.847L255.279,208.78
			L255.279,208.78z"/>
		<path fill="#005C84" d="M305.007,162.208c1.132,0,1.304,0.226,1.304,0.734v8.298h-3.344c-0.512-1.354-0.906-3.613-0.906-5.307
			h-9.004v31.162h3.905v3.725h-12.741v-3.725h3.907v-31.162h-9.005c0,1.694-0.396,3.953-0.906,5.307h-3.343v-8.298
			c0-0.508,0.169-0.734,1.304-0.734H305.007L305.007,162.208z"/>
		<path fill="#005C84" d="M340.688,165.933l-10.762,34.887h-4.418c-1.188,0-1.472-0.282-1.812-1.242l-10.936-33.645h-3.625v-3.726
			h4.701c2.55,0,2.891,0.283,3.397,1.864l10.081,31.894l9.115-30.032h-3.396v-3.726h10.933v3.726H340.688z"/>
		<path fill="#005C84" d="M345.504,208.78v-7.056c-1.642-0.339-2.661-1.298-2.661-3.217v-0.17c0-2.257,1.189-3.048,2.892-3.048
			h0.058c2.208,0,3.228,1.073,3.228,3.896c0,2.427-0.619,6.661-1.188,8.75c-0.168,0.621-0.396,0.847-1.188,0.847L345.504,208.78
			L345.504,208.78z"/>
	</g>
	<g enable-background="new    ">
		<path fill="#005C84" d="M108.607,268.624c-5.098,0-9.288-2.823-9.288-8.694c0-2.541,0.793-4.572,2.208-5.984
			c1.869-1.918,5.04-2.817,9.288-2.817c2.04,0,4.135,0.113,6.173,0.229v-2.432c0-2.26-0.396-3.386-1.246-4.178
			c-0.964-0.903-2.549-1.186-5.21-1.186h-8.607v-2.935c2.944-0.79,6.965-1.243,10.023-1.243c3.569,0,6.061,0.902,7.646,2.54
			c1.359,1.412,1.982,3.332,1.982,6.323v16.146h3.738v3.387c-1.926,0.227-3.738,0.396-5.211,0.396c-1.869,0-2.718-0.789-3.001-1.975
			C114.667,267.607,111.609,268.624,108.607,268.624z M116.99,254.736h-5.663c-2.605,0-4.531,0.396-5.663,1.244
			c-1.077,0.789-1.643,2.028-1.643,3.724c0,2.879,1.585,4.912,5.776,4.912c2.322,0,5.041-0.452,7.193-1.242V254.736L116.99,254.736z
			"/>
		<path fill="#005C84" d="M158.45,264.391v3.387c-1.247,0.113-3.795,0.343-5.098,0.343c-1.133,0-1.983-0.229-2.549-0.791
			c-0.453-0.451-0.624-1.129-0.624-2.261V249.49c0-2.314-0.339-3.726-1.246-4.629c-0.906-0.903-2.492-1.242-4.586-1.242
			c-2.096,0-4.759,0.395-7.646,1.072v23.143h-4.588v-24.159h-3.852v-3.331c1.926-0.226,3.852-0.396,5.324-0.396
			c1.869,0,2.719,0.452,3.058,1.751c2.775-1.356,6.003-2.314,9.175-2.314c3.171,0,5.55,0.902,6.966,2.427
			c1.415,1.524,1.983,3.5,1.983,6.604v15.977h3.683V264.391L158.45,264.391z"/>
		<path fill="#005C84" d="M170.118,267.833h-4.587v-24.161h-3.964v-3.385c1.247-0.113,4.078-0.34,5.381-0.34
			c1.132,0,1.981,0.227,2.549,0.79c0.453,0.454,0.623,1.13,0.623,2.26L170.118,267.833L170.118,267.833z M167.4,234.471
			c-1.7,0-2.774-0.846-2.774-2.992v-0.169c0-2.146,1.076-2.992,2.774-2.992h0.341c1.698,0,2.774,0.846,2.774,2.992v0.169
			c0,2.146-1.076,2.992-2.774,2.992H167.4z"/>
		<path fill="#005C84" d="M214.184,249.487c0-2.314-0.34-3.726-1.247-4.629c-0.905-0.903-2.549-1.242-4.304-1.242
			c-1.983,0-4.361,0.282-7.419,1.186c0.34,1.016,0.453,2.258,0.453,3.781v19.25h-4.588v-18.345c0-2.316-0.34-3.727-1.246-4.629
			c-0.907-0.905-2.549-1.243-4.305-1.243c-2.208,0-4.53,0.338-7.08,1.072v23.145h-4.588v-24.161h-3.852v-3.33
			c1.925-0.225,3.852-0.396,5.324-0.396c1.869,0,2.718,0.507,3.058,1.807c2.266-1.3,5.55-2.371,8.552-2.371
			c2.832,0,5.38,0.791,7.022,2.823c3.796-1.92,7.081-2.823,10.081-2.823c2.833,0,5.324,0.902,6.741,2.427
			c1.415,1.524,1.981,3.5,1.981,6.604v15.976h3.681v3.387c-1.246,0.113-3.794,0.343-5.098,0.343c-1.132,0-1.981-0.229-2.548-0.79
			c-0.452-0.451-0.623-1.132-0.623-2.262v-15.579L214.184,249.487L214.184,249.487z"/>
		<path fill="#005C84" d="M235.821,268.624c-5.098,0-9.288-2.823-9.288-8.694c0-2.541,0.793-4.572,2.208-5.984
			c1.87-1.918,5.041-2.817,9.288-2.817c2.039,0,4.134,0.113,6.173,0.229v-2.432c0-2.26-0.397-3.386-1.246-4.178
			c-0.963-0.903-2.549-1.186-5.211-1.186h-8.608v-2.935c2.944-0.79,6.965-1.243,10.024-1.243c3.567,0,6.06,0.902,7.646,2.54
			c1.359,1.412,1.982,3.332,1.982,6.323v16.146h3.738v3.387c-1.926,0.227-3.738,0.396-5.211,0.396c-1.868,0-2.718-0.789-3.001-1.975
			C241.882,267.607,238.822,268.624,235.821,268.624z M244.203,254.736h-5.663c-2.606,0-4.531,0.396-5.663,1.244
			c-1.075,0.789-1.642,2.028-1.642,3.724c0,2.879,1.585,4.912,5.776,4.912c2.322,0,5.04-0.452,7.192-1.242V254.736L244.203,254.736z
			"/>
		<path fill="#005C84" d="M277.961,267.495c-2.208,0.621-5.438,1.129-7.761,1.129c-4.417,0-7.985-1.354-10.308-3.896
			c-2.268-2.481-3.565-6.209-3.565-10.783c0-4.794,1.526-8.521,3.905-10.947c2.322-2.37,6.062-3.613,10.082-3.613
			c2.66,0,5.097,0.395,6.795,0.79c0.738,0.168,0.906,0.454,0.906,1.185v6.267h-3.514c-0.279-0.678-0.734-2.938-0.793-4.234
			c-0.902-0.115-1.756-0.169-2.771-0.169c-3.17,0-5.606,0.677-7.192,2.315c-1.644,1.693-2.661,4.515-2.661,8.354
			c0,2.991,0.564,6.209,2.436,8.129c1.813,1.862,4.533,2.6,8.609,2.6h5.833L277.961,267.495L277.961,267.495z"/>
		<path fill="#005C84" d="M290.422,267.833h-4.587v-24.161h-3.964v-3.385c1.247-0.113,4.077-0.34,5.38-0.34
			c1.134,0,1.981,0.227,2.549,0.79c0.453,0.454,0.624,1.13,0.624,2.26v24.837L290.422,267.833L290.422,267.833z M287.704,234.471
			c-1.701,0-2.774-0.846-2.774-2.992v-0.169c0-2.146,1.073-2.992,2.774-2.992h0.34c1.698,0,2.772,0.846,2.772,2.992v0.169
			c0,2.146-1.074,2.992-2.772,2.992H287.704z"/>
		<path fill="#005C84" d="M309.85,268.624c-8.27,0-12.687-5.532-12.687-14.622c0-9.088,4.417-14.619,12.687-14.619
			c8.271,0,12.688,5.531,12.688,14.619C322.534,263.092,318.117,268.624,309.85,268.624z M309.85,243.447
			c-5.723,0-7.931,3.782-7.931,10.555c0,6.773,2.208,10.559,7.931,10.559s7.933-3.783,7.933-10.559
			C317.778,247.229,315.568,243.447,309.85,243.447z M304.13,232.946l8.099-7.733c0.905-0.847,1.475-0.959,2.152,0l1.812,2.483
			l-10.312,7.452L304.13,232.946z"/>
		<path fill="#005C84" d="M356.747,264.391v3.387c-1.25,0.113-3.796,0.343-5.099,0.343c-1.137,0-1.981-0.229-2.554-0.791
			c-0.447-0.451-0.623-1.129-0.623-2.261V249.49c0-2.314-0.34-3.726-1.243-4.629c-0.905-0.903-2.491-1.242-4.59-1.242
			c-2.096,0-4.759,0.395-7.646,1.072v23.143h-4.587v-24.159h-3.854v-3.331c1.931-0.226,3.854-0.396,5.325-0.396
			c1.867,0,2.719,0.452,3.062,1.751c2.771-1.356,6.004-2.314,9.173-2.314c3.171,0,5.553,0.902,6.967,2.427
			c1.417,1.524,1.979,3.5,1.979,6.604v15.977h3.688L356.747,264.391L356.747,264.391z"/>
		<path fill="#005C84" d="M378.779,258.518c0,2.316,0.34,3.729,1.246,4.631c0.901,0.904,2.488,1.242,4.587,1.242
			c2.096,0,4.645-0.338,7.42-1.072v-19.646h-3.686v-3.498h8.271v29.583c0,4.287-0.964,6.999-2.777,8.86
			c-1.812,1.862-4.646,2.71-8.438,2.71c-2.039,0-4.759-0.281-6.74-0.678v-3.162h5.324c3.17,0,5.151-0.508,6.344-1.692
			c1.303-1.241,1.699-3.104,1.699-6.489v-2.938c-2.775,1.355-5.833,2.261-8.896,2.261c-3.172,0-5.551-0.903-6.966-2.428
			c-1.417-1.522-1.979-3.5-1.979-6.604v-15.918h-3.686v-3.388c1.245-0.112,3.854-0.339,5.102-0.339c1.132,0,1.979,0.227,2.548,0.79
			c0.453,0.453,0.625,1.129,0.625,2.259v15.521h-0.004v-0.004H378.779L378.779,258.518z"/>
	</g>
	<g enable-background="new    ">
		<path fill="#005C84" d="M120.162,307.354h9.741v3.33h-2.661l-8.893,24.16h-3.171c-1.7,0-2.039-0.396-2.548-1.807l-8.156-22.354
			h-3.625v-3.33c1.473-0.17,3.059-0.34,4.191-0.34c2.208,0,3.002,0.279,3.682,2.198l7.419,21.229l6.74-19.76h-2.719V307.354z"/>
		<path fill="#005C84" d="M140.78,334.848h-4.587v-24.16h-3.964v-3.386c1.247-0.114,4.078-0.341,5.381-0.341
			c1.132,0,1.982,0.227,2.549,0.79c0.453,0.453,0.623,1.129,0.623,2.258L140.78,334.848L140.78,334.848z M138.061,301.484
			c-1.7,0-2.775-0.848-2.775-2.99v-0.17c0-2.146,1.076-2.991,2.775-2.991h0.34c1.7,0,2.775,0.849,2.775,2.991v0.17
			c0,2.146-1.076,2.99-2.775,2.99H138.061z"/>
		<path fill="#005C84" d="M166.607,333.152c-2.662,1.469-5.607,2.484-8.326,2.484c-6.966,0-10.591-5.531-10.591-14.791
			c0-8.922,4.135-14.451,10.93-14.451c2.493,0,5.381,0.849,7.761,2.029V297.7h-3.853v-3.39c1.247-0.11,3.965-0.338,5.268-0.338
			c1.132,0,1.981,0.228,2.548,0.787c0.453,0.452,0.623,1.133,0.623,2.262V331.4h3.739v3.387c-1.926,0.229-3.739,0.396-5.211,0.396
			c-1.87,0-2.605-0.789-2.889-1.978L166.607,333.152L166.607,333.152z M166.379,330.161V311.59c-2.265-0.564-4.757-1.02-6.57-1.02
			c-5.096,0-7.363,3.445-7.363,10.22c0,8.128,2.435,10.669,7.08,10.669C161.566,331.459,164.398,330.95,166.379,330.161z"/>
		<path fill="#005C84" d="M183.486,322.428c0.113,2.991,0.736,5.193,2.208,6.717c1.586,1.693,4.078,2.483,8.552,2.483h7.023v2.821
			c-2.435,0.678-5.89,1.188-8.722,1.188c-4.701,0-8.155-1.3-10.251-3.558c-2.436-2.597-3.568-6.494-3.568-11.123
			c0-8.636,4.36-14.563,12.121-14.563c7.419,0,11.497,5.362,11.497,13.892v1.637c0,0.396-0.171,0.511-0.623,0.511h-18.237V322.428
			L183.486,322.428z M197.984,318.814c-0.396-5.362-2.548-8.58-7.136-8.58c-4.927,0-7.136,3.895-7.306,8.58H197.984z"/>
		<path fill="#005C84" d="M220.075,335.637c-8.269,0-12.687-5.531-12.687-14.619c0-9.09,4.418-14.623,12.687-14.623
			c8.268,0,12.687,5.533,12.687,14.623C232.762,330.105,228.343,335.637,220.075,335.637z M220.075,310.46
			c-5.72,0-7.93,3.783-7.93,10.558c0,6.773,2.21,10.558,7.93,10.558c5.72,0,7.929-3.78,7.929-10.558
			C228.004,314.243,225.795,310.46,220.075,310.46z"/>
		<path fill="#005C84" d="M244.828,338.46c0,3.388-0.567,5.59-1.813,7.056c-1.245,1.524-3.228,2.26-5.889,2.26
			c-1.247,0-3.059-0.17-4.079-0.396v-3.442h2.322c2.039,0,3.059-0.278,3.795-1.069c0.737-0.79,1.076-2.201,1.076-4.574v-27.604
			h-3.964v-3.385c1.246-0.115,4.078-0.343,5.381-0.343c1.133,0,1.982,0.228,2.549,0.79c0.453,0.453,0.622,1.129,0.622,2.258V338.46
			L244.828,338.46z M242.108,301.484c-1.7,0-2.774-0.848-2.774-2.99v-0.17c0-2.146,1.075-2.991,2.774-2.991h0.341
			c1.698,0,2.774,0.849,2.774,2.991v0.17c0,2.146-1.076,2.99-2.774,2.99H242.108z"/>
		<path fill="#005C84" d="M258.874,325.532c0,2.313,0.34,3.726,1.246,4.629c0.905,0.901,2.491,1.241,4.588,1.241
			c2.095,0,4.646-0.34,7.42-1.07v-19.646h-3.683v-3.498h8.271v24.222h3.853v3.271c-1.928,0.229-3.853,0.396-5.322,0.396
			c-1.867,0-2.721-0.791-3.001-1.751c-2.772,1.354-5.894,2.312-9.007,2.312c-3.172,0-5.553-0.902-6.967-2.428
			c-1.416-1.523-1.979-3.499-1.979-6.604v-15.92h-3.683V307.3c1.248-0.112,3.854-0.34,5.1-0.34c1.132,0,1.979,0.228,2.55,0.79
			c0.452,0.452,0.623,1.129,0.623,2.258v15.521L258.874,325.532L258.874,325.532z"/>
		<path fill="#005C84" d="M289.348,322.428c0.112,2.991,0.736,5.193,2.209,6.717c1.586,1.693,4.076,2.483,8.553,2.483h7.022v2.821
			c-2.437,0.678-5.891,1.188-8.725,1.188c-4.698,0-8.154-1.3-10.25-3.558c-2.437-2.597-3.568-6.494-3.568-11.123
			c0-8.636,4.361-14.563,12.122-14.563c7.42,0,11.497,5.362,11.497,13.892v1.637c0,0.396-0.17,0.511-0.624,0.511h-18.236V322.428
			L289.348,322.428z M303.846,318.814c-0.396-5.362-2.55-8.58-7.138-8.58c-4.929,0-7.136,3.895-7.306,8.58H303.846z"/>
		<path fill="#005C84" d="M325.483,327.17c-1.761,0-3.348-0.227-4.701-0.677l-1.021,4.233h8.607c3.908,0,6.514,0.676,8.157,2.196
			c1.472,1.354,2.265,3.392,2.265,6.103c0,6.603-5.266,9.312-13.027,9.312h-0.623c-7.476,0-12.006-3.385-12.006-8.69
			c0-2.09,0.791-4.01,2.492-5.93c-0.341-0.395-0.453-0.902-0.453-1.523c0-1.577,1.075-3.896,3.171-6.771
			c-2.771-1.807-4.188-4.798-4.188-8.638c0-6.322,3.909-10.39,11.328-10.39c0.901,0,1.755,0.112,2.549,0.229l2.718-7.282
			c1.303,0.342,3.058,1.02,4.078,1.693l-3.568,6.435c3.625,1.64,5.557,4.911,5.557,9.314
			C336.81,323.105,332.901,327.17,325.483,327.17z M318.178,334.902v0.113c-0.284,1.354-0.512,2.541-0.512,3.668
			c0,3.56,2.266,5.646,8.044,5.646h0.112c5.772,0,8.496-1.577,8.496-5.021c0-1.297-0.396-2.543-1.19-3.222
			c-0.96-0.847-2.49-1.129-5.041-1.129h-9.004C318.744,334.961,318.46,334.961,318.178,334.902z M325.483,310.178
			c-5.211,0-6.911,2.541-6.911,6.604c0,4.062,1.7,6.604,6.911,6.604c5.21,0,6.905-2.546,6.905-6.604
			C332.393,312.719,330.693,310.178,325.483,310.178z"/>
		<path fill="#005C84" d="M354.992,335.637c-8.271,0-12.688-5.531-12.688-14.619c0-9.09,4.418-14.623,12.688-14.623
			c8.267,0,12.687,5.533,12.687,14.623C367.679,330.105,363.259,335.637,354.992,335.637z M354.992,310.46
			c-5.721,0-7.935,3.783-7.935,10.558c0,6.773,2.214,10.558,7.935,10.558s7.929-3.78,7.929-10.558
			C362.921,314.243,360.713,310.46,354.992,310.46z"/>
		<path fill="#005C84" d="M377.139,327.564c0.229,0.678,0.623,2.597,0.738,3.781c1.188,0.34,3.738,0.617,5.55,0.617
			c2.549,0,4.36-0.396,5.493-1.354c0.794-0.678,1.189-1.808,1.189-2.989c0-2.541-1.698-3.612-5.271-4.462l-3.284-0.848
			c-2.941-0.732-4.865-1.522-6.114-2.77c-1.357-1.354-1.98-3.163-1.98-5.081c0-2.371,0.85-4.399,2.49-5.759
			c1.979-1.692,4.701-2.312,8.158-2.312c2.263,0,5.659,0.28,7.759,0.791c0.906,0.229,1.076,0.619,1.076,1.297v5.479h-3.399
			c-0.284-0.682-0.624-2.48-0.736-3.613c-1.355-0.17-3.112-0.279-4.646-0.279c-4.247,0-6.513,1.354-6.513,4.063
			c0,2.312,1.695,3.329,5.269,4.231l3.397,0.849c3.11,0.79,4.812,1.637,6.06,2.878c1.359,1.354,1.981,3.161,1.981,5.25
			c0,2.48-0.853,4.52-2.382,5.872c-1.864,1.637-4.757,2.428-8.49,2.428c-2.946,0-6.458-0.396-8.728-1.016
			c-0.85-0.229-1.02-0.622-1.02-1.302v-5.758L377.139,327.564L377.139,327.564z"/>
	</g>
</g>
<g>
	<path fill="#FFFFFF" d="M443.692,60.361v14.005h-9.404V60.361h-14.005v-9.403h14.005V36.953h9.404v14.005h14.005v9.403H443.692
		L443.692,60.361z"/>
</g>
<path fill="none" stroke="#FFFFFF" stroke-width="4" stroke-linecap="round" stroke-miterlimit="10" d="M458.125,84h-44.849
	c-2.361,0-4.275-1.915-4.275-4.275v-50.45c0-2.361,1.914-4.275,4.275-4.275h50.446c2.359,0,4.275,1.915,4.275,4.275V73.5"/>
</svg>
