<?xml version="1.0" encoding="utf-8"?>
<!-- Generator: Adobe Illustrator 16.0.4, SVG Export Plug-In . SVG Version: 6.00 Build 0)  -->
<!DOCTYPE svg PUBLIC "-//W3C//DTD SVG 1.1//EN" "http://www.w3.org/Graphics/SVG/1.1/DTD/svg11.dtd">
<svg version="1.1" id="Layer_1" xmlns="http://www.w3.org/2000/svg" xmlns:xlink="http://www.w3.org/1999/xlink" x="0px" y="0px"
	 width="500px" height="500px" viewBox="0 0 500 500" enable-background="new 0 0 500 500" xml:space="preserve">
<rect fill="#00C6D7" width="500" height="500"/>
<g>
	<g enable-background="new    ">
		<path fill="#FFFFFF" d="M159.935,233.859c-1.083-0.114-2.677-0.284-4.271-0.284c-8.601,0-12.873,4.712-12.873,15.896
			c0,5.789,1.139,9.988,3.531,12.544c2.449,2.607,6.322,3.463,11.847,3.463h6.037v3.463c-2.563,0.453-5.923,0.738-7.86,0.738
			c-6.322,0-11.105-1.646-13.838-4.715c-3.19-3.52-4.785-8.908-4.785-15.44c0-13.455,7.006-20.21,17.712-20.21
			c2.905,0,6.095,0.455,8.088,1.021c0.683,0.171,0.91,0.455,0.91,1.192v7.549h-3.645
			C160.503,238.457,159.935,235.221,159.935,233.859z"/>
		<path fill="#FFFFFF" d="M176.737,259.518c0,2.326,0.341,3.746,1.253,4.654c0.912,0.908,2.506,1.248,4.614,1.248
			c2.107,0,4.67-0.34,7.46-1.078v-19.754h-3.701v-3.519h8.314v24.354h3.873v3.293c-1.936,0.228-3.873,0.397-5.354,0.397
			c-1.879,0-2.733-0.795-3.018-1.762c-2.791,1.36-5.924,2.328-9.056,2.328c-3.189,0-5.582-0.91-7.005-2.443
			c-1.423-1.531-1.993-3.521-1.993-6.641v-16.012h-3.703v-3.406c1.253-0.113,3.874-0.341,5.126-0.341
			c1.139,0,1.993,0.228,2.563,0.795c0.455,0.455,0.625,1.136,0.625,2.271v15.613h0.002V259.518z"/>
		<path fill="#FFFFFF" d="M209.601,268.884h-4.612v-37.352h-3.874v-3.406c1.253-0.114,3.986-0.34,5.297-0.34
			c1.139,0,1.994,0.227,2.563,0.794c0.455,0.455,0.625,1.135,0.625,2.271L209.601,268.884L209.601,268.884z"/>
		<path fill="#FFFFFF" d="M224.182,268.884h-4.613v-24.296h-3.987v-3.406c1.253-0.113,4.101-0.341,5.411-0.341
			c1.139,0,1.993,0.228,2.563,0.795c0.456,0.454,0.626,1.136,0.626,2.271V268.884L224.182,268.884z M221.449,235.334
			c-1.709,0-2.79-0.852-2.79-3.009v-0.17c0-2.158,1.082-3.009,2.79-3.009h0.342c1.708,0,2.79,0.852,2.79,3.009v0.17
			c0,2.157-1.082,3.009-2.79,3.009H221.449z"/>
		<path fill="#FFFFFF" d="M260.462,265.42v3.405c-1.253,0.114-3.813,0.342-5.126,0.342c-1.138,0-1.992-0.228-2.562-0.795
			c-0.455-0.454-0.625-1.136-0.625-2.271v-15.668c0-2.328-0.344-3.746-1.254-4.655c-0.913-0.908-2.503-1.249-4.611-1.249
			c-2.109,0-4.785,0.397-7.689,1.079v23.275h-4.615v-24.297h-3.873v-3.349c1.937-0.227,3.873-0.397,5.354-0.397
			c1.879,0,2.733,0.454,3.075,1.76c2.791-1.363,6.037-2.328,9.228-2.328c3.188,0,5.583,0.908,7.002,2.441
			c1.424,1.533,1.991,3.52,1.991,6.642v16.064L260.462,265.42L260.462,265.42z"/>
		<path fill="#FFFFFF" d="M273.907,269.68c-5.13,0-9.341-2.841-9.341-8.742c0-2.556,0.795-4.6,2.222-6.019
			c1.878-1.931,5.067-2.84,9.339-2.84c2.051,0,4.159,0.114,6.207,0.228v-2.438c0-2.271-0.398-3.405-1.255-4.2
			c-0.966-0.909-2.562-1.192-5.237-1.192h-8.656v-2.952c2.961-0.795,7.004-1.249,10.082-1.249c3.588,0,6.094,0.908,7.688,2.554
			c1.364,1.419,1.991,3.349,1.991,6.358v16.234h3.76v3.406c-1.938,0.229-3.76,0.396-5.239,0.396c-1.88,0-2.733-0.795-3.018-1.988
			C280,268.654,276.924,269.68,273.907,269.68z M282.334,255.714h-5.695c-2.621,0-4.555,0.397-5.693,1.251
			c-1.079,0.793-1.648,2.042-1.648,3.744c0,2.896,1.598,4.939,5.812,4.939c2.336,0,5.066-0.455,7.229-1.25L282.334,255.714
			L282.334,255.714z"/>
		<path fill="#FFFFFF" d="M302.157,268.884h-4.614v-24.296h-3.873v-3.349c1.938-0.227,3.873-0.397,5.354-0.397
			c1.877,0,2.851,0.397,3.074,2.214c2.277-1.362,5.866-2.781,8.03-2.781c0.911,0,1.367,0.285,1.367,1.192v3.463h-1.481
			c-3.358,0-5.41,0.17-7.854,0.738L302.157,268.884L302.157,268.884z"/>
		<path fill="#FFFFFF" d="M322.889,268.884h-4.61v-24.296h-3.986v-3.406c1.255-0.113,4.101-0.341,5.41-0.341
			c1.14,0,1.992,0.228,2.562,0.795c0.456,0.454,0.628,1.136,0.628,2.271L322.889,268.884L322.889,268.884z M320.154,235.334
			c-1.708,0-2.789-0.852-2.789-3.009v-0.17c0-2.158,1.081-3.009,2.789-3.009h0.344c1.707,0,2.789,0.852,2.789,3.009v0.17
			c0,2.157-1.082,3.009-2.789,3.009H320.154z"/>
		<path fill="#FFFFFF" d="M339.178,269.68c-5.126,0-9.341-2.841-9.341-8.742c0-2.556,0.799-4.6,2.224-6.019
			c1.881-1.931,5.068-2.84,9.343-2.84c2.053,0,4.153,0.114,6.207,0.228v-2.438c0-2.271-0.398-3.405-1.257-4.2
			c-0.969-0.909-2.562-1.192-5.238-1.192h-8.654v-2.952c2.961-0.795,7.005-1.249,10.08-1.249c3.587,0,6.095,0.908,7.688,2.554
			c1.365,1.419,1.991,3.349,1.991,6.358v16.234h3.766v3.406c-1.938,0.229-3.766,0.396-5.24,0.396c-1.879,0-2.734-0.795-3.021-1.988
			C345.271,268.654,342.196,269.68,339.178,269.68z M347.606,255.714h-5.695c-2.619,0-4.562,0.397-5.694,1.251
			c-1.082,0.793-1.647,2.042-1.647,3.744c0,2.896,1.594,4.939,5.807,4.939c2.336,0,5.069-0.455,7.233-1.25L347.606,255.714
			L347.606,255.714z"/>
	</g>
</g>
<g>
	<path fill="#FFFFFF" d="M443.692,60.361v14.005h-9.404V60.361h-14.005v-9.403h14.005V36.953h9.404v14.005h14.005v9.404
		L443.692,60.361L443.692,60.361z"/>
</g>
<path fill="none" stroke="#FFFFFF" stroke-width="4" stroke-linecap="round" stroke-miterlimit="10" d="M458.125,84h-44.849
	c-2.361,0-4.275-1.915-4.275-4.275v-50.45c0-2.361,1.914-4.275,4.275-4.275h50.446c2.359,0,4.275,1.915,4.275,4.275V73.5"/>
</svg>
