<?xml version="1.0" encoding="utf-8"?>
<!-- Generator: Adobe Illustrator 17.0.0, SVG Export Plug-In . SVG Version: 6.00 Build 0)  -->
<!DOCTYPE svg PUBLIC "-//W3C//DTD SVG 1.1//EN" "http://www.w3.org/Graphics/SVG/1.1/DTD/svg11.dtd">
<svg version="1.1" id="Layer_1" xmlns="http://www.w3.org/2000/svg" xmlns:xlink="http://www.w3.org/1999/xlink" x="0px" y="0px"
	 width="500px" height="500px" viewBox="0 0 500 500" enable-background="new 0 0 500 500" xml:space="preserve">
<rect fill="#11C5D7" width="500" height="500"/>
<path fill="none" stroke="#FFFFFF" stroke-width="4" stroke-miterlimit="10" d="M468,90c0,2.761-2.239,5-5,5h-59
	c-2.761,0-5-2.239-5-5V31c0-2.761,2.239-5,5-5h59c2.761,0,5,2.239,5,5V90z"/>
<g>
	<path fill="#FFFFFF" d="M439.572,67.354v16.379h-10.998V67.354h-16.379V56.358h16.379V39.979h10.998v16.379h16.379v10.997h-16.379
		V67.354z"/>
</g>
<g enable-background="new    ">
	<path fill="#FFFFFF" d="M230.709,277.172c-2.08,0.625-5.356,1.041-7.852,1.041c-10.712,0-15.913-6.085-15.913-18.305
		c0-6.501,1.508-11.545,4.628-14.717c2.496-2.601,6.345-3.952,10.765-3.952c3.068,0,5.98,0.52,8.269,1.352l-0.624,3.536
		c-2.34-0.624-4.889-0.988-7.125-0.988c-3.64,0-6.24,0.937-7.957,2.86c-2.184,2.393-3.12,6.24-3.12,11.805
		c0,5.408,0.937,9.257,3.276,11.648c1.924,1.976,4.732,2.912,8.944,2.912c1.508,0,4.264-0.312,6.292-0.728L230.709,277.172z"/>
	<path fill="#FFFFFF" d="M238.664,247.167c-1.561,0-2.548-0.78-2.548-2.756v-0.104c0-1.976,0.988-2.756,2.548-2.756h0.26
		c1.56,0,2.548,0.78,2.548,2.756v0.104c0,1.976-0.988,2.756-2.548,2.756H238.664z M240.952,277.484h-4.316v-25.48h4.316V277.484z"/>
	<path fill="#FFFFFF" d="M251.924,252.004l0.208,1.871c2.651-1.611,5.824-2.6,8.788-2.6c2.756,0,4.94,0.729,6.396,2.236
		c1.403,1.404,2.132,3.484,2.132,6.656v17.316h-4.316v-16.797c0-2.184-0.364-3.432-1.248-4.316c-0.884-0.884-2.236-1.3-4.108-1.3
		c-2.288,0-5.044,0.677-7.124,1.664v20.749h-4.316v-25.48H251.924z"/>
	<path fill="#FFFFFF" d="M295.239,277.225c-2.184,0.624-5.2,0.988-7.54,0.988c-3.952,0-7.021-0.988-9.101-3.068
		c-2.288-2.288-3.328-5.772-3.328-10.349c0-9.101,4.524-13.521,11.024-13.521c7.125,0,10.557,5.044,10.557,13.416v0.988
		c0,0.416-0.208,0.572-0.624,0.572h-16.433c0,2.809,0.729,5.096,2.236,6.5c1.352,1.248,3.276,1.924,6.5,1.924
		c1.82,0,4.316-0.26,6.292-0.676L295.239,277.225z M292.588,263.08c-0.156-4.889-2.028-8.32-6.293-8.32
		c-4.315,0-6.448,3.172-6.5,8.32H292.588z"/>
</g>
</svg>
