<?xml version="1.0" encoding="utf-8"?>
<!-- Generator: Adobe Illustrator 17.0.0, SVG Export Plug-In . SVG Version: 6.00 Build 0)  -->
<!DOCTYPE svg PUBLIC "-//W3C//DTD SVG 1.1//EN" "http://www.w3.org/Graphics/SVG/1.1/DTD/svg11.dtd">
<svg version="1.1" id="Layer_1" xmlns="http://www.w3.org/2000/svg" xmlns:xlink="http://www.w3.org/1999/xlink" x="0px" y="0px"
	 width="500px" height="500px" viewBox="0 0 500 500" enable-background="new 0 0 500 500" xml:space="preserve">
<rect fill="#A8CF38" width="500" height="500"/>
<path fill="none" stroke="#FFFFFF" stroke-width="4" stroke-miterlimit="10" d="M468,90c0,2.761-2.239,5-5,5h-59
	c-2.761,0-5-2.239-5-5V31c0-2.761,2.239-5,5-5h59c2.761,0,5,2.239,5,5V90z"/>
<g>
	<path fill="#FFFFFF" d="M439.572,67.354v16.379h-10.998V67.354h-16.379V56.358h16.379V39.979h10.998v16.379h16.379v10.997h-16.379
		V67.354z"/>
</g>
<g>
	<path fill="#02577D" d="M193.335,271.027c-2.2,0.66-5.665,1.1-8.304,1.1c-11.328,0-16.828-6.434-16.828-19.357
		c0-6.874,1.595-12.208,4.895-15.562c2.64-2.75,6.709-4.18,11.383-4.18c3.245,0,6.324,0.55,8.744,1.43l-0.66,3.74
		c-2.475-0.66-5.169-1.045-7.534-1.045c-3.85,0-6.599,0.989-8.414,3.024c-2.31,2.529-3.3,6.599-3.3,12.483
		c0,5.719,0.99,9.789,3.464,12.318c2.035,2.09,5.004,3.08,9.459,3.08c1.595,0,4.509-0.33,6.654-0.77L193.335,271.027z"/>
	<path fill="#02577D" d="M216.711,271.357l-0.22-1.979c-2.805,1.703-6.049,2.748-9.184,2.748c-2.915,0-5.224-0.77-6.764-2.363
		c-1.485-1.486-2.254-3.686-2.254-7.039v-18.313h4.564v17.762c0,2.311,0.385,3.629,1.32,4.564c0.935,0.936,2.365,1.375,4.345,1.375
		c2.419,0,5.224-0.715,7.424-1.76v-21.942h4.564v26.946H216.711z"/>
	<path fill="#02577D" d="M232.828,232.039v39.319h-4.564v-39.319H232.828z"/>
	<path fill="#02577D" d="M242.232,238.087c1.32-0.44,3.135-0.825,4.564-0.825v7.149h7.094v3.354h-7.094v14.958
		c0,2.584,0.165,3.904,0.935,4.729c0.605,0.66,1.54,1.045,3.464,1.045c0.935,0,2.75-0.164,4.069-0.439l0.22,3.354
		c-1.43,0.385-3.574,0.715-5.554,0.715c-2.64,0-4.784-0.715-5.994-2.09c-1.32-1.539-1.705-3.354-1.705-6.709v-15.562h-4.894v-2.585
		l4.894-0.715V238.087z"/>
	<path fill="#02577D" d="M278.97,271.357l-0.221-1.979c-2.804,1.703-6.049,2.748-9.184,2.748c-2.914,0-5.224-0.77-6.764-2.363
		c-1.485-1.486-2.255-3.686-2.255-7.039v-18.313h4.564v17.762c0,2.311,0.385,3.629,1.319,4.564c0.936,0.936,2.365,1.375,4.345,1.375
		c2.42,0,5.225-0.715,7.424-1.76v-21.942h4.564v26.946H278.97z"/>
	<path fill="#02577D" d="M294.261,244.412l0.275,2.31c2.585-2.145,5.279-3.08,7.644-3.08c0.495,0,1.155,0.056,1.76,0.165v4.07
		c-0.604-0.056-1.595-0.11-2.364-0.11c-2.364,0-4.619,0.604-6.544,1.814v21.777h-4.564v-26.946H294.261z"/>
	<path fill="#02577D" d="M323.685,269.543c-2.364,1.539-5.225,2.584-8.469,2.584c-2.915,0-5.39-0.879-7.039-2.584
		c-1.32-1.375-2.145-3.299-2.145-5.828c0-2.531,0.88-4.51,2.31-5.83c2.034-1.869,5.225-2.584,9.129-2.584h5.609v-1.705
		c0-2.199-0.386-3.575-1.375-4.565c-1.155-1.1-2.915-1.595-5.609-1.595c-2.035,0-4.619,0.22-7.259,0.66l-0.165-3.52
		c2.529-0.605,5.609-0.936,8.193-0.936c4.015,0,6.709,0.881,8.414,2.476c1.705,1.649,2.365,3.794,2.365,7.313v17.928h-3.685
		L323.685,269.543z M323.08,258.654h-4.95c-2.804,0-4.729,0.385-5.994,1.375c-0.935,0.77-1.484,1.926-1.484,3.574
		c0,3.244,2.035,4.84,5.555,4.84c2.199,0,4.894-0.77,6.874-1.76V258.654z"/>
</g>
</svg>
