<?xml version="1.0" encoding="utf-8"?>
<!-- Generator: Adobe Illustrator 17.0.0, SVG Export Plug-In . SVG Version: 6.00 Build 0)  -->
<!DOCTYPE svg PUBLIC "-//W3C//DTD SVG 1.1//EN" "http://www.w3.org/Graphics/SVG/1.1/DTD/svg11.dtd">
<svg version="1.1" id="Layer_1" xmlns="http://www.w3.org/2000/svg" xmlns:xlink="http://www.w3.org/1999/xlink" x="0px" y="0px"
	 width="500px" height="500px" viewBox="0 0 500 500" enable-background="new 0 0 500 500" xml:space="preserve">
<rect fill="#A8CF38" width="500" height="500"/>
<path fill="none" stroke="#FFFFFF" stroke-width="4" stroke-miterlimit="10" d="M468,90c0,2.761-2.239,5-5,5h-59
	c-2.761,0-5-2.239-5-5V31c0-2.761,2.239-5,5-5h59c2.761,0,5,2.239,5,5V90z"/>
<g>
	<path fill="#FFFFFF" d="M439.572,67.354v16.379h-10.998V67.354h-16.379V56.358h16.379V39.979h10.998v16.379h16.379v10.997h-16.379
		V67.354z"/>
</g>
<g>
	<path fill="#02577D" d="M149.064,272.127v-37.615h9.514c6.929,0,11.383,1.375,14.353,4.619c2.695,2.97,4.015,7.479,4.015,13.969
		c0,6.929-1.485,11.878-4.509,14.958c-2.75,2.805-6.929,4.069-12.813,4.069H149.064z M153.959,268.223h5.499
		c4.234,0,6.874-0.88,8.799-2.75c2.53-2.42,3.629-6.544,3.629-12.318c0-5.114-0.825-8.799-2.75-11.163
		c-2.035-2.475-5.169-3.575-10.833-3.575h-4.344V268.223z"/>
	<path fill="#02577D" d="M203.566,271.852c-2.31,0.66-5.499,1.045-7.974,1.045c-4.18,0-7.424-1.045-9.624-3.244
		c-2.419-2.42-3.52-6.104-3.52-10.943c0-9.624,4.785-14.299,11.659-14.299c7.534,0,11.164,5.335,11.164,14.188v1.045
		c0,0.44-0.22,0.604-0.66,0.604h-17.377c0,2.97,0.77,5.39,2.365,6.875c1.43,1.319,3.464,2.034,6.874,2.034
		c1.925,0,4.564-0.274,6.654-0.715L203.566,271.852z M200.762,256.894c-0.165-5.169-2.145-8.799-6.654-8.799
		c-4.564,0-6.819,3.354-6.874,8.799H200.762z"/>
	<path fill="#02577D" d="M211.709,284.5v-39.319h3.794l0.22,1.979c2.805-1.869,5.939-2.75,8.414-2.75
		c6.984,0,10.338,5.555,10.338,14.134c0,10.118-4.069,14.353-10.503,14.353c-2.805,0-5.719-0.77-7.699-2.034V284.5H211.709z
		 M216.273,267.452c1.595,0.936,4.234,1.65,6.544,1.65c4.895,0,6.874-2.915,6.874-10.614c0-6.874-2.035-10.173-6.544-10.173
		c-2.09,0-4.785,0.715-6.874,1.814V267.452z"/>
	<path fill="#02577D" d="M251.582,272.896c-8.358,0-12.263-5.279-12.263-14.243s3.904-14.243,12.263-14.243
		c8.359,0,12.264,5.279,12.264,14.243S259.941,272.896,251.582,272.896z M251.582,248.15c-5.499,0-7.479,3.629-7.479,10.503
		s1.979,10.504,7.479,10.504c5.5,0,7.479-3.63,7.479-10.504S257.082,248.15,251.582,248.15z"/>
	<path fill="#02577D" d="M273.914,245.181l0.274,2.31c2.585-2.145,5.279-3.08,7.644-3.08c0.495,0,1.155,0.056,1.76,0.165v4.07
		c-0.604-0.056-1.594-0.11-2.364-0.11c-2.364,0-4.619,0.604-6.544,1.814v21.777h-4.564v-26.946H273.914z"/>
	<path fill="#02577D" d="M290.633,238.856c1.32-0.44,3.135-0.825,4.564-0.825v7.149h7.094v3.354h-7.094v14.958
		c0,2.585,0.165,3.904,0.936,4.729c0.604,0.66,1.539,1.045,3.464,1.045c0.935,0,2.75-0.165,4.069-0.44l0.221,3.354
		c-1.43,0.385-3.575,0.715-5.555,0.715c-2.64,0-4.784-0.715-5.994-2.09c-1.32-1.539-1.705-3.354-1.705-6.709v-15.563h-4.895v-2.585
		l4.895-0.715V238.856z"/>
	<path fill="#02577D" d="M328.745,271.852c-2.31,0.66-5.499,1.045-7.974,1.045c-4.18,0-7.425-1.045-9.624-3.244
		c-2.42-2.42-3.52-6.104-3.52-10.943c0-9.624,4.784-14.299,11.658-14.299c7.534,0,11.163,5.335,11.163,14.188v1.045
		c0,0.44-0.22,0.604-0.66,0.604h-17.377c0,2.97,0.77,5.39,2.365,6.875c1.43,1.319,3.464,2.034,6.873,2.034
		c1.926,0,4.564-0.274,6.654-0.715L328.745,271.852z M325.94,256.894c-0.165-5.169-2.146-8.799-6.654-8.799
		c-4.564,0-6.819,3.354-6.874,8.799H325.94z"/>
	<path fill="#02577D" d="M352.836,248.92c-2.42-0.55-4.895-0.88-7.095-0.88c-3.849,0-5.884,1.265-5.884,3.795
		c0,6.049,15.013,3.189,15.013,12.813c0,5.719-4.399,8.248-10.889,8.248c-2.585,0-5.884-0.494-7.919-1.154l0.221-3.52
		c2.199,0.604,5.169,0.989,7.533,0.989c4.399,0,6.764-1.484,6.764-4.234c0-6.049-15.012-2.914-15.012-12.813
		c0-5.225,4.068-7.755,9.788-7.755c2.694,0,5.72,0.495,7.864,1.155L352.836,248.92z"/>
</g>
</svg>
