<?xml version="1.0" encoding="utf-8"?>
<!-- Generator: Adobe Illustrator 16.0.4, SVG Export Plug-In . SVG Version: 6.00 Build 0)  -->
<!DOCTYPE svg PUBLIC "-//W3C//DTD SVG 1.1//EN" "http://www.w3.org/Graphics/SVG/1.1/DTD/svg11.dtd">
<svg version="1.1" id="Layer_1" xmlns="http://www.w3.org/2000/svg" xmlns:xlink="http://www.w3.org/1999/xlink" x="0px" y="0px"
	 width="500px" height="500px" viewBox="0 0 500 500" enable-background="new 0 0 500 500" xml:space="preserve">
<rect fill="#00C6D7" width="500" height="500"/>
<g enable-background="new    ">
	<path fill="#FFFFFF" d="M93.756,267.268V217.29h12.64c9.206,0,15.122,1.826,19.069,6.136c3.58,3.945,5.333,9.938,5.333,18.558
		c0,9.208-1.973,15.784-5.991,19.874c-3.653,3.729-9.206,5.41-17.023,5.41H93.756L93.756,267.268z M100.258,262.079h7.304
		c5.627,0,9.133-1.171,11.689-3.653c3.36-3.218,4.819-8.695,4.819-16.368c0-6.793-1.097-11.688-3.651-14.829
		c-2.705-3.289-6.87-4.75-14.395-4.75h-5.771v39.6H100.258L100.258,262.079z"/>
	<path fill="#FFFFFF" d="M166.154,266.898c-3.067,0.879-7.305,1.391-10.592,1.391c-5.552,0-9.863-1.391-12.786-4.311
		c-3.215-3.223-4.676-8.113-4.676-14.542c0-12.788,6.355-18.997,15.489-18.997c10.01,0,14.83,7.087,14.83,18.851v1.39
		c0,0.586-0.292,0.805-0.875,0.805h-23.088c0,3.941,1.024,7.158,3.142,9.133c1.899,1.751,4.603,2.703,9.133,2.703
		c2.558,0,6.063-0.366,8.839-0.95L166.154,266.898z M162.428,247.026c-0.219-6.868-2.851-11.689-8.84-11.689
		c-6.064,0-9.058,4.456-9.133,11.689H162.428z"/>
	<path fill="#FFFFFF" d="M198.15,236.435c-3.214-0.729-6.501-1.169-9.424-1.169c-5.116,0-7.819,1.681-7.819,5.041
		c0,8.036,19.946,4.237,19.946,17.021c0,7.6-5.845,10.961-14.467,10.961c-3.434,0-7.819-0.66-10.521-1.536l0.292-4.676
		c2.922,0.805,6.869,1.313,10.01,1.313c5.843,0,8.988-1.974,8.988-5.621c0-8.041-19.947-3.875-19.947-17.024
		c0-6.943,5.407-10.302,13.006-10.302c3.58,0,7.597,0.659,10.447,1.535L198.15,236.435z"/>
	<path fill="#FFFFFF" d="M234.238,267.12c-2.338,0.659-6.356,1.169-8.986,1.169c-5.843,0-10.083-1.463-13.005-4.457
		c-2.996-3.066-4.75-7.745-4.75-14.029c0-6.283,1.608-11.178,4.675-14.465c3.069-3.289,7.673-4.895,13.151-4.895
		c2.778,0,6.064,0.439,8.547,1.097l-0.365,4.675c-2.266-0.438-5.19-0.878-7.452-0.878c-8.403,0-12.202,4.896-12.202,14.393
		c0,4.534,1.024,7.963,2.996,10.229c2.047,2.341,5.114,3.361,9.5,3.361c2.411,0,5.625-0.365,7.452-0.731L234.238,267.12z"/>
	<path fill="#FFFFFF" d="M266.602,267.268l-0.293-2.636c-3.726,2.265-8.039,3.656-12.201,3.656c-3.873,0-6.939-1.021-8.985-3.144
		c-1.971-1.975-2.994-4.896-2.994-9.353V231.46h6.063v23.601c0,3.068,0.512,4.821,1.755,6.065c1.246,1.24,3.142,1.826,5.771,1.826
		c3.217,0,6.942-0.952,9.864-2.343V231.46h6.062v35.806L266.602,267.268L266.602,267.268z"/>
	<path fill="#FFFFFF" d="M308.023,266.898c-3.068,0.879-7.309,1.391-10.6,1.391c-5.554,0-9.861-1.391-12.781-4.311
		c-3.216-3.223-4.681-8.113-4.681-14.542c0-12.788,6.354-18.997,15.488-18.997c10.012,0,14.832,7.087,14.832,18.851v1.39
		c0,0.586-0.291,0.805-0.878,0.805H286.32c0,3.941,1.021,7.158,3.142,9.133c1.897,1.751,4.604,2.703,9.134,2.703
		c2.557,0,6.062-0.366,8.838-0.95L308.023,266.898z M304.298,247.026c-0.223-6.868-2.853-11.689-8.843-11.689
		c-6.062,0-9.057,4.456-9.131,11.689H304.298z"/>
	<path fill="#FFFFFF" d="M323.874,231.464l0.296,2.632c3.724-2.264,8.181-3.653,12.347-3.653c3.872,0,6.939,1.023,8.984,3.145
		c1.972,1.972,2.995,4.894,2.995,9.349v24.331h-6.064v-23.6c0-3.068-0.511-4.821-1.752-6.064c-1.245-1.244-3.141-1.826-5.771-1.826
		c-3.213,0-7.087,0.949-10.014,2.337v29.15h-6.061v-35.805L323.874,231.464L323.874,231.464z"/>
	<path fill="#FFFFFF" d="M360.764,223.062c1.756-0.584,4.166-1.095,6.065-1.095v9.499h9.425v4.458h-9.425v19.872
		c0,3.435,0.222,5.188,1.241,6.281c0.804,0.881,2.048,1.392,4.604,1.392c1.238,0,3.653-0.22,5.402-0.589l0.295,4.461
		c-1.9,0.511-4.749,0.949-7.379,0.949c-3.508,0-6.356-0.949-7.962-2.776c-1.752-2.047-2.27-4.457-2.27-8.914v-20.679h-6.501v-3.435
		l6.501-0.948v-8.476H360.764L360.764,223.062z"/>
	<path fill="#FFFFFF" d="M399.632,268.289c-11.104,0-16.294-7.016-16.294-18.926c0-11.91,5.188-18.924,16.294-18.924
		s16.292,7.014,16.292,18.924C415.923,261.273,410.736,268.289,399.632,268.289z M399.632,235.413
		c-7.308,0-9.937,4.821-9.937,13.953c0,9.132,2.629,13.954,9.937,13.954c7.306,0,9.937-4.822,9.937-13.954
		C409.566,240.232,406.936,235.413,399.632,235.413z"/>
</g>
<g>
	<path fill="#FFFFFF" d="M439.572,67.354v16.379h-10.998V67.354h-16.379V56.358h16.379V39.979h10.998v16.379h16.379v10.997
		L439.572,67.354L439.572,67.354z"/>
</g>
<path fill="none" stroke="#FFFFFF" stroke-width="4" stroke-linecap="round" stroke-linejoin="round" stroke-miterlimit="10" d="
	M457.667,95H404c-2.761,0-5-2.239-5-5V31c0-2.761,2.239-5,5-5h59c2.761,0,5,2.239,5,5v50.834"/>
</svg>
