<?xml version="1.0" encoding="utf-8"?>
<!-- Generator: Adobe Illustrator 17.0.0, SVG Export Plug-In . SVG Version: 6.00 Build 0)  -->
<!DOCTYPE svg PUBLIC "-//W3C//DTD SVG 1.1//EN" "http://www.w3.org/Graphics/SVG/1.1/DTD/svg11.dtd">
<svg version="1.1" id="Layer_1" xmlns="http://www.w3.org/2000/svg" xmlns:xlink="http://www.w3.org/1999/xlink" x="0px" y="0px"
	 width="500px" height="500px" viewBox="0 0 500 500" enable-background="new 0 0 500 500" xml:space="preserve">
<rect fill="#11C5D7" width="500" height="500"/>
<path fill="none" stroke="#FFFFFF" stroke-width="4" stroke-miterlimit="10" d="M468,90c0,2.761-2.239,5-5,5h-59
	c-2.761,0-5-2.239-5-5V31c0-2.761,2.239-5,5-5h59c2.761,0,5,2.239,5,5V90z"/>
<g>
	<path fill="#FFFFFF" d="M439.572,67.354v16.379h-10.998V67.354h-16.379V56.358h16.379V39.979h10.998v16.379h16.379v10.997h-16.379
		V67.354z"/>
</g>
<g>
	<path fill="#FFFFFF" d="M177.877,271.587v-35.569h8.996c6.552,0,10.765,1.3,13.572,4.368c2.548,2.809,3.796,7.072,3.796,13.209
		c0,6.552-1.404,11.232-4.264,14.145c-2.6,2.651-6.552,3.848-12.116,3.848H177.877z M182.505,267.895h5.2
		c4.004,0,6.5-0.832,8.32-2.6c2.392-2.288,3.432-6.188,3.432-11.648c0-4.837-0.78-8.32-2.6-10.557
		c-1.924-2.34-4.888-3.38-10.244-3.38h-4.108V267.895z"/>
	<path fill="#FFFFFF" d="M212.925,241.27c-1.561,0-2.548-0.78-2.548-2.756v-0.104c0-1.976,0.988-2.756,2.548-2.756h0.26
		c1.56,0,2.548,0.78,2.548,2.756v0.104c0,1.976-0.988,2.756-2.548,2.756H212.925z M215.213,271.587h-4.316v-25.48h4.316V271.587z"/>
	<path fill="#FFFFFF" d="M237.677,249.642c-2.288-0.52-4.628-0.832-6.708-0.832c-3.641,0-5.564,1.196-5.564,3.589
		c0,5.72,14.196,3.016,14.196,12.116c0,5.408-4.16,7.801-10.296,7.801c-2.444,0-5.564-0.469-7.488-1.093l0.208-3.328
		c2.08,0.572,4.888,0.937,7.124,0.937c4.16,0,6.396-1.404,6.396-4.004c0-5.721-14.197-2.757-14.197-12.117
		c0-4.939,3.848-7.332,9.256-7.332c2.548,0,5.408,0.468,7.437,1.092L237.677,249.642z"/>
	<path fill="#FFFFFF" d="M264.3,271.328c-2.184,0.624-5.2,0.988-7.54,0.988c-3.952,0-7.021-0.988-9.101-3.068
		c-2.288-2.288-3.328-5.772-3.328-10.349c0-9.101,4.524-13.521,11.024-13.521c7.124,0,10.557,5.044,10.557,13.416v0.988
		c0,0.416-0.208,0.572-0.624,0.572h-16.433c0,2.809,0.728,5.096,2.236,6.5c1.352,1.248,3.276,1.924,6.5,1.924
		c1.82,0,4.316-0.26,6.292-0.676L264.3,271.328z M261.647,257.183c-0.156-4.889-2.028-8.32-6.292-8.32
		c-4.316,0-6.448,3.172-6.5,8.32H261.647z"/>
	<path fill="#FFFFFF" d="M275.583,246.107l0.208,1.871c2.652-1.611,5.824-2.6,8.789-2.6c2.756,0,4.94,0.729,6.396,2.236
		c1.404,1.404,2.132,3.484,2.132,6.656v17.316h-4.316v-16.797c0-2.184-0.364-3.432-1.248-4.316c-0.884-0.884-2.236-1.3-4.108-1.3
		c-2.288,0-5.044,0.677-7.124,1.664v20.749h-4.316v-25.48H275.583z M275.115,239.398c0.26-3.432,1.82-5.408,4.368-5.408
		c2.704,0,5.304,2.028,7.176,2.028c1.04,0,1.716-0.468,2.08-2.08l2.444,0.416c-0.26,3.433-1.82,5.408-4.368,5.408
		c-2.704,0-5.304-2.028-7.176-2.028c-1.04,0-1.716,0.469-2.08,2.08L275.115,239.398z"/>
	<path fill="#FFFFFF" d="M310.527,272.316c-7.904,0-11.597-4.992-11.597-13.469s3.692-13.469,11.597-13.469
		s11.596,4.992,11.596,13.469S318.431,272.316,310.527,272.316z M310.527,248.915c-5.2,0-7.072,3.433-7.072,9.933
		s1.872,9.932,7.072,9.932s7.072-3.432,7.072-9.932S315.727,248.915,310.527,248.915z"/>
</g>
</svg>
