<?xml version="1.0" encoding="utf-8"?>
<!-- Generator: Adobe Illustrator 17.0.0, SVG Export Plug-In . SVG Version: 6.00 Build 0)  -->
<!DOCTYPE svg PUBLIC "-//W3C//DTD SVG 1.1//EN" "http://www.w3.org/Graphics/SVG/1.1/DTD/svg11.dtd">
<svg version="1.1" id="Layer_1" xmlns="http://www.w3.org/2000/svg" xmlns:xlink="http://www.w3.org/1999/xlink" x="0px" y="0px"
	 width="1500px" height="191px" viewBox="0 0 1500 191" enable-background="new 0 0 1500 191" xml:space="preserve">
<rect fill="#00587E" width="1304.035" height="191"/>
<rect x="1304" fill="#29C0D3" width="196" height="191"/>
<g enable-background="new    ">
	<path fill="#FFFFFF" d="M132.133,61.859v5.61h-5.866v46.923h5.866v5.611h-18.617v-5.611h5.866V77.755l-16.832,29.327h-4.08
		c-1.615,0-2.295-0.34-3.061-1.699L80.024,77.416v36.977h5.866v5.611H67.698v-5.611h5.865V67.469h-5.865v-5.61h7.82
		c2.976,0,3.741,0.425,4.846,2.465l19.466,35.874l19.892-35.704c1.105-1.955,2.04-2.635,4.59-2.635H132.133z"/>
	<path fill="#FFFFFF" d="M160.094,121.193c-12.411,0-19.042-8.33-19.042-22.016c0-13.687,6.63-22.018,19.042-22.018
		s19.042,8.331,19.042,22.018C179.135,112.863,172.505,121.193,160.094,121.193z M160.094,83.281
		c-8.585,0-11.901,5.695-11.901,15.897c0,10.199,3.315,15.895,11.901,15.895c8.586,0,11.901-5.695,11.901-15.895
		C171.995,88.976,168.68,83.281,160.094,83.281z"/>
	<path fill="#FFFFFF" d="M215.089,117.453c-3.996,2.211-8.416,3.74-12.496,3.74c-10.456,0-15.896-8.33-15.896-22.271
		c0-13.431,6.206-21.762,16.406-21.762c3.741,0,8.076,1.275,11.646,3.061V64.069h-5.78v-5.101c1.87-0.17,5.95-0.51,7.906-0.51
		c1.7,0,2.975,0.34,3.825,1.19c0.68,0.68,0.935,1.7,0.935,3.4v51.769h5.61v5.1c-2.89,0.34-5.61,0.596-7.821,0.596
		c-2.805,0-3.91-1.189-4.335-2.975V117.453z M214.749,112.947V84.981c-3.4-0.851-7.141-1.53-9.861-1.53
		c-7.65,0-11.051,5.186-11.051,15.385c0,12.242,3.655,16.066,10.626,16.066C207.523,114.902,211.774,114.139,214.749,112.947z"/>
	<path fill="#FFFFFF" d="M247.473,121.193c-7.651,0-13.941-4.25-13.941-13.092c0-3.824,1.19-6.885,3.315-9.01
		c2.805-2.891,7.565-4.25,13.941-4.25c3.061,0,6.206,0.17,9.266,0.34v-3.655c0-3.4-0.595-5.101-1.87-6.29
		c-1.445-1.36-3.826-1.785-7.821-1.785h-12.921V79.03c4.42-1.189,10.456-1.87,15.046-1.87c5.355,0,9.096,1.36,11.476,3.825
		c2.04,2.126,2.975,5.016,2.975,9.521v24.312h5.61v5.1c-2.89,0.34-5.61,0.596-7.82,0.596c-2.805,0-4.081-1.189-4.505-2.975
		C256.568,119.664,251.978,121.193,247.473,121.193z M260.054,100.281h-8.501c-3.91,0-6.8,0.596-8.5,1.871
		c-1.615,1.189-2.465,3.061-2.465,5.609c0,4.336,2.38,7.396,8.671,7.396c3.485,0,7.565-0.68,10.796-1.871V100.281z"/>
</g>
<g>
	<g>
		<path fill="#FFFFFF" d="M1467.606,101.042l-32.682-47.346c-2.225-3.212-5.906-5.114-9.827-5.059
			c-4.501,0.065-10.365,1.553-15.051,7.537c-0.387,0.494-0.548,1.124-0.442,1.755c0.096,0.614,0.456,1.148,0.99,1.484l0.027,0.027
			c0.857,0.548,1.981,0.35,2.598-0.47c2.557-3.387,5.45-5.059,8.1-5.81c4.045-1.165,8.37,0.415,10.725,3.884l28.504,41.975
			c-4.295-0.926-10.897-1.916-19.373-1.916c-8.97,0-18.208,1.124-27.435,3.362l-1.594,0.387v2.303
			c-2.142-0.751-5.313-2.064-9.45-2.064c-4.127,0-7.38,1.313-9.508,2.064l-0.065-2.303l-1.608-0.387
			c-9.214-2.238-18.451-3.362-27.435-3.362c-8.477,0-15.089,0.991-19.373,1.916l28.504-41.975c2.355-3.469,6.68-5.049,10.711-3.884
			c2.65,0.751,5.542,2.423,8.113,5.81c0.603,0.819,1.741,1.018,2.598,0.47l0.027-0.027c0.535-0.336,0.884-0.871,0.99-1.484
			c0.106-0.631-0.055-1.261-0.442-1.755c-4.686-5.985-10.55-7.472-15.065-7.537c-3.907-0.055-7.589,1.848-9.813,5.059
			l-32.682,47.346l0.041,18.143c-0.041,0.346-0.686,8.795,5.529,15.544c4.86,5.302,12.466,8.007,22.561,8.007
			c10.55,0,18.29-2.704,23.003-7.979c4.74-5.316,4.658-13.471,4.658-13.563c-0.171-6.468-0.226-13.539-0.226-13.539
			c1.608-0.641,6.293-2.488,9.412-2.488c3.105,0,7.791,1.848,9.412,2.488c0,0-0.065,7.071-0.226,13.539
			c-0.014,0.093-0.082,8.261,4.644,13.563c4.727,5.275,12.453,7.979,23.003,7.979c10.108,0,17.7-2.704,22.574-8.007
			c6.201-6.749,5.556-15.198,5.529-15.544L1467.606,101.042z"/>
	</g>
</g>
</svg>
