<?xml version="1.0" encoding="utf-8"?>
<!-- Generator: Adobe Illustrator 17.0.0, SVG Export Plug-In . SVG Version: 6.00 Build 0)  -->
<!DOCTYPE svg PUBLIC "-//W3C//DTD SVG 1.1//EN" "http://www.w3.org/Graphics/SVG/1.1/DTD/svg11.dtd">
<svg version="1.1" id="Layer_1" xmlns="http://www.w3.org/2000/svg" xmlns:xlink="http://www.w3.org/1999/xlink" x="0px" y="0px"
	 width="1500px" height="191px" viewBox="0 0 1500 191" enable-background="new 0 0 1500 191" xml:space="preserve">
<rect fill="#00587E" width="1304.035" height="191"/>
<rect x="1304" fill="#29C0D3" width="196" height="191"/>
<g enable-background="new    ">
	<path fill="#FFFFFF" d="M84.955,115.072c5.186,0,8.755-0.934,11.136-3.059c1.87-1.701,2.89-4.082,2.89-7.227
		c0-2.551-0.595-4.76-2.04-6.291c-1.445-1.529-3.91-2.719-8.585-4.165l-4.42-1.36c-5.61-1.7-9.181-3.74-11.306-5.78
		c-2.975-2.806-4.165-6.206-4.165-10.541c0-4.846,1.615-8.586,4.505-11.306c3.655-3.4,8.585-4.846,15.641-4.846
		c4.845,0,10.286,0.936,13.261,1.785c0.935,0.255,1.36,0.595,1.36,1.7V74.1h-5.44c-0.425-0.851-1.105-4.676-1.105-6.716
		c-2.21-0.34-6.206-0.595-8.331-0.595c-4.761,0-8.246,0.765-10.541,3.06c-1.445,1.445-2.295,3.485-2.295,6.036
		c0,2.465,0.595,4.59,2.38,6.375c1.53,1.445,3.91,2.891,8.416,4.251l4.676,1.444c5.865,1.87,9.521,3.74,11.901,6.546
		c2.125,2.465,3.145,5.696,3.145,10.116c0,5.016-1.615,8.84-4.42,11.561c-3.485,3.4-9.096,5.102-16.491,5.102
		c-5.951,0-11.561-0.766-14.706-1.701c-1.02-0.34-1.36-0.68-1.36-1.785v-10.371h5.44c0.425,0.936,1.105,4.762,1.105,6.801
		C77.644,114.648,81.384,115.072,84.955,115.072z"/>
	<path fill="#FFFFFF" d="M121.417,101.303c0.17,4.504,1.105,7.82,3.315,10.115c2.38,2.551,6.12,3.74,12.836,3.74h10.541v4.25
		c-3.655,1.02-8.84,1.785-13.091,1.785c-7.056,0-12.241-1.955-15.386-5.355c-3.655-3.91-5.355-9.775-5.355-16.746
		c0-13.006,6.545-21.932,18.191-21.932c11.136,0,17.256,8.076,17.256,20.913v2.465c0,0.596-0.255,0.766-0.935,0.766H121.417z
		 M143.179,95.862c-0.595-8.076-3.825-12.921-10.711-12.921c-7.396,0-10.711,5.865-10.966,12.921H143.179z"/>
	<path fill="#FFFFFF" d="M168.678,120.004h-6.886V83.621h-5.78v-5.016c2.89-0.34,5.78-0.595,7.99-0.595
		c2.806,0,4.25,0.595,4.591,3.315c3.4-2.04,8.755-4.166,11.986-4.166c1.36,0,2.04,0.426,2.04,1.785v5.186h-2.21
		c-5.016,0-8.076,0.255-11.731,1.105V120.004z"/>
	<path fill="#FFFFFF" d="M215.002,78.605h14.621v5.016h-3.996l-13.346,36.383h-4.761c-2.55,0-3.06-0.596-3.825-2.721l-12.241-33.663
		h-5.44v-5.016c2.21-0.255,4.59-0.51,6.291-0.51c3.315,0,4.505,0.425,5.525,3.315l11.136,31.962l10.116-29.752h-4.08V78.605z"/>
	<path fill="#FFFFFF" d="M245.94,120.004h-6.886V83.621h-5.95V78.52c1.87-0.17,6.12-0.51,8.076-0.51c1.7,0,2.975,0.34,3.825,1.19
		c0.68,0.68,0.935,1.699,0.935,3.399V120.004z M241.86,69.764c-2.55,0-4.165-1.274-4.165-4.505v-0.255
		c0-3.23,1.615-4.506,4.165-4.506h0.51c2.55,0,4.166,1.275,4.166,4.506v0.255c0,3.23-1.615,4.505-4.166,4.505H241.86z"/>
	<path fill="#FFFFFF" d="M288.527,119.494c-3.315,0.934-8.161,1.699-11.646,1.699c-6.63,0-11.986-2.039-15.471-5.865
		c-3.4-3.74-5.355-9.352-5.355-16.236c0-7.226,2.295-12.836,5.866-16.492c3.485-3.57,9.096-5.44,15.131-5.44
		c3.996,0,7.651,0.596,10.201,1.19c1.105,0.255,1.36,0.68,1.36,1.785v9.436h-5.271c-0.425-1.02-1.105-4.42-1.19-6.375
		c-1.36-0.17-2.635-0.255-4.166-0.255c-4.76,0-8.416,1.02-10.796,3.484c-2.465,2.551-3.995,6.801-3.995,12.581
		c0,4.506,0.85,9.352,3.655,12.242c2.72,2.805,6.8,3.91,12.921,3.91h8.756V119.494z"/>
	<path fill="#FFFFFF" d="M307.225,120.004h-6.886V83.621h-5.95V78.52c1.87-0.17,6.12-0.51,8.076-0.51c1.7,0,2.975,0.34,3.825,1.19
		c0.68,0.68,0.935,1.699,0.935,3.399V120.004z M303.145,69.764c-2.55,0-4.165-1.274-4.165-4.505v-0.255
		c0-3.23,1.615-4.506,4.165-4.506h0.51c2.55,0,4.166,1.275,4.166,4.506v0.255c0,3.23-1.615,4.505-4.166,4.505H303.145z"/>
	<path fill="#FFFFFF" d="M336.38,121.193c-12.411,0-19.042-8.33-19.042-22.016c0-13.687,6.63-22.018,19.042-22.018
		s19.042,8.331,19.042,22.018C355.421,112.863,348.791,121.193,336.38,121.193z M336.38,83.281c-8.585,0-11.901,5.695-11.901,15.897
		c0,10.199,3.315,15.895,11.901,15.895c8.586,0,11.901-5.695,11.901-15.895C348.281,88.976,344.966,83.281,336.38,83.281z"/>
	<path fill="#FFFFFF" d="M369.614,109.037c0.34,1.021,0.935,3.91,1.105,5.695c1.785,0.51,5.61,0.936,8.331,0.936
		c3.825,0,6.545-0.596,8.246-2.041c1.19-1.02,1.785-2.719,1.785-4.504c0-3.826-2.55-5.441-7.906-6.717l-4.93-1.273
		c-4.42-1.105-7.311-2.297-9.181-4.166c-2.04-2.041-2.975-4.76-2.975-7.651c0-3.57,1.275-6.631,3.74-8.671
		c2.975-2.55,7.055-3.485,12.241-3.485c3.4,0,8.501,0.426,11.646,1.19c1.36,0.34,1.615,0.936,1.615,1.955v8.246h-5.101
		c-0.425-1.021-0.935-3.74-1.105-5.44c-2.04-0.255-4.675-0.426-6.971-0.426c-6.375,0-9.776,2.041-9.776,6.121
		c0,3.485,2.55,5.016,7.906,6.375l5.101,1.276c4.675,1.189,7.226,2.465,9.096,4.334c2.04,2.041,2.975,4.762,2.975,7.906
		c0,3.74-1.275,6.801-3.57,8.842c-2.805,2.465-7.141,3.654-12.751,3.654c-4.42,0-9.691-0.596-13.091-1.529
		c-1.275-0.34-1.53-0.936-1.53-1.955v-8.672H369.614z"/>
</g>
<g>
	<g>
		<path fill="#FFFFFF" d="M1477.712,105.363h-0.689V66.09c0-5.499-4.474-9.976-9.976-9.976h-96.616c-0.036,0-0.073,0-0.114,0.003
			c-0.296-0.01-0.596,0.017-0.892,0.084c-0.963,0.225-1.785,0.851-2.252,1.72l-4.786,8.859l-6.743,11.912
			c-0.242,0.148-0.511,0.252-0.797,0.283l-14.575,1.498c-4.695,0.481-8.239,4.409-8.239,9.131v15.759h-3.447
			c-1.024,0-1.992,0.455-2.649,1.239c-0.653,0.788-0.925,1.824-0.741,2.831l2.067,11.246c0.302,1.635,1.727,2.82,3.389,2.82h9.738
			c1.566,6.715,7.597,11.734,14.78,11.734c7.186,0,13.215-5.019,14.779-11.734h62.869c1.565,6.715,7.596,11.734,14.779,11.734
			c7.183,0,13.215-5.019,14.78-11.734h15.334c1.905,0,3.447-1.542,3.447-3.447V108.81
			C1481.159,106.906,1479.618,105.363,1477.712,105.363L1477.712,105.363z M1355.17,128.34c-4.568,0-8.284-3.716-8.284-8.288
			c0-4.567,3.716-8.283,8.284-8.283c4.57,0,8.287,3.716,8.287,8.283C1363.457,124.623,1359.741,128.34,1355.17,128.34
			L1355.17,128.34z M1390.741,74.858c0,1.492-1.212,2.703-2.7,2.703h-23.837l8.237-14.555h18.3L1390.741,74.858L1390.741,74.858z
			 M1425.174,103.758c-0.775,0.775-1.808,1.202-2.905,1.202c-1.098,0-2.131-0.427-2.905-1.202c-1.603-1.602-1.603-4.211,0-5.813
			l14.672-14.672c-1.616-3.932-0.744-8.539,2.315-11.599c2.134-2.131,5.039-3.245,8.065-3.104c0.683,0.034,1.279,0.464,1.524,1.101
			c0.246,0.636,0.095,1.36-0.387,1.841l-4.197,4.194c-0.192,0.192-0.219,0.414-0.219,0.529c0,0.117,0.027,0.336,0.219,0.528
			l4.999,4.999c0.191,0.191,0.414,0.219,0.528,0.219s0.337-0.028,0.528-0.219l4.197-4.194c0.482-0.485,1.202-0.637,1.838-0.39
			c0.637,0.246,1.068,0.844,1.101,1.524c0.145,3.009-0.987,5.947-3.104,8.064c-2.009,2.013-4.685,3.121-7.533,3.121
			c-1.397,0-2.781-0.277-4.063-0.801L1425.174,103.758z M1447.598,128.34c-4.568,0-8.287-3.716-8.287-8.288
			c0-4.567,3.719-8.283,8.287-8.283c4.571,0,8.287,3.716,8.287,8.283C1455.885,124.623,1452.169,128.34,1447.598,128.34
			L1447.598,128.34z"/>
	</g>
</g>
</svg>
