<?xml version="1.0" encoding="utf-8"?>
<!-- Generator: Adobe Illustrator 17.0.0, SVG Export Plug-In . SVG Version: 6.00 Build 0)  -->
<!DOCTYPE svg PUBLIC "-//W3C//DTD SVG 1.1//EN" "http://www.w3.org/Graphics/SVG/1.1/DTD/svg11.dtd">
<svg version="1.1" id="Layer_1" xmlns="http://www.w3.org/2000/svg" xmlns:xlink="http://www.w3.org/1999/xlink" x="0px" y="0px"
	 width="1500px" height="191px" viewBox="0 0 1500 191" enable-background="new 0 0 1500 191" xml:space="preserve">
<rect fill="#00587E" width="1304.035" height="191"/>
<rect x="1304" fill="#29C0D3" width="196" height="191"/>
<g enable-background="new    ">
	<path fill="#FFFFFF" d="M110.117,67.469l-16.151,52.535h-6.631c-1.785,0-2.21-0.426-2.72-1.871L68.208,67.469h-5.44v-5.61h7.056
		c3.825,0,4.335,0.425,5.101,2.805l15.131,48.03l13.687-45.224h-5.101v-5.61h16.406v5.61H110.117z"/>
	<path fill="#FFFFFF" d="M130.683,120.004h-6.886V83.621h-5.95V78.52c1.87-0.17,6.12-0.51,8.076-0.51c1.7,0,2.975,0.34,3.825,1.19
		c0.68,0.68,0.935,1.699,0.935,3.399V120.004z M126.602,69.764c-2.55,0-4.165-1.274-4.165-4.505v-0.255
		c0-3.23,1.615-4.506,4.165-4.506h0.51c2.55,0,4.166,1.275,4.166,4.506v0.255c0,3.23-1.615,4.505-4.166,4.505H126.602z"/>
	<path fill="#FFFFFF" d="M154.993,121.193c-7.651,0-13.941-4.25-13.941-13.092c0-3.824,1.19-6.885,3.315-9.01
		c2.805-2.891,7.565-4.25,13.941-4.25c3.061,0,6.206,0.17,9.266,0.34v-3.655c0-3.4-0.595-5.101-1.871-6.29
		c-1.445-1.36-3.825-1.785-7.82-1.785h-12.921V79.03c4.42-1.189,10.456-1.87,15.046-1.87c5.355,0,9.096,1.36,11.476,3.825
		c2.04,2.126,2.975,5.016,2.975,9.521v24.312h5.61v5.1c-2.89,0.34-5.61,0.596-7.82,0.596c-2.805,0-4.081-1.189-4.505-2.975
		C164.088,119.664,159.498,121.193,154.993,121.193z M167.574,100.281h-8.501c-3.91,0-6.8,0.596-8.5,1.871
		c-1.615,1.189-2.465,3.061-2.465,5.609c0,4.336,2.38,7.396,8.671,7.396c3.485,0,7.565-0.68,10.796-1.871V100.281z"/>
	<path fill="#FFFFFF" d="M197.407,125.443c0,5.102-0.85,8.416-2.72,10.627c-1.87,2.295-4.845,3.4-8.841,3.4
		c-1.87,0-4.59-0.256-6.121-0.596v-5.186h3.485c3.061,0,4.59-0.426,5.696-1.615c1.105-1.189,1.615-3.314,1.615-6.885V83.621h-5.95
		V78.52c1.87-0.17,6.12-0.51,8.076-0.51c1.7,0,2.975,0.34,3.825,1.19c0.68,0.68,0.935,1.699,0.935,3.399V125.443z M193.326,69.764
		c-2.55,0-4.165-1.274-4.165-4.505v-0.255c0-3.23,1.615-4.506,4.165-4.506h0.51c2.55,0,4.166,1.275,4.166,4.506v0.255
		c0,3.23-1.615,4.505-4.166,4.505H193.326z"/>
	<path fill="#FFFFFF" d="M214.661,101.303c0.17,4.504,1.105,7.82,3.315,10.115c2.38,2.551,6.12,3.74,12.836,3.74h10.541v4.25
		c-3.655,1.02-8.84,1.785-13.091,1.785c-7.056,0-12.241-1.955-15.386-5.355c-3.655-3.91-5.355-9.775-5.355-16.746
		c0-13.006,6.545-21.932,18.191-21.932c11.136,0,17.256,8.076,17.256,20.913v2.465c0,0.596-0.255,0.766-0.935,0.766H214.661z
		 M236.423,95.862c-0.595-8.076-3.825-12.921-10.711-12.921c-7.396,0-10.711,5.865-10.966,12.921H236.423z"/>
	<path fill="#FFFFFF" d="M257.416,109.037c0.34,1.021,0.935,3.91,1.105,5.695c1.785,0.51,5.61,0.936,8.331,0.936
		c3.825,0,6.545-0.596,8.246-2.041c1.19-1.02,1.785-2.719,1.785-4.504c0-3.826-2.55-5.441-7.906-6.717l-4.93-1.273
		c-4.42-1.105-7.311-2.297-9.181-4.166c-2.04-2.041-2.975-4.76-2.975-7.651c0-3.57,1.275-6.631,3.74-8.671
		c2.975-2.55,7.055-3.485,12.241-3.485c3.4,0,8.501,0.426,11.646,1.19c1.36,0.34,1.615,0.936,1.615,1.955v8.246h-5.101
		c-0.425-1.021-0.935-3.74-1.105-5.44c-2.04-0.255-4.675-0.426-6.971-0.426c-6.375,0-9.776,2.041-9.776,6.121
		c0,3.485,2.55,5.016,7.906,6.375l5.101,1.276c4.675,1.189,7.226,2.465,9.096,4.334c2.04,2.041,2.975,4.762,2.975,7.906
		c0,3.74-1.275,6.801-3.57,8.842c-2.805,2.465-7.141,3.654-12.751,3.654c-4.42,0-9.691-0.596-13.091-1.529
		c-1.275-0.34-1.53-0.936-1.53-1.955v-8.672H257.416z"/>
</g>
<g>
	<g>
		<path fill="#FFFFFF" d="M1462.828,117.272v-6.95l-49.148-34.181l1.118-31.956c-0.564-16.753-11.34-19.422-12.911-19.422
			c-1.572,0-12.22,3.524-12.067,19.422l1.118,31.956l-49.146,34.181v6.95l50.259-9.345l1.279,36.563l-18.352,12.764v3.139h19.951
			c1.437,2.443,4.046,4.129,7.081,4.235c3.258,0.115,6.154-1.607,7.696-4.235h19.935v-3.139l-18.353-12.764l1.278-36.563
			L1462.828,117.272z"/>
	</g>
</g>
</svg>
