<?xml version="1.0" encoding="utf-8"?>
<!-- Generator: Adobe Illustrator 17.0.0, SVG Export Plug-In . SVG Version: 6.00 Build 0)  -->
<!DOCTYPE svg PUBLIC "-//W3C//DTD SVG 1.1//EN" "http://www.w3.org/Graphics/SVG/1.1/DTD/svg11.dtd">
<svg version="1.1" id="Layer_1" xmlns="http://www.w3.org/2000/svg" xmlns:xlink="http://www.w3.org/1999/xlink" x="0px" y="0px"
	 width="1500px" height="191px" viewBox="0 0 1500 191" enable-background="new 0 0 1500 191" xml:space="preserve">
<rect fill="#00587E" width="1304.035" height="191"/>
<rect x="1304" fill="#29C0D3" width="196" height="191"/>
<g enable-background="new    ">
	<path fill="#FFFFFF" d="M84.955,115.072c5.186,0,8.755-0.934,11.136-3.059c1.87-1.701,2.89-4.082,2.89-7.227
		c0-2.551-0.595-4.76-2.04-6.291c-1.445-1.529-3.91-2.719-8.585-4.165l-4.42-1.36c-5.61-1.7-9.181-3.74-11.306-5.78
		c-2.975-2.806-4.165-6.206-4.165-10.541c0-4.846,1.615-8.586,4.505-11.306c3.655-3.4,8.585-4.846,15.641-4.846
		c4.845,0,10.286,0.936,13.261,1.785c0.935,0.255,1.36,0.595,1.36,1.7V74.1h-5.44c-0.425-0.851-1.105-4.676-1.105-6.716
		c-2.21-0.34-6.206-0.595-8.331-0.595c-4.761,0-8.246,0.765-10.541,3.06c-1.445,1.445-2.295,3.485-2.295,6.036
		c0,2.465,0.595,4.59,2.38,6.375c1.53,1.445,3.91,2.891,8.416,4.251l4.676,1.444c5.865,1.87,9.521,3.74,11.901,6.546
		c2.125,2.465,3.145,5.696,3.145,10.116c0,5.016-1.615,8.84-4.42,11.561c-3.485,3.4-9.096,5.102-16.491,5.102
		c-5.951,0-11.561-0.766-14.706-1.701c-1.02-0.34-1.36-0.68-1.36-1.785v-10.371h5.44c0.425,0.936,1.105,4.762,1.105,6.801
		C77.644,114.648,81.384,115.072,84.955,115.072z"/>
	<path fill="#FFFFFF" d="M127.963,121.193c-7.651,0-13.941-4.25-13.941-13.092c0-3.824,1.19-6.885,3.315-9.01
		c2.805-2.891,7.565-4.25,13.941-4.25c3.061,0,6.206,0.17,9.266,0.34v-3.655c0-3.4-0.595-5.101-1.871-6.29
		c-1.445-1.36-3.825-1.785-7.82-1.785h-12.921V79.03c4.42-1.189,10.456-1.87,15.046-1.87c5.355,0,9.096,1.36,11.476,3.825
		c2.04,2.126,2.975,5.016,2.975,9.521v24.312h5.61v5.1c-2.89,0.34-5.61,0.596-7.82,0.596c-2.805,0-4.081-1.189-4.505-2.975
		C137.059,119.664,132.469,121.193,127.963,121.193z M140.544,100.281h-8.501c-3.91,0-6.8,0.596-8.5,1.871
		c-1.615,1.189-2.465,3.061-2.465,5.609c0,4.336,2.38,7.396,8.671,7.396c3.485,0,7.565-0.68,10.796-1.871V100.281z"/>
	<path fill="#FFFFFF" d="M169.188,120.004h-6.886V64.069h-5.78v-5.101c1.87-0.17,5.95-0.51,7.905-0.51c1.7,0,2.976,0.34,3.826,1.19
		c0.68,0.68,0.935,1.7,0.935,3.4V120.004z"/>
	<path fill="#FFFFFF" d="M190.266,105.977c0,3.486,0.51,5.611,1.87,6.971c1.36,1.361,3.74,1.871,6.886,1.871
		c3.145,0,6.97-0.51,11.136-1.615V83.621h-5.525V78.35h12.411v36.468h5.78v4.93c-2.89,0.34-5.78,0.596-7.991,0.596
		c-2.805,0-4.08-1.189-4.505-2.635c-4.165,2.039-8.84,3.484-13.516,3.484c-4.76,0-8.331-1.359-10.456-3.654
		c-2.125-2.297-2.975-5.271-2.975-9.947V83.621h-5.526V78.52c1.871-0.17,5.781-0.51,7.651-0.51c1.7,0,2.975,0.34,3.825,1.19
		c0.68,0.68,0.935,1.699,0.935,3.399V105.977z"/>
	<path fill="#FFFFFF" d="M257.502,117.453c-3.996,2.211-8.416,3.74-12.496,3.74c-10.456,0-15.896-8.33-15.896-22.271
		c0-13.431,6.206-21.762,16.406-21.762c3.741,0,8.076,1.275,11.646,3.061V64.069h-5.78v-5.101c1.87-0.17,5.95-0.51,7.906-0.51
		c1.7,0,2.975,0.34,3.825,1.19c0.68,0.68,0.935,1.7,0.935,3.4v51.769h5.61v5.1c-2.89,0.34-5.61,0.596-7.821,0.596
		c-2.805,0-3.91-1.189-4.335-2.975V117.453z M257.162,112.947V84.981c-3.4-0.851-7.141-1.53-9.861-1.53
		c-7.65,0-11.051,5.186-11.051,15.385c0,12.242,3.655,16.066,10.626,16.066C249.937,114.902,254.187,114.139,257.162,112.947z"/>
	<path fill="#FFFFFF" d="M302.889,105.977c0,3.486,0.51,5.611,1.87,6.971c1.36,1.361,3.74,1.871,6.886,1.871
		c3.145,0,6.971-0.51,11.136-1.615V83.621h-5.525V78.35h12.411v44.544c0,6.459-1.445,10.539-4.166,13.346
		c-2.72,2.805-6.971,4.08-12.666,4.08c-3.06,0-7.141-0.426-10.116-1.02v-4.762h7.991c4.76,0,7.735-0.764,9.521-2.549
		c1.955-1.871,2.55-4.676,2.55-9.777v-4.42c-4.165,2.041-8.755,3.4-13.346,3.4c-4.76,0-8.331-1.359-10.456-3.654
		c-2.125-2.297-2.975-5.271-2.975-9.947V83.621h-5.525V78.52c1.87-0.17,5.78-0.51,7.65-0.51c1.7,0,2.975,0.34,3.825,1.19
		c0.68,0.68,0.935,1.699,0.935,3.399V105.977z"/>
	<path fill="#FFFFFF" d="M366.383,80.135c3.74-1.785,8.161-2.976,12.156-2.976c5.271,0,8.926,2.041,11.391,5.355
		c2.89,3.996,4.335,9.606,4.335,16.407c0,13.941-5.185,22.271-15.641,22.271c-4.335,0-9.096-1.615-13.176-4.08
		c-0.085,0.85-0.595,2.295-0.935,2.891h-5.016V64.069h-5.78v-5.101c1.87-0.17,5.95-0.51,7.905-0.51c1.7,0,2.976,0.34,3.826,1.19
		c0.68,0.68,0.935,1.7,0.935,3.4V80.135z M366.383,85.066v27.711c2.975,1.275,7.055,2.125,10.286,2.125
		c6.971,0,10.456-3.824,10.456-16.066c0-5.014-0.935-8.84-2.295-11.305c-1.7-2.976-4.335-4.08-8.246-4.08
		C373.013,83.451,369.443,84.215,366.383,85.066z"/>
	<path fill="#FFFFFF" d="M408.967,101.303c0.17,4.504,1.105,7.82,3.315,10.115c2.38,2.551,6.12,3.74,12.836,3.74h10.541v4.25
		c-3.655,1.02-8.84,1.785-13.091,1.785c-7.056,0-12.241-1.955-15.386-5.355c-3.655-3.91-5.355-9.775-5.355-16.746
		c0-13.006,6.545-21.932,18.191-21.932c11.136,0,17.256,8.076,17.256,20.913v2.465c0,0.596-0.255,0.766-0.935,0.766H408.967z
		 M430.729,95.862c-0.595-8.076-3.825-12.921-10.711-12.921c-7.396,0-10.711,5.865-10.966,12.921H430.729z"/>
	<path fill="#FFFFFF" d="M455.292,120.004h-6.886V64.069h-5.78v-5.101c1.87-0.17,5.95-0.51,7.905-0.51c1.7,0,2.976,0.34,3.826,1.19
		c0.68,0.68,0.935,1.7,0.935,3.4V120.004z"/>
	<path fill="#FFFFFF" d="M475.861,120.004h-6.886V64.069h-5.78v-5.101c1.87-0.17,5.95-0.51,7.905-0.51c1.7,0,2.976,0.34,3.826,1.19
		c0.68,0.68,0.935,1.7,0.935,3.4V120.004z"/>
	<path fill="#FFFFFF" d="M493.115,101.303c0.17,4.504,1.105,7.82,3.315,10.115c2.38,2.551,6.12,3.74,12.836,3.74h10.541v4.25
		c-3.655,1.02-8.84,1.785-13.091,1.785c-7.056,0-12.241-1.955-15.386-5.355c-3.655-3.91-5.355-9.775-5.355-16.746
		c0-13.006,6.545-21.932,18.191-21.932c11.136,0,17.256,8.076,17.256,20.913v2.465c0,0.596-0.255,0.766-0.935,0.766H493.115z
		 M514.876,95.862c-0.595-8.076-3.825-12.921-10.711-12.921c-7.396,0-10.711,5.865-10.966,12.921H514.876z"/>
	<path fill="#FFFFFF" d="M530.429,120.004c-0.17-0.51-0.255-1.445-0.255-2.295c0-2.125,0.68-3.4,2.21-5.441l22.102-28.647h-17.937
		c-0.17,1.7-0.68,4.676-1.105,5.95h-5.186v-9.86c0-0.936,0.425-1.36,1.445-1.36h30.688c0.17,0.51,0.255,1.445,0.255,2.295
		c0,1.955-0.595,3.315-2.21,5.44l-22.102,28.733h18.277c0.085-1.701,0.595-4.846,1.105-6.121h5.185v9.945
		c0,0.936-0.425,1.361-1.445,1.361H530.429z"/>
	<path fill="#FFFFFF" d="M583.64,121.193c-7.651,0-13.941-4.25-13.941-13.092c0-3.824,1.19-6.885,3.315-9.01
		c2.805-2.891,7.565-4.25,13.941-4.25c3.061,0,6.206,0.17,9.266,0.34v-3.655c0-3.4-0.595-5.101-1.871-6.29
		c-1.445-1.36-3.825-1.785-7.82-1.785h-12.921V79.03c4.42-1.189,10.456-1.87,15.046-1.87c5.355,0,9.096,1.36,11.476,3.825
		c2.04,2.126,2.975,5.016,2.975,9.521v24.312h5.61v5.1c-2.89,0.34-5.61,0.596-7.82,0.596c-2.805,0-4.081-1.189-4.505-2.975
		C592.736,119.664,588.146,121.193,583.64,121.193z M596.221,100.281h-8.501c-3.91,0-6.8,0.596-8.5,1.871
		c-1.615,1.189-2.465,3.061-2.465,5.609c0,4.336,2.38,7.396,8.671,7.396c3.485,0,7.565-0.68,10.796-1.871V100.281z"/>
</g>
<g>
	<g>
		<path fill="#FFFFFF" d="M1411.363,114.724l-8.106,21.104c-0.437,1.131-1.52,1.881-2.715,1.893h-0.035
			c-1.195,0-2.279-0.736-2.729-1.855l-22.05-54.686l-7.892,16.249c-0.488,1.01-1.52,1.657-2.652,1.657h-18.965
			c0.214,0.36,0.386,0.72,0.612,1.093l5.116,7.385c1.272,1.654,2.652,3.273,4.16,4.905c17.132,18.49,28.923,32.174,36.231,40.952
			c5.253,6.349,13.546,6.423,18.825,0.099c6.987-8.431,18.104-21.454,34.003-38.81L1411.363,114.724z"/>
		<path fill="#FFFFFF" d="M1433.114,31.851c-8.851,0.013-16.944,3.423-23.01,8.989c-6.063,5.591-10.907,5.591-17.008,0.025
			c-6.075-5.54-14.142-8.928-23.02-8.89c-13.683,0.013-25.464,8.08-30.88,19.711c-3.474,7.481-2.952,21.215-0.733,29.171
			c1.058,3.796,2.639,8.131,4.803,12.664c0.389-0.188,0.822-0.325,1.285-0.325h18.799l9.999-20.543
			c0.51-1.045,1.705-1.718,2.738-1.645c1.173,0.038,2.193,0.759,2.642,1.829l21.725,53.899l6.152-16.01
			c0.434-1.132,1.53-1.881,2.738-1.881h38.026c0.784,0,1.505,0.312,2.027,0.822c0.899-1.221,1.979-2.716,3.038-4.207
			c2.767-3.834,8.469-12.715,11.146-20.521c3.723-10.942,3.723-19.026,3.723-19.026
			C1467.267,47.052,1451.952,31.801,1433.114,31.851L1433.114,31.851z"/>
	</g>
</g>
</svg>
