<?xml version="1.0" encoding="utf-8"?>
<!-- Generator: Adobe Illustrator 17.0.0, SVG Export Plug-In . SVG Version: 6.00 Build 0)  -->
<!DOCTYPE svg PUBLIC "-//W3C//DTD SVG 1.1//EN" "http://www.w3.org/Graphics/SVG/1.1/DTD/svg11.dtd">
<svg version="1.1" id="Layer_1" xmlns="http://www.w3.org/2000/svg" xmlns:xlink="http://www.w3.org/1999/xlink" x="0px" y="0px"
	 width="1500px" height="191px" viewBox="0 0 1500 191" enable-background="new 0 0 1500 191" xml:space="preserve">
<rect fill="#00587E" width="1304.035" height="191"/>
<rect x="1304" fill="#29C0D3" width="196" height="191"/>
<g enable-background="new    ">
	<path fill="#FFFFFF" d="M102.211,114.393c0-2.549,0.595-6.035,1.36-8.076h5.016v12.582c0,0.766-0.255,1.105-1.955,1.105H67.698
		v-5.611h5.865V67.469h-5.865v-5.61h19.126v5.61h-5.866v46.923H102.211z"/>
	<path fill="#FFFFFF" d="M126.434,120.004h-6.886V83.621h-5.95V78.52c1.87-0.17,6.12-0.51,8.076-0.51c1.7,0,2.975,0.34,3.825,1.19
		c0.68,0.68,0.935,1.699,0.935,3.399V120.004z M122.354,69.764c-2.55,0-4.165-1.274-4.165-4.505v-0.255
		c0-3.23,1.615-4.506,4.165-4.506h0.51c2.55,0,4.166,1.275,4.166,4.506v0.255c0,3.23-1.615,4.505-4.166,4.505H122.354z"/>
	<path fill="#FFFFFF" d="M147.003,80.135c3.74-1.785,8.161-2.976,12.156-2.976c5.271,0,8.926,2.041,11.391,5.355
		c2.89,3.996,4.335,9.606,4.335,16.407c0,13.941-5.185,22.271-15.641,22.271c-4.335,0-9.096-1.615-13.176-4.08
		c-0.085,0.85-0.595,2.295-0.936,2.891h-5.015V64.069h-5.78v-5.101c1.87-0.17,5.95-0.51,7.905-0.51c1.7,0,2.976,0.34,3.826,1.19
		c0.68,0.68,0.935,1.7,0.935,3.4V80.135z M147.003,85.066v27.711c2.975,1.275,7.055,2.125,10.286,2.125
		c6.971,0,10.456-3.824,10.456-16.066c0-5.014-0.935-8.84-2.295-11.305c-1.7-2.976-4.335-4.08-8.246-4.08
		C153.634,83.451,150.063,84.215,147.003,85.066z"/>
	<path fill="#FFFFFF" d="M193.838,120.004h-6.886V83.621h-5.78v-5.016c2.89-0.34,5.78-0.595,7.99-0.595
		c2.806,0,4.25,0.595,4.591,3.315c3.4-2.04,8.755-4.166,11.986-4.166c1.36,0,2.04,0.426,2.04,1.785v5.186h-2.21
		c-5.016,0-8.076,0.255-11.731,1.105V120.004z"/>
	<path fill="#FFFFFF" d="M230.134,121.193c-12.411,0-19.042-8.33-19.042-22.016c0-13.687,6.63-22.018,19.042-22.018
		s19.042,8.331,19.042,22.018C249.175,112.863,242.545,121.193,230.134,121.193z M230.134,83.281
		c-8.585,0-11.901,5.695-11.901,15.897c0,10.199,3.315,15.895,11.901,15.895c8.586,0,11.901-5.695,11.901-15.895
		C242.035,88.976,238.72,83.281,230.134,83.281z"/>
	<path fill="#FFFFFF" d="M263.368,109.037c0.34,1.021,0.935,3.91,1.105,5.695c1.785,0.51,5.61,0.936,8.331,0.936
		c3.825,0,6.545-0.596,8.246-2.041c1.19-1.02,1.785-2.719,1.785-4.504c0-3.826-2.55-5.441-7.906-6.717l-4.93-1.273
		c-4.42-1.105-7.311-2.297-9.181-4.166c-2.04-2.041-2.975-4.76-2.975-7.651c0-3.57,1.275-6.631,3.74-8.671
		c2.975-2.55,7.055-3.485,12.241-3.485c3.4,0,8.501,0.426,11.646,1.19c1.36,0.34,1.615,0.936,1.615,1.955v8.246h-5.101
		c-0.425-1.021-0.935-3.74-1.105-5.44c-2.04-0.255-4.675-0.426-6.971-0.426c-6.375,0-9.776,2.041-9.776,6.121
		c0,3.485,2.55,5.016,7.906,6.375l5.101,1.276c4.675,1.189,7.226,2.465,9.096,4.334c2.04,2.041,2.975,4.762,2.975,7.906
		c0,3.74-1.275,6.801-3.57,8.842c-2.805,2.465-7.141,3.654-12.751,3.654c-4.42,0-9.691-0.596-13.091-1.529
		c-1.275-0.34-1.53-0.936-1.53-1.955v-8.672H263.368z"/>
	<path fill="#FFFFFF" d="M323.886,105.977c0,3.486,0.51,5.611,1.87,6.971c1.36,1.361,3.74,1.871,6.886,1.871
		c3.145,0,6.971-0.51,11.136-1.615V83.621h-5.525V78.35h12.411v44.544c0,6.459-1.445,10.539-4.166,13.346
		c-2.72,2.805-6.971,4.08-12.666,4.08c-3.06,0-7.141-0.426-10.116-1.02v-4.762h7.991c4.76,0,7.735-0.764,9.521-2.549
		c1.955-1.871,2.55-4.676,2.55-9.777v-4.42c-4.165,2.041-8.755,3.4-13.346,3.4c-4.76,0-8.331-1.359-10.456-3.654
		c-2.125-2.297-2.975-5.271-2.975-9.947V83.621h-5.525V78.52c1.87-0.17,5.78-0.51,7.65-0.51c1.7,0,2.975,0.34,3.825,1.19
		c0.68,0.68,0.935,1.699,0.935,3.399V105.977z"/>
	<path fill="#FFFFFF" d="M388.315,120.004h-6.886V83.621h-5.78v-5.016c2.89-0.34,5.78-0.595,7.99-0.595
		c2.806,0,4.25,0.595,4.59,3.315c3.4-2.04,8.756-4.166,11.986-4.166c1.36,0,2.04,0.426,2.04,1.785v5.186h-2.21
		c-5.016,0-8.076,0.255-11.731,1.105V120.004z"/>
	<path fill="#FFFFFF" d="M412.71,101.303c0.17,4.504,1.105,7.82,3.315,10.115c2.38,2.551,6.12,3.74,12.836,3.74h10.541v4.25
		c-3.655,1.02-8.84,1.785-13.091,1.785c-7.056,0-12.241-1.955-15.386-5.355c-3.655-3.91-5.355-9.775-5.355-16.746
		c0-13.006,6.545-21.932,18.191-21.932c11.136,0,17.256,8.076,17.256,20.913v2.465c0,0.596-0.255,0.766-0.935,0.766H412.71z
		 M434.472,95.862c-0.595-8.076-3.825-12.921-10.711-12.921c-7.396,0-10.711,5.865-10.966,12.921H434.472z"/>
	<path fill="#FFFFFF" d="M473.232,78.605h14.621v5.016h-3.996l-13.346,36.383h-4.761c-2.55,0-3.06-0.596-3.825-2.721l-12.241-33.663
		h-5.44v-5.016c2.21-0.255,4.59-0.51,6.291-0.51c3.315,0,4.505,0.425,5.525,3.315l11.136,31.962l10.116-29.752h-4.08V78.605z"/>
	<path fill="#FFFFFF" d="M504.17,120.004h-6.886V83.621h-5.95V78.52c1.87-0.17,6.12-0.51,8.076-0.51c1.7,0,2.975,0.34,3.825,1.19
		c0.68,0.68,0.935,1.699,0.935,3.399V120.004z M500.089,69.764c-2.55,0-4.165-1.274-4.165-4.505v-0.255
		c0-3.23,1.615-4.506,4.165-4.506h0.51c2.55,0,4.166,1.275,4.166,4.506v0.255c0,3.23-1.615,4.505-4.166,4.505H500.089z"/>
	<path fill="#FFFFFF" d="M521.169,109.037c0.34,1.021,0.935,3.91,1.105,5.695c1.785,0.51,5.61,0.936,8.331,0.936
		c3.825,0,6.545-0.596,8.246-2.041c1.19-1.02,1.785-2.719,1.785-4.504c0-3.826-2.55-5.441-7.906-6.717l-4.93-1.273
		c-4.42-1.105-7.311-2.297-9.181-4.166c-2.04-2.041-2.975-4.76-2.975-7.651c0-3.57,1.275-6.631,3.74-8.671
		c2.975-2.55,7.055-3.485,12.241-3.485c3.4,0,8.501,0.426,11.646,1.19c1.36,0.34,1.615,0.936,1.615,1.955v8.246h-5.101
		c-0.425-1.021-0.935-3.74-1.105-5.44c-2.04-0.255-4.675-0.426-6.971-0.426c-6.375,0-9.776,2.041-9.776,6.121
		c0,3.485,2.55,5.016,7.906,6.375l5.101,1.276c4.675,1.189,7.226,2.465,9.096,4.334c2.04,2.041,2.975,4.762,2.975,7.906
		c0,3.74-1.275,6.801-3.57,8.842c-2.805,2.465-7.141,3.654-12.751,3.654c-4.42,0-9.691-0.596-13.091-1.529
		c-1.275-0.34-1.53-0.936-1.53-1.955v-8.672H521.169z"/>
	<path fill="#FFFFFF" d="M559.164,68.66c1.955-0.596,4.76-1.105,6.886-1.19V78.35h11.306v5.271h-11.306v23.461
		c0,3.146,0.17,5.016,1.19,6.291c0.935,1.189,2.55,1.785,5.61,1.785h7.736v4.506c-2.295,0.85-6.375,1.529-9.351,1.529
		c-4.25,0-7.14-1.02-9.01-2.805c-2.21-2.125-3.061-5.186-3.061-10.627V83.621h-7.226v-4.08l7.226-1.275V68.66z"/>
	<path fill="#FFFFFF" d="M599.708,121.193c-7.651,0-13.941-4.25-13.941-13.092c0-3.824,1.19-6.885,3.315-9.01
		c2.805-2.891,7.565-4.25,13.941-4.25c3.061,0,6.206,0.17,9.266,0.34v-3.655c0-3.4-0.595-5.101-1.871-6.29
		c-1.445-1.36-3.825-1.785-7.82-1.785h-12.921V79.03c4.42-1.189,10.456-1.87,15.046-1.87c5.355,0,9.096,1.36,11.476,3.825
		c2.04,2.126,2.975,5.016,2.975,9.521v24.312h5.61v5.1c-2.89,0.34-5.61,0.596-7.82,0.596c-2.805,0-4.081-1.189-4.505-2.975
		C608.804,119.664,604.214,121.193,599.708,121.193z M612.29,100.281h-8.501c-3.91,0-6.8,0.596-8.5,1.871
		c-1.615,1.189-2.465,3.061-2.465,5.609c0,4.336,2.38,7.396,8.671,7.396c3.485,0,7.565-0.68,10.796-1.871V100.281z"/>
	<path fill="#FFFFFF" d="M637.362,109.037c0.34,1.021,0.935,3.91,1.105,5.695c1.785,0.51,5.61,0.936,8.331,0.936
		c3.825,0,6.545-0.596,8.246-2.041c1.19-1.02,1.785-2.719,1.785-4.504c0-3.826-2.55-5.441-7.906-6.717l-4.93-1.273
		c-4.42-1.105-7.311-2.297-9.181-4.166c-2.04-2.041-2.975-4.76-2.975-7.651c0-3.57,1.275-6.631,3.74-8.671
		c2.975-2.55,7.055-3.485,12.241-3.485c3.4,0,8.501,0.426,11.646,1.19c1.36,0.34,1.615,0.936,1.615,1.955v8.246h-5.101
		c-0.425-1.021-0.935-3.74-1.105-5.44c-2.04-0.255-4.675-0.426-6.971-0.426c-6.375,0-9.776,2.041-9.776,6.121
		c0,3.485,2.55,5.016,7.906,6.375l5.101,1.276c4.675,1.189,7.226,2.465,9.096,4.334c2.04,2.041,2.975,4.762,2.975,7.906
		c0,3.74-1.275,6.801-3.57,8.842c-2.805,2.465-7.141,3.654-12.751,3.654c-4.42,0-9.691-0.596-13.091-1.529
		c-1.275-0.34-1.53-0.936-1.53-1.955v-8.672H637.362z"/>
</g>
<g>
	<g>
		<path fill="#FFFFFF" d="M1444.953,64.269l-58.216-30.012c-7.974-4.202-23.701,3.918-28.218,11.064
			c-2.015,3.191-1.87,5.496-1.87,6.798l0.72,67.771c0.052,1.433,1.865,3.379,3.413,4.333c3.229,1.978,52.144,32.514,53.527,33.38
			c0.746,0.467,1.63,0.683,2.496,0.683c0.739,0,1.485-0.165,2.161-0.5c1.467-0.72,2.383-2.122,2.383-3.652V82.959
			c0-1.485-0.865-2.856-2.274-3.596l-52.916-29.538c0.6-1.163,2.95-3.626,7.279-5.894c4.561-2.383,7.974-1.485,8.757-1.182
			c0,0,50.785,27.182,52.34,27.99c1.548,0.809,1.58,0.928,1.58,2.313v67.541c0,3.368,3.424,4.752,5.933,4.752
			s5.181-2.459,5.181-4.752v-72.73C1447.228,66.38,1446.356,65.008,1444.953,64.269L1444.953,64.269z"/>
	</g>
</g>
</svg>
