<?xml version="1.0" encoding="utf-8"?>
<!-- Generator: Adobe Illustrator 17.0.0, SVG Export Plug-In . SVG Version: 6.00 Build 0)  -->
<!DOCTYPE svg PUBLIC "-//W3C//DTD SVG 1.1//EN" "http://www.w3.org/Graphics/SVG/1.1/DTD/svg11.dtd">
<svg version="1.1" id="Layer_1" xmlns="http://www.w3.org/2000/svg" xmlns:xlink="http://www.w3.org/1999/xlink" x="0px" y="0px"
	 width="1500px" height="191px" viewBox="0 0 1500 191" enable-background="new 0 0 1500 191" xml:space="preserve">
<rect fill="#00587E" width="1304.035" height="191"/>
<rect x="1304" fill="#29C0D3" width="196" height="191"/>
<g enable-background="new    ">
	<path fill="#FFFFFF" d="M67.698,120.004v-5.611h5.865V67.469h-5.865v-5.61h39.188c1.7,0,1.955,0.34,1.955,1.105v12.495h-5.015
		c-0.765-2.04-1.36-5.44-1.36-7.99H80.959v19.892H97.28c1.105,0,1.36,0.085,1.36,0.765v5.271H80.959v20.997h21.932
		c0-2.549,0.595-6.035,1.36-8.076h5.016v12.582c0,0.766-0.255,1.105-1.955,1.105H67.698z"/>
	<path fill="#FFFFFF" d="M161.372,114.818v5.1c-1.87,0.17-5.696,0.51-7.651,0.51c-1.7,0-2.975-0.34-3.825-1.189
		c-0.68-0.68-0.935-1.699-0.935-3.4V92.376c0-3.485-0.51-5.61-1.87-6.971c-1.36-1.36-3.74-1.87-6.886-1.87
		c-3.145,0-7.141,0.595-11.476,1.615v34.853h-6.886V83.621h-5.78v-5.016c2.89-0.34,5.78-0.595,7.99-0.595
		c2.806,0,4.081,0.68,4.59,2.635c4.166-2.04,9.011-3.485,13.771-3.485c4.76,0,8.331,1.36,10.456,3.655
		c2.125,2.296,2.975,5.271,2.975,9.946v24.057H161.372z"/>
	<path fill="#FFFFFF" d="M171.907,68.66c1.955-0.596,4.76-1.105,6.886-1.19V78.35h11.306v5.271h-11.306v23.461
		c0,3.146,0.17,5.016,1.19,6.291c0.935,1.189,2.55,1.785,5.61,1.785h7.736v4.506c-2.295,0.85-6.375,1.529-9.351,1.529
		c-4.25,0-7.141-1.02-9.011-2.805c-2.21-2.125-3.061-5.186-3.061-10.627V83.621h-7.226v-4.08l7.226-1.275V68.66z"/>
	<path fill="#FFFFFF" d="M209.647,120.004h-6.886V83.621h-5.78v-5.016c2.89-0.34,5.78-0.595,7.99-0.595
		c2.806,0,4.25,0.595,4.59,3.315c3.4-2.04,8.756-4.166,11.986-4.166c1.36,0,2.04,0.426,2.04,1.785v5.186h-2.21
		c-5.016,0-8.076,0.255-11.731,1.105V120.004z"/>
	<path fill="#FFFFFF" d="M234.042,101.303c0.17,4.504,1.105,7.82,3.315,10.115c2.38,2.551,6.12,3.74,12.836,3.74h10.541v4.25
		c-3.655,1.02-8.84,1.785-13.091,1.785c-7.056,0-12.241-1.955-15.386-5.355c-3.655-3.91-5.355-9.775-5.355-16.746
		c0-13.006,6.545-21.932,18.191-21.932c11.136,0,17.256,8.076,17.256,20.913v2.465c0,0.596-0.255,0.766-0.935,0.766H234.042z
		 M255.804,95.862c-0.595-8.076-3.825-12.921-10.711-12.921c-7.396,0-10.711,5.865-10.966,12.921H255.804z"/>
	<path fill="#FFFFFF" d="M274.586,68.66c1.955-0.596,4.76-1.105,6.886-1.19V78.35h11.306v5.271h-11.306v23.461
		c0,3.146,0.17,5.016,1.19,6.291c0.935,1.189,2.55,1.785,5.61,1.785h7.736v4.506c-2.295,0.85-6.375,1.529-9.351,1.529
		c-4.25,0-7.14-1.02-9.01-2.805c-2.21-2.125-3.061-5.186-3.061-10.627V83.621h-7.226v-4.08l7.226-1.275V68.66z"/>
	<path fill="#FFFFFF" d="M307.566,101.303c0.17,4.504,1.105,7.82,3.315,10.115c2.38,2.551,6.12,3.74,12.836,3.74h10.541v4.25
		c-3.655,1.02-8.84,1.785-13.091,1.785c-7.056,0-12.241-1.955-15.386-5.355c-3.655-3.91-5.355-9.775-5.355-16.746
		c0-13.006,6.545-21.932,18.191-21.932c11.136,0,17.256,8.076,17.256,20.913v2.465c0,0.596-0.255,0.766-0.935,0.766H307.566z
		 M329.328,95.862c-0.595-8.076-3.825-12.921-10.711-12.921c-7.396,0-10.711,5.865-10.966,12.921H329.328z"/>
	<path fill="#FFFFFF" d="M387.469,114.818v5.1c-1.87,0.17-5.696,0.51-7.651,0.51c-1.7,0-2.975-0.34-3.825-1.189
		c-0.68-0.68-0.935-1.699-0.935-3.4V92.376c0-3.485-0.51-5.61-1.87-6.971c-1.36-1.36-3.74-1.87-6.886-1.87
		c-3.145,0-7.141,0.595-11.476,1.615v34.853h-6.886V83.621h-5.78v-5.016c2.89-0.34,5.78-0.595,7.99-0.595
		c2.806,0,4.081,0.68,4.59,2.635c4.166-2.04,9.011-3.485,13.771-3.485c4.76,0,8.331,1.36,10.456,3.655
		c2.125,2.296,2.975,5.271,2.975,9.946v24.057H387.469z"/>
	<path fill="#FFFFFF" d="M404.976,120.004h-6.886V83.621h-5.95V78.52c1.87-0.17,6.12-0.51,8.076-0.51c1.7,0,2.975,0.34,3.825,1.19
		c0.68,0.68,0.935,1.699,0.935,3.399V120.004z M400.895,69.764c-2.55,0-4.165-1.274-4.165-4.505v-0.255
		c0-3.23,1.615-4.506,4.165-4.506h0.51c2.55,0,4.166,1.275,4.166,4.506v0.255c0,3.23-1.615,4.505-4.166,4.505H400.895z"/>
	<path fill="#FFFFFF" d="M471.109,92.376c0-3.485-0.51-5.61-1.87-6.971c-1.36-1.36-3.825-1.87-6.46-1.87
		c-2.976,0-6.546,0.425-11.136,1.785c0.51,1.53,0.68,3.4,0.68,5.695v28.988h-6.886V92.376c0-3.485-0.51-5.61-1.87-6.971
		c-1.36-1.36-3.825-1.87-6.46-1.87c-3.315,0-6.8,0.51-10.625,1.615v34.853h-6.886V83.621h-5.78v-5.016
		c2.89-0.34,5.78-0.595,7.99-0.595c2.806,0,4.081,0.765,4.591,2.72c3.4-1.955,8.331-3.57,12.836-3.57
		c4.25,0,8.076,1.19,10.541,4.251c5.696-2.891,10.626-4.251,15.131-4.251c4.25,0,7.991,1.36,10.116,3.655
		c2.125,2.296,2.975,5.271,2.975,9.946v24.057h5.525v5.1c-1.87,0.17-5.695,0.51-7.65,0.51c-1.7,0-2.975-0.34-3.825-1.189
		c-0.68-0.68-0.935-1.699-0.935-3.4V92.376z"/>
	<path fill="#FFFFFF" d="M501.025,120.004h-6.886V83.621h-5.95V78.52c1.87-0.17,6.12-0.51,8.076-0.51c1.7,0,2.975,0.34,3.825,1.19
		c0.68,0.68,0.935,1.699,0.935,3.399V120.004z M496.944,69.764c-2.55,0-4.165-1.274-4.165-4.505v-0.255
		c0-3.23,1.615-4.506,4.165-4.506h0.51c2.55,0,4.166,1.275,4.166,4.506v0.255c0,3.23-1.615,4.505-4.166,4.505H496.944z"/>
	<path fill="#FFFFFF" d="M518.279,101.303c0.17,4.504,1.105,7.82,3.315,10.115c2.38,2.551,6.12,3.74,12.836,3.74h10.541v4.25
		c-3.655,1.02-8.84,1.785-13.091,1.785c-7.056,0-12.241-1.955-15.386-5.355c-3.655-3.91-5.355-9.775-5.355-16.746
		c0-13.006,6.545-21.932,18.191-21.932c11.136,0,17.256,8.076,17.256,20.913v2.465c0,0.596-0.255,0.766-0.935,0.766H518.279z
		 M540.041,95.862c-0.595-8.076-3.825-12.921-10.711-12.921c-7.396,0-10.711,5.865-10.966,12.921H540.041z"/>
	<path fill="#FFFFFF" d="M598.182,114.818v5.1c-1.87,0.17-5.696,0.51-7.651,0.51c-1.7,0-2.975-0.34-3.825-1.189
		c-0.68-0.68-0.935-1.699-0.935-3.4V92.376c0-3.485-0.51-5.61-1.87-6.971c-1.36-1.36-3.74-1.87-6.886-1.87
		c-3.145,0-7.141,0.595-11.476,1.615v34.853h-6.886V83.621h-5.78v-5.016c2.89-0.34,5.78-0.595,7.99-0.595
		c2.806,0,4.081,0.68,4.591,2.635c4.165-2.04,9.01-3.485,13.771-3.485c4.76,0,8.331,1.36,10.456,3.655
		c2.125,2.296,2.976,5.271,2.976,9.946v24.057H598.182z"/>
	<path fill="#FFFFFF" d="M608.718,68.66c1.955-0.596,4.76-1.105,6.886-1.19V78.35h11.306v5.271h-11.306v23.461
		c0,3.146,0.17,5.016,1.19,6.291c0.935,1.189,2.55,1.785,5.61,1.785h7.736v4.506c-2.295,0.85-6.375,1.529-9.351,1.529
		c-4.25,0-7.141-1.02-9.011-2.805c-2.21-2.125-3.061-5.186-3.061-10.627V83.621h-7.226v-4.08l7.226-1.275V68.66z"/>
	<path fill="#FFFFFF" d="M653.598,121.193c-12.411,0-19.042-8.33-19.042-22.016c0-13.687,6.63-22.018,19.042-22.018
		s19.042,8.331,19.042,22.018C672.64,112.863,666.009,121.193,653.598,121.193z M653.598,83.281
		c-8.585,0-11.901,5.695-11.901,15.897c0,10.199,3.315,15.895,11.901,15.895s11.901-5.695,11.901-15.895
		C665.499,88.976,662.184,83.281,653.598,83.281z"/>
</g>
<g>
	<path fill="#FFFFFF" d="M1440.949,33.037h-77.948c-12.901,0-23.365,10.465-23.365,23.365v77.948
		c0,12.949,10.464,23.413,23.365,23.413h77.948c12.949,0,23.414-10.464,23.414-23.413V56.402
		C1464.363,43.502,1453.899,33.037,1440.949,33.037L1440.949,33.037z M1440.307,109.348c-0.419,5.213-4.375,11.839-9.86,12.793
		c-17.655,1.364-38.594,1.179-56.902,0c-5.671-0.731-9.432-7.62-9.851-12.793c-0.877-10.883-0.877-17.09,0-27.974
		c0.419-5.213,4.258-12.024,9.851-12.676c18.084-1.52,39.13-1.179,56.902,0c6.323,0.263,9.441,6.772,9.86,11.994
		C1441.183,91.576,1441.183,98.465,1440.307,109.348L1440.307,109.348z"/>
	<path fill="#FFFFFF" d="M1394.22,110.985l23.365-15.609l-23.365-15.56V110.985z"/>
</g>
</svg>
