<?xml version="1.0" encoding="utf-8"?>
<!-- Generator: Adobe Illustrator 17.0.0, SVG Export Plug-In . SVG Version: 6.00 Build 0)  -->
<!DOCTYPE svg PUBLIC "-//W3C//DTD SVG 1.1//EN" "http://www.w3.org/Graphics/SVG/1.1/DTD/svg11.dtd">
<svg version="1.1" id="Layer_1" xmlns="http://www.w3.org/2000/svg" xmlns:xlink="http://www.w3.org/1999/xlink" x="0px" y="0px"
	 width="1500px" height="191px" viewBox="0 0 1500 191" enable-background="new 0 0 1500 191" xml:space="preserve">
<rect fill="#00587E" width="1304.035" height="191"/>
<rect x="1304" fill="#29C0D3" width="196" height="191"/>
<g enable-background="new    ">
	<path fill="#FFFFFF" d="M100.766,67.469v-5.61h19.126v5.61h-5.865v46.923h5.865v5.611h-19.126v-5.611h5.866V93.396H80.959v20.997
		h5.866v5.611H67.698v-5.611h5.865V67.469h-5.865v-5.61h19.126v5.61h-5.866v19.892h25.672V67.469H100.766z"/>
	<path fill="#FFFFFF" d="M147.854,121.193c-12.411,0-19.042-8.33-19.042-22.016c0-13.687,6.63-22.018,19.042-22.018
		s19.042,8.331,19.042,22.018C166.896,112.863,160.265,121.193,147.854,121.193z M147.854,83.281
		c-8.585,0-11.901,5.695-11.901,15.897c0,10.199,3.315,15.895,11.901,15.895s11.901-5.695,11.901-15.895
		C159.755,88.976,156.439,83.281,147.854,83.281z"/>
	<path fill="#FFFFFF" d="M192.563,108.443c-2.635,0-5.015-0.342-7.056-1.021l-1.53,6.377h12.921c5.866,0,9.776,1.02,12.241,3.314
		c2.21,2.041,3.4,5.1,3.4,9.18c0,9.947-7.905,14.027-19.551,14.027h-0.935c-11.221,0-18.021-5.102-18.021-13.092
		c0-3.145,1.19-6.035,3.74-8.926c-0.51-0.594-0.68-1.359-0.68-2.295c0-2.381,1.615-5.865,4.76-10.201
		c-4.165-2.719-6.29-7.225-6.29-13.005c0-9.521,5.865-15.642,17.001-15.642c1.36,0,2.635,0.17,3.825,0.341l4.081-10.966
		c1.955,0.51,4.59,1.529,6.121,2.55l-5.355,9.69c5.44,2.466,8.331,7.396,8.331,14.026
		C209.565,102.322,203.7,108.443,192.563,108.443z M181.598,120.088v0.17c-0.425,2.041-0.765,3.826-0.765,5.525
		c0,5.355,3.4,8.502,12.071,8.502h0.17c8.67,0,12.751-2.381,12.751-7.566c0-1.955-0.595-3.824-1.785-4.846
		c-1.445-1.275-3.74-1.699-7.565-1.699h-13.516C182.448,120.174,182.023,120.174,181.598,120.088z M192.563,82.856
		c-7.82,0-10.371,3.825-10.371,9.945c0,6.121,2.55,9.945,10.371,9.945c7.821,0,10.371-3.824,10.371-9.945
		C202.935,86.681,200.384,82.856,192.563,82.856z"/>
	<path fill="#FFFFFF" d="M232.002,121.193c-7.651,0-13.941-4.25-13.941-13.092c0-3.824,1.19-6.885,3.315-9.01
		c2.805-2.891,7.565-4.25,13.941-4.25c3.061,0,6.206,0.17,9.266,0.34v-3.655c0-3.4-0.595-5.101-1.87-6.29
		c-1.445-1.36-3.826-1.785-7.821-1.785h-12.921V79.03c4.42-1.189,10.456-1.87,15.046-1.87c5.355,0,9.096,1.36,11.476,3.825
		c2.04,2.126,2.975,5.016,2.975,9.521v24.312h5.61v5.1c-2.89,0.34-5.61,0.596-7.82,0.596c-2.805,0-4.081-1.189-4.505-2.975
		C241.098,119.664,236.507,121.193,232.002,121.193z M244.583,100.281h-8.501c-3.91,0-6.8,0.596-8.5,1.871
		c-1.615,1.189-2.465,3.061-2.465,5.609c0,4.336,2.38,7.396,8.671,7.396c3.485,0,7.565-0.68,10.796-1.871V100.281z"/>
	<path fill="#FFFFFF" d="M274.161,120.004h-6.886V83.621h-5.78v-5.016c2.89-0.34,5.78-0.595,7.99-0.595
		c2.806,0,4.25,0.595,4.591,3.315c3.4-2.04,8.755-4.166,11.986-4.166c1.36,0,2.04,0.426,2.04,1.785v5.186h-2.21
		c-5.016,0-8.076,0.255-11.731,1.105V120.004z"/>
	<path fill="#FFFFFF" d="M319.805,105.977c0,3.486,0.51,5.611,1.87,6.971c1.36,1.361,3.74,1.871,6.886,1.871
		c3.145,0,6.971-0.51,11.136-1.615V83.621h-5.525V78.35h12.411v44.544c0,6.459-1.445,10.539-4.166,13.346
		c-2.72,2.805-6.971,4.08-12.666,4.08c-3.06,0-7.141-0.426-10.116-1.02v-4.762h7.991c4.76,0,7.735-0.764,9.521-2.549
		c1.956-1.871,2.55-4.676,2.55-9.777v-4.42c-4.165,2.041-8.756,3.4-13.346,3.4c-4.76,0-8.331-1.359-10.456-3.654
		c-2.125-2.297-2.975-5.271-2.975-9.947V83.621h-5.525V78.52c1.87-0.17,5.78-0.51,7.65-0.51c1.7,0,2.975,0.34,3.825,1.19
		c0.68,0.68,0.935,1.699,0.935,3.399V105.977z"/>
	<path fill="#FFFFFF" d="M391.884,121.193c-12.411,0-19.042-8.33-19.042-22.016c0-13.687,6.63-22.018,19.042-22.018
		s19.042,8.331,19.042,22.018C410.925,112.863,404.295,121.193,391.884,121.193z M391.884,83.281
		c-8.585,0-11.901,5.695-11.901,15.897c0,10.199,3.315,15.895,11.901,15.895c8.586,0,11.901-5.695,11.901-15.895
		C403.785,88.976,400.47,83.281,391.884,83.281z"/>
	<path fill="#FFFFFF" d="M457.08,120.004h-6.886V83.621h-20.062v36.383h-6.885V83.621h-7.226v-4.08l7.226-1.275v-5.61
		c0-5.101,1.19-8.586,3.485-10.881c2.38-2.38,5.611-3.57,10.541-3.57c2.38,0,5.61,0.595,7.396,1.105v4.76h-4.59
		c-4.335,0-6.46,0.34-8.076,1.7c-1.445,1.275-1.87,3.57-1.87,7.311v5.271h22.442c3.485,0,4.505,1.19,4.505,4.165V120.004z
		 M453,68.66c-2.55,0-4.165-1.275-4.165-4.506v-0.255c0-3.23,1.615-4.505,4.165-4.505h0.51c2.55,0,4.166,1.274,4.166,4.505v0.255
		c0,3.23-1.615,4.506-4.166,4.506H453z"/>
	<path fill="#FFFFFF" d="M499.664,119.494c-3.315,0.934-8.161,1.699-11.646,1.699c-6.63,0-11.986-2.039-15.471-5.865
		c-3.4-3.74-5.355-9.352-5.355-16.236c0-7.226,2.295-12.836,5.866-16.492c3.485-3.57,9.096-5.44,15.131-5.44
		c3.996,0,7.651,0.596,10.201,1.19c1.105,0.255,1.36,0.68,1.36,1.785v9.436h-5.271c-0.425-1.02-1.105-4.42-1.19-6.375
		c-1.36-0.17-2.635-0.255-4.166-0.255c-4.76,0-8.416,1.02-10.796,3.484c-2.465,2.551-3.995,6.801-3.995,12.581
		c0,4.506,0.85,9.352,3.655,12.242c2.72,2.805,6.8,3.91,12.921,3.91h8.756V119.494z"/>
	<path fill="#FFFFFF" d="M518.362,120.004h-6.886V83.621h-5.95V78.52c1.87-0.17,6.12-0.51,8.076-0.51c1.7,0,2.975,0.34,3.825,1.19
		c0.68,0.68,0.935,1.699,0.935,3.399V120.004z M514.281,69.764c-2.55,0-4.165-1.274-4.165-4.505v-0.255
		c0-3.23,1.615-4.506,4.165-4.506h0.51c2.55,0,4.166,1.275,4.166,4.506v0.255c0,3.23-1.615,4.505-4.166,4.505H514.281z"/>
	<path fill="#FFFFFF" d="M572.509,114.818v5.1c-1.87,0.17-5.696,0.51-7.651,0.51c-1.7,0-2.975-0.34-3.825-1.189
		c-0.68-0.68-0.935-1.699-0.935-3.4V92.376c0-3.485-0.51-5.61-1.87-6.971c-1.36-1.36-3.74-1.87-6.886-1.87
		c-3.145,0-7.141,0.595-11.476,1.615v34.853h-6.886V83.621h-5.78v-5.016c2.89-0.34,5.78-0.595,7.99-0.595
		c2.806,0,4.081,0.68,4.59,2.635c4.166-2.04,9.011-3.485,13.771-3.485c4.76,0,8.331,1.36,10.456,3.655
		c2.125,2.296,2.975,5.271,2.975,9.946v24.057H572.509z"/>
	<path fill="#FFFFFF" d="M592.566,121.193c-7.651,0-13.941-4.25-13.941-13.092c0-3.824,1.19-6.885,3.315-9.01
		c2.805-2.891,7.565-4.25,13.941-4.25c3.061,0,6.206,0.17,9.266,0.34v-3.655c0-3.4-0.595-5.101-1.871-6.29
		c-1.445-1.36-3.825-1.785-7.82-1.785h-12.921V79.03c4.42-1.189,10.456-1.87,15.046-1.87c5.355,0,9.096,1.36,11.476,3.825
		c2.04,2.126,2.975,5.016,2.975,9.521v24.312h5.61v5.1c-2.89,0.34-5.61,0.596-7.82,0.596c-2.805,0-4.081-1.189-4.505-2.975
		C601.662,119.664,597.071,121.193,592.566,121.193z M605.147,100.281h-8.501c-3.91,0-6.8,0.596-8.5,1.871
		c-1.615,1.189-2.465,3.061-2.465,5.609c0,4.336,2.38,7.396,8.671,7.396c3.485,0,7.565-0.68,10.796-1.871V100.281z"/>
</g>
<g>
	<path fill="#FFFFFF" d="M1348.257,154.201c0,0-0.128,3.188,2.972,3.188c3.875,0,35.859-0.054,35.859-0.054l0.054-29.383
		c0,0-0.506-4.839,4.212-4.839h14.874c5.553,0,5.209,4.839,5.209,4.839l-0.054,29.302h35.091c3.949,0,3.794-3.976,3.794-3.976
		V99.101l-49.493-44.014l-52.519,44.014v55.1H1348.257z"/>
	<path fill="#FFFFFF" d="M1328.909,94.997c0,0,4.448,8.215,14.186,0l58.126-49.176l54.493,48.886c11.241,8.107,15.48,0,15.48,0
		l-69.973-63.389L1328.909,94.997z"/>
	<path fill="#FFFFFF" d="M1454.372,45.713h-14.004l0.054,17.01l13.95,11.848L1454.372,45.713L1454.372,45.713z"/>
</g>
</svg>
