<?xml version="1.0" encoding="utf-8"?>
<!-- Generator: Adobe Illustrator 17.0.0, SVG Export Plug-In . SVG Version: 6.00 Build 0)  -->
<!DOCTYPE svg PUBLIC "-//W3C//DTD SVG 1.1//EN" "http://www.w3.org/Graphics/SVG/1.1/DTD/svg11.dtd">
<svg version="1.1" id="Layer_1" xmlns="http://www.w3.org/2000/svg" xmlns:xlink="http://www.w3.org/1999/xlink" x="0px" y="0px"
	 width="1500px" height="191px" viewBox="0 0 1500 191" enable-background="new 0 0 1500 191" xml:space="preserve">
<rect fill="#00587E" width="1304.035" height="191"/>
<rect x="1304" fill="#29C0D3" width="196" height="191"/>
<g enable-background="new    ">
	<path fill="#FFFFFF" d="M100.086,102.576H77.729l-3.74,11.816h4.675v5.611H62.428v-5.611h4.845l17.256-52.534h6.375
		c1.53,0,1.87,0.425,2.38,1.785l18.531,50.749h4.761v5.611H98.98v-5.611h5.186L100.086,102.576z M79.599,96.711h18.446l-9.69-27.202
		L79.599,96.711z"/>
	<path fill="#FFFFFF" d="M131.023,120.004h-6.886V64.069h-5.78v-5.101c1.87-0.17,5.95-0.51,7.905-0.51c1.7,0,2.976,0.34,3.826,1.19
		c0.68,0.68,0.935,1.7,0.935,3.4V120.004z"/>
	<path fill="#FFFFFF" d="M152.782,120.004h-6.886V83.621h-5.95V78.52c1.87-0.17,6.12-0.51,8.076-0.51c1.7,0,2.975,0.34,3.825,1.19
		c0.68,0.68,0.935,1.699,0.935,3.399V120.004z M148.702,69.764c-2.55,0-4.165-1.274-4.165-4.505v-0.255
		c0-3.23,1.615-4.506,4.165-4.506h0.51c2.55,0,4.166,1.275,4.166,4.506v0.255c0,3.23-1.615,4.505-4.166,4.505H148.702z"/>
	<path fill="#FFFFFF" d="M218.916,92.376c0-3.485-0.51-5.61-1.87-6.971c-1.36-1.36-3.825-1.87-6.46-1.87
		c-2.976,0-6.546,0.425-11.136,1.785c0.51,1.53,0.68,3.4,0.68,5.695v28.988h-6.886V92.376c0-3.485-0.51-5.61-1.87-6.971
		c-1.36-1.36-3.825-1.87-6.46-1.87c-3.315,0-6.8,0.51-10.625,1.615v34.853h-6.886V83.621h-5.78v-5.016
		c2.89-0.34,5.78-0.595,7.99-0.595c2.806,0,4.081,0.765,4.591,2.72c3.4-1.955,8.331-3.57,12.836-3.57
		c4.25,0,8.076,1.19,10.541,4.251c5.696-2.891,10.626-4.251,15.131-4.251c4.25,0,7.991,1.36,10.116,3.655
		c2.125,2.296,2.975,5.271,2.975,9.946v24.057h5.525v5.1c-1.87,0.17-5.695,0.51-7.65,0.51c-1.7,0-2.975-0.34-3.825-1.189
		c-0.68-0.68-0.935-1.699-0.935-3.4V92.376z"/>
	<path fill="#FFFFFF" d="M244.326,101.303c0.17,4.504,1.105,7.82,3.315,10.115c2.38,2.551,6.12,3.74,12.836,3.74h10.541v4.25
		c-3.655,1.02-8.84,1.785-13.091,1.785c-7.056,0-12.241-1.955-15.386-5.355c-3.655-3.91-5.355-9.775-5.355-16.746
		c0-13.006,6.545-21.932,18.191-21.932c11.136,0,17.256,8.076,17.256,20.913v2.465c0,0.596-0.255,0.766-0.935,0.766H244.326z
		 M266.088,95.862c-0.595-8.076-3.825-12.921-10.711-12.921c-7.396,0-10.711,5.865-10.966,12.921H266.088z"/>
	<path fill="#FFFFFF" d="M324.229,114.818v5.1c-1.87,0.17-5.696,0.51-7.651,0.51c-1.7,0-2.975-0.34-3.825-1.189
		c-0.68-0.68-0.935-1.699-0.935-3.4V92.376c0-3.485-0.51-5.61-1.87-6.971c-1.36-1.36-3.74-1.87-6.886-1.87
		c-3.145,0-7.141,0.595-11.476,1.615v34.853h-6.886V83.621h-5.78v-5.016c2.89-0.34,5.78-0.595,7.99-0.595
		c2.806,0,4.081,0.68,4.59,2.635c4.166-2.04,9.011-3.485,13.771-3.485c4.76,0,8.331,1.36,10.456,3.655
		c2.125,2.296,2.975,5.271,2.975,9.946v24.057H324.229z"/>
	<path fill="#FFFFFF" d="M334.765,68.66c1.955-0.596,4.76-1.105,6.886-1.19V78.35h11.306v5.271H341.65v23.461
		c0,3.146,0.17,5.016,1.19,6.291c0.935,1.189,2.55,1.785,5.61,1.785h7.736v4.506c-2.295,0.85-6.375,1.529-9.351,1.529
		c-4.25,0-7.141-1.02-9.011-2.805c-2.21-2.125-3.061-5.186-3.061-10.627V83.621h-7.226v-4.08l7.226-1.275V68.66z"/>
	<path fill="#FFFFFF" d="M379.646,121.193c-12.411,0-19.042-8.33-19.042-22.016c0-13.687,6.63-22.018,19.042-22.018
		s19.042,8.331,19.042,22.018C398.687,112.863,392.057,121.193,379.646,121.193z M379.646,83.281
		c-8.585,0-11.901,5.695-11.901,15.897c0,10.199,3.315,15.895,11.901,15.895c8.586,0,11.901-5.695,11.901-15.895
		C391.546,88.976,388.231,83.281,379.646,83.281z"/>
	<path fill="#FFFFFF" d="M412.879,109.037c0.34,1.021,0.935,3.91,1.105,5.695c1.785,0.51,5.61,0.936,8.331,0.936
		c3.825,0,6.545-0.596,8.246-2.041c1.19-1.02,1.785-2.719,1.785-4.504c0-3.826-2.55-5.441-7.906-6.717l-4.93-1.273
		c-4.42-1.105-7.311-2.297-9.181-4.166c-2.04-2.041-2.975-4.76-2.975-7.651c0-3.57,1.275-6.631,3.74-8.671
		c2.975-2.55,7.055-3.485,12.241-3.485c3.4,0,8.501,0.426,11.646,1.19c1.36,0.34,1.615,0.936,1.615,1.955v8.246h-5.101
		c-0.425-1.021-0.935-3.74-1.105-5.44c-2.04-0.255-4.675-0.426-6.971-0.426c-6.375,0-9.776,2.041-9.776,6.121
		c0,3.485,2.55,5.016,7.906,6.375l5.101,1.276c4.675,1.189,7.226,2.465,9.096,4.334c2.04,2.041,2.975,4.762,2.975,7.906
		c0,3.74-1.275,6.801-3.57,8.842c-2.805,2.465-7.141,3.654-12.751,3.654c-4.42,0-9.691-0.596-13.091-1.529
		c-1.275-0.34-1.53-0.936-1.53-1.955v-8.672H412.879z"/>
	<path fill="#FFFFFF" d="M473.397,105.977c0,3.486,0.51,5.611,1.87,6.971c1.36,1.361,3.74,1.871,6.886,1.871
		c3.145,0,6.971-0.51,11.136-1.615V83.621h-5.525V78.35h12.411v44.544c0,6.459-1.445,10.539-4.166,13.346
		c-2.72,2.805-6.971,4.08-12.666,4.08c-3.06,0-7.141-0.426-10.116-1.02v-4.762h7.991c4.76,0,7.735-0.764,9.521-2.549
		c1.956-1.871,2.55-4.676,2.55-9.777v-4.42c-4.165,2.041-8.756,3.4-13.346,3.4c-4.76,0-8.331-1.359-10.456-3.654
		c-2.125-2.297-2.975-5.271-2.975-9.947V83.621h-5.525V78.52c1.87-0.17,5.78-0.51,7.65-0.51c1.7,0,2.975,0.34,3.825,1.19
		c0.68,0.68,0.935,1.699,0.935,3.399V105.977z"/>
	<path fill="#FFFFFF" d="M536.891,80.135c3.74-1.785,8.161-2.976,12.156-2.976c5.271,0,8.926,2.041,11.391,5.355
		c2.89,3.996,4.335,9.606,4.335,16.407c0,13.941-5.185,22.271-15.641,22.271c-4.335,0-9.096-1.615-13.176-4.08
		c-0.085,0.85-0.595,2.295-0.936,2.891h-5.015V64.069h-5.78v-5.101c1.87-0.17,5.95-0.51,7.905-0.51c1.7,0,2.976,0.34,3.826,1.19
		c0.68,0.68,0.935,1.7,0.935,3.4V80.135z M536.891,85.066v27.711c2.975,1.275,7.055,2.125,10.286,2.125
		c6.971,0,10.456-3.824,10.456-16.066c0-5.014-0.935-8.84-2.295-11.305c-1.7-2.976-4.335-4.08-8.246-4.08
		C543.521,83.451,539.951,84.215,536.891,85.066z"/>
	<path fill="#FFFFFF" d="M579.475,101.303c0.17,4.504,1.105,7.82,3.315,10.115c2.38,2.551,6.12,3.74,12.836,3.74h10.541v4.25
		c-3.655,1.02-8.84,1.785-13.091,1.785c-7.056,0-12.241-1.955-15.386-5.355c-3.655-3.91-5.355-9.775-5.355-16.746
		c0-13.006,6.545-21.932,18.191-21.932c11.136,0,17.256,8.076,17.256,20.913v2.465c0,0.596-0.255,0.766-0.935,0.766H579.475z
		 M601.237,95.862c-0.595-8.076-3.825-12.921-10.711-12.921c-7.396,0-10.711,5.865-10.966,12.921H601.237z"/>
	<path fill="#FFFFFF" d="M625.8,80.135c3.74-1.785,8.161-2.976,12.156-2.976c5.271,0,8.926,2.041,11.391,5.355
		c2.89,3.996,4.335,9.606,4.335,16.407c0,13.941-5.185,22.271-15.641,22.271c-4.335,0-9.096-1.615-13.176-4.08
		c-0.085,0.85-0.595,2.295-0.936,2.891h-5.015V64.069h-5.78v-5.101c1.87-0.17,5.95-0.51,7.905-0.51c1.7,0,2.976,0.34,3.826,1.19
		c0.68,0.68,0.935,1.7,0.935,3.4V80.135z M625.8,85.066v27.711c2.975,1.275,7.055,2.125,10.286,2.125
		c6.971,0,10.456-3.824,10.456-16.066c0-5.014-0.935-8.84-2.295-11.305c-1.7-2.976-4.335-4.08-8.246-4.08
		C632.431,83.451,628.86,84.215,625.8,85.066z"/>
	<path fill="#FFFFFF" d="M672.89,120.004h-6.886V83.621h-5.95V78.52c1.87-0.17,6.12-0.51,8.076-0.51c1.7,0,2.975,0.34,3.825,1.19
		c0.68,0.68,0.935,1.699,0.935,3.399V120.004z M668.809,69.764c-2.55,0-4.165-1.274-4.165-4.505v-0.255
		c0-3.23,1.615-4.506,4.165-4.506h0.51c2.55,0,4.166,1.275,4.166,4.506v0.255c0,3.23-1.615,4.505-4.166,4.505H668.809z"/>
	<path fill="#FFFFFF" d="M711.651,117.453c-3.996,2.211-8.416,3.74-12.496,3.74c-10.456,0-15.896-8.33-15.896-22.271
		c0-13.431,6.206-21.762,16.406-21.762c3.741,0,8.076,1.275,11.646,3.061V64.069h-5.78v-5.101c1.87-0.17,5.95-0.51,7.906-0.51
		c1.7,0,2.975,0.34,3.825,1.19c0.68,0.68,0.935,1.7,0.935,3.4v51.769h5.61v5.1c-2.89,0.34-5.61,0.596-7.821,0.596
		c-2.805,0-3.91-1.189-4.335-2.975V117.453z M711.311,112.947V84.981c-3.4-0.851-7.141-1.53-9.861-1.53
		c-7.65,0-11.051,5.186-11.051,15.385c0,12.242,3.655,16.066,10.626,16.066C704.085,114.902,708.335,114.139,711.311,112.947z"/>
	<path fill="#FFFFFF" d="M744.034,121.193c-7.651,0-13.941-4.25-13.941-13.092c0-3.824,1.19-6.885,3.315-9.01
		c2.805-2.891,7.565-4.25,13.941-4.25c3.061,0,6.206,0.17,9.266,0.34v-3.655c0-3.4-0.596-5.101-1.87-6.29
		c-1.445-1.36-3.826-1.785-7.821-1.785h-12.921V79.03c4.42-1.189,10.456-1.87,15.046-1.87c5.355,0,9.095,1.36,11.476,3.825
		c2.04,2.126,2.975,5.016,2.975,9.521v24.312h5.61v5.1c-2.89,0.34-5.61,0.596-7.82,0.596c-2.805,0-4.08-1.189-4.505-2.975
		C753.13,119.664,748.54,121.193,744.034,121.193z M756.615,100.281h-8.501c-3.91,0-6.8,0.596-8.5,1.871
		c-1.615,1.189-2.465,3.061-2.465,5.609c0,4.336,2.38,7.396,8.671,7.396c3.485,0,7.565-0.68,10.796-1.871V100.281z"/>
	<path fill="#FFFFFF" d="M781.688,109.037c0.34,1.021,0.936,3.91,1.105,5.695c1.785,0.51,5.61,0.936,8.33,0.936
		c3.825,0,6.546-0.596,8.246-2.041c1.189-1.02,1.785-2.719,1.785-4.504c0-3.826-2.551-5.441-7.906-6.717l-4.93-1.273
		c-4.421-1.105-7.311-2.297-9.181-4.166c-2.04-2.041-2.976-4.76-2.976-7.651c0-3.57,1.275-6.631,3.74-8.671
		c2.976-2.55,7.056-3.485,12.241-3.485c3.4,0,8.501,0.426,11.646,1.19c1.36,0.34,1.615,0.936,1.615,1.955v8.246h-5.101
		c-0.425-1.021-0.935-3.74-1.104-5.44c-2.04-0.255-4.676-0.426-6.971-0.426c-6.376,0-9.776,2.041-9.776,6.121
		c0,3.485,2.551,5.016,7.906,6.375l5.101,1.276c4.675,1.189,7.226,2.465,9.096,4.334c2.04,2.041,2.975,4.762,2.975,7.906
		c0,3.74-1.274,6.801-3.57,8.842c-2.805,2.465-7.141,3.654-12.751,3.654c-4.42,0-9.69-0.596-13.091-1.529
		c-1.275-0.34-1.53-0.936-1.53-1.955v-8.672H781.688z"/>
</g>
<g>
	<path fill="#FFFFFF" d="M1434.864,21.842c-8.911,0-16.36,6.911-16.983,15.806l-4.551,63.54c-0.204,2.771,0.75,5.509,2.644,7.546
		c1.895,2.037,4.551,3.198,7.322,3.198h0.269l-1.561,49.755c-0.078,2.131,0.733,4.136,2.213,5.647
		c1.479,1.544,3.516,2.343,5.651,2.343h6.523c4.348,0,7.962-3.423,7.962-7.77V31.283
		C1444.353,26.064,1440.087,21.842,1434.864,21.842L1434.864,21.842z"/>
	<path fill="#FFFFFF" d="M1397.336,21.957h-0.672c-1.573,0-2.799,1.178-2.799,2.767v28.013c0,2.486-2.086,4.506-4.568,4.506h-0.668
		c-2.469,0-4.584-2.021-4.584-4.506V24.723c0-1.573-1.194-2.767-2.787-2.767h-0.668c-1.589,0-2.848,1.178-2.848,2.767v28.013
		c0,2.486-2.037,4.506-4.519,4.506h-0.668c-2.486,0-4.413-2.021-4.413-4.506V24.723c0-1.573-1.365-2.767-2.958-2.767h-0.668
		c-1.593,0-2.913,1.178-2.913,2.767v42.356c0,5.22,4.25,9.343,9.453,9.343h1.259l-2.657,85.25c-0.065,2.115,0.729,4.136,2.213,5.664
		c1.479,1.528,3.516,2.343,5.648,2.343h6.271c2.135,0,4.172-0.815,5.652-2.343c1.479-1.528,2.277-3.565,2.212-5.696l-2.657-85.233
		h1.797c5.203,0,9.392-4.123,9.392-9.327V24.723C1400.168,23.134,1398.925,21.957,1397.336,21.957L1397.336,21.957z"/>
</g>
</svg>
