<?xml version="1.0" encoding="utf-8"?>
<!-- Generator: Adobe Illustrator 16.0.4, SVG Export Plug-In . SVG Version: 6.00 Build 0)  -->
<!DOCTYPE svg PUBLIC "-//W3C//DTD SVG 1.1//EN" "http://www.w3.org/Graphics/SVG/1.1/DTD/svg11.dtd">
<svg version="1.1" id="Layer_1" xmlns="http://www.w3.org/2000/svg" xmlns:xlink="http://www.w3.org/1999/xlink" x="0px" y="0px"
	 width="500px" height="500px" viewBox="0 0 500 500" enable-background="new 0 0 500 500" xml:space="preserve">
<rect fill="#00C6D7" width="500" height="500"/>
<g enable-background="new    ">
	<path fill="#FFFFFF" d="M90.34,268.189h21.926v4.968H84.024V224.62h27.816l-0.568,4.967H90.338v16.463h16.959v5.109H90.338v17.03
		H90.34L90.34,268.189z"/>
	<path fill="#FFFFFF" d="M132.7,251.656l7.806-13.271h6.458l-11.496,17.387l11.637,17.391h-6.671l-8.727-13.128l-7.806,13.128
		h-6.529l11.567-17.178l-11.709-17.6h6.599L132.7,251.656z"/>
	<path fill="#FFFFFF" d="M153.488,289.123v-50.739h4.897l0.284,2.556c3.619-2.412,7.664-3.548,10.857-3.548
		c9.011,0,13.34,7.167,13.34,18.238c0,13.058-5.252,18.521-13.554,18.521c-3.62,0-7.38-0.988-9.936-2.625v17.603L153.488,289.123
		L153.488,289.123z M159.378,267.125c2.059,1.208,5.465,2.129,8.445,2.129c6.314,0,8.87-3.761,8.87-13.695
		c0-8.869-2.625-13.125-8.444-13.125c-2.697,0-6.174,0.924-8.871,2.343V267.125L159.378,267.125z"/>
	<path fill="#FFFFFF" d="M216.355,272.802c-2.98,0.854-7.095,1.349-10.29,1.349c-5.392,0-9.579-1.349-12.417-4.188
		c-3.124-3.124-4.542-7.877-4.542-14.12c0-12.419,6.173-18.45,15.043-18.45c9.722,0,14.405,6.884,14.405,18.31v1.347
		c0,0.568-0.285,0.781-0.852,0.781H195.28c0,3.832,0.994,6.953,3.051,8.87c1.845,1.701,4.471,2.624,8.869,2.624
		c2.484,0,5.89-0.354,8.585-0.923L216.355,272.802z M212.736,253.499c-0.212-6.67-2.767-11.353-8.586-11.353
		c-5.89,0-8.799,4.327-8.87,11.353H212.736z"/>
	<path fill="#FFFFFF" d="M231.75,238.386l0.356,2.98c3.335-2.767,6.812-3.975,9.862-3.975c0.641,0,1.49,0.073,2.271,0.213v5.25
		c-0.78-0.072-2.058-0.14-3.051-0.14c-3.051,0-5.96,0.78-8.445,2.34v28.1h-5.89v-34.771L231.75,238.386L231.75,238.386z"/>
	<path fill="#FFFFFF" d="M253.532,231.787c-2.128,0-3.476-1.063-3.476-3.761v-0.142c0-2.697,1.348-3.761,3.476-3.761h0.354
		c2.131,0,3.479,1.064,3.479,3.761v0.142c0,2.697-1.348,3.761-3.479,3.761H253.532z M256.656,273.157h-5.891v-34.771h5.891V273.157z
		"/>
	<path fill="#FFFFFF" d="M292.134,272.802c-2.979,0.854-7.097,1.349-10.29,1.349c-5.393,0-9.578-1.349-12.418-4.188
		c-3.123-3.124-4.54-7.877-4.54-14.12c0-12.419,6.173-18.45,15.042-18.45c9.723,0,14.403,6.884,14.403,18.31v1.347
		c0,0.568-0.284,0.781-0.851,0.781h-22.424c0,3.832,0.988,6.953,3.051,8.87c1.845,1.701,4.471,2.624,8.869,2.624
		c2.479,0,5.889-0.354,8.586-0.923L292.134,272.802z M288.514,253.499c-0.211-6.67-2.767-11.353-8.584-11.353
		c-5.891,0-8.8,4.327-8.869,11.353H288.514z"/>
	<path fill="#FFFFFF" d="M307.527,238.386l0.279,2.556c3.618-2.199,7.947-3.548,11.993-3.548c3.765,0,6.74,0.994,8.729,3.052
		c1.917,1.916,2.91,4.753,2.91,9.083v23.629h-5.896v-22.921c0-2.979-0.496-4.683-1.7-5.889c-1.208-1.208-3.052-1.774-5.604-1.774
		c-3.123,0-6.883,0.923-9.723,2.27v28.314h-5.891v-34.771h4.896v-0.001H307.527z"/>
	<path fill="#FFFFFF" d="M365.355,273.016c-2.271,0.639-6.18,1.135-8.729,1.135c-5.677,0-9.792-1.418-12.631-4.321
		c-2.911-2.979-4.612-7.521-4.612-13.625c0-6.104,1.562-10.857,4.541-14.051c2.979-3.192,7.451-4.754,12.771-4.754
		c2.691,0,5.889,0.426,8.304,1.064l-0.354,4.542c-2.196-0.427-5.034-0.853-7.234-0.853c-8.159,0-11.854,4.755-11.854,13.98
		c0,4.398,0.994,7.729,2.91,9.938c1.987,2.271,4.967,3.267,9.229,3.267c2.343,0,5.464-0.354,7.234-0.711L365.355,273.016z"/>
	<path fill="#FFFFFF" d="M376.067,231.787c-2.135,0-3.479-1.063-3.479-3.761v-0.142c0-2.697,1.348-3.761,3.479-3.761h0.354
		c2.13,0,3.479,1.064,3.479,3.761v0.142c0,2.697-1.354,3.761-3.479,3.761H376.067z M379.189,273.157h-5.895v-34.771h5.895V273.157z"
		/>
	<path fill="#FFFFFF" d="M410.197,270.814c-3.051,1.983-6.741,3.336-10.934,3.336c-3.761,0-6.947-1.137-9.082-3.336
		c-1.699-1.773-2.768-4.256-2.768-7.521s1.136-5.816,2.979-7.523c2.628-2.41,6.742-3.332,11.778-3.332h7.237v-2.203
		c0-2.838-0.498-4.612-1.773-5.89c-1.486-1.42-3.761-2.058-7.231-2.058c-2.626,0-5.964,0.284-9.37,0.853l-0.212-4.541
		c3.265-0.781,7.232-1.207,10.571-1.207c5.183,0,8.654,1.136,10.854,3.194c2.198,2.129,3.052,4.896,3.052,9.437v23.134h-4.757
		L410.197,270.814z M409.417,256.764h-6.387c-3.618,0-6.104,0.498-7.734,1.774c-1.205,0.994-1.915,2.485-1.915,4.612
		c0,4.188,2.626,6.244,7.166,6.244c2.839,0,6.316-0.994,8.869-2.271L409.417,256.764L409.417,256.764z"/>
</g>
<g>
	<path fill="#FFFFFF" d="M439.572,67.354v16.379h-10.998V67.354h-16.379V56.358h16.379V39.979h10.998v16.379h16.379v10.997
		L439.572,67.354L439.572,67.354z"/>
</g>
<path fill="none" stroke="#FFFFFF" stroke-width="4" stroke-linecap="round" stroke-miterlimit="10" d="M457.667,95H404
	c-2.761,0-5-2.239-5-5V31c0-2.761,2.239-5,5-5h59c2.761,0,5,2.239,5,5v50.834"/>
</svg>
