<?xml version="1.0" encoding="utf-8"?>
<!-- Generator: Adobe Illustrator 17.0.0, SVG Export Plug-In . SVG Version: 6.00 Build 0)  -->
<!DOCTYPE svg PUBLIC "-//W3C//DTD SVG 1.1//EN" "http://www.w3.org/Graphics/SVG/1.1/DTD/svg11.dtd" [
	<!ENTITY ns_flows "http://ns.adobe.com/Flows/1.0/">
	<!ENTITY ns_extend "http://ns.adobe.com/Extensibility/1.0/">
	<!ENTITY ns_ai "http://ns.adobe.com/AdobeIllustrator/10.0/">
	<!ENTITY ns_graphs "http://ns.adobe.com/Graphs/1.0/">
]>
<svg version="1.1" id="Layer_1" xmlns:x="&ns_extend;" xmlns:i="&ns_ai;" xmlns:graph="&ns_graphs;"
	 xmlns="http://www.w3.org/2000/svg" xmlns:xlink="http://www.w3.org/1999/xlink" xmlns:a="http://ns.adobe.com/AdobeSVGViewerExtensions/3.0/"
	 x="0px" y="0px" width="30px" height="30px" viewBox="0 0 30 30" enable-background="new 0 0 30 30" xml:space="preserve">
<g>
	<g>
		<g>
			<path fill="#00AFC5" d="M11.124,12.426h2.032v-1.197c0-0.622-0.15-1.581,0.301-2.175c0.476-0.63,1.046-1.057,2.17-1.057
				c1.831,0,2.56,0.261,2.56,0.261l-0.384,2.15c0,0-0.455-0.175-1.019-0.175c-0.565,0-0.92,0.203-0.92,0.767v1.427h1.993
				l-0.162,2.032h-1.832v7.451h-2.709v-7.451h-2.032V12.426z"/>
		</g>
	</g>
	<g>
		<path fill="#00AFC5" d="M14.76,29.241c-7.843,0-14.224-6.381-14.224-14.223c0-7.843,6.381-14.224,14.224-14.224
			c7.843,0,14.223,6.381,14.223,14.224C28.983,22.86,22.602,29.241,14.76,29.241z M14.76,2.148c-7.096,0-12.869,5.773-12.869,12.869
			S7.664,27.886,14.76,27.886s12.869-5.773,12.869-12.869S21.856,2.148,14.76,2.148z"/>
	</g>
</g>
</svg>
