<?xml version="1.0" encoding="utf-8"?>
<!-- Generator: Adobe Illustrator 16.0.4, SVG Export Plug-In . SVG Version: 6.00 Build 0)  -->
<!DOCTYPE svg PUBLIC "-//W3C//DTD SVG 1.1//EN" "http://www.w3.org/Graphics/SVG/1.1/DTD/svg11.dtd">
<svg version="1.1" id="Layer_1" xmlns="http://www.w3.org/2000/svg" xmlns:xlink="http://www.w3.org/1999/xlink" x="0px" y="0px"
	 width="25px" height="25px" viewBox="0 0 25 25" enable-background="new 0 0 25 25" xml:space="preserve">
<g>
	<g>
		<path fill="#00567D" d="M9.741,10.23h1.187V9.182c0-0.545-0.07-1.385,0.325-1.905C11.67,6.724,12.2,6.35,13.186,6.35
			c1.604,0,2.258,0.229,2.258,0.229l-0.328,1.883c0,0-0.456-0.153-0.95-0.153c-0.495,0-0.863,0.178-0.863,0.672v1.25h1.869
			l-0.142,1.78h-1.728v6.527h-2.373v-6.527H9.741V10.23z"/>
	</g>
	<path fill="#00567D" d="M12.455,24.969c-6.875,0-12.468-5.593-12.468-12.469S5.579,0.032,12.455,0.032S24.924,5.625,24.924,12.5
		S19.33,24.969,12.455,24.969z M12.455,1.236C6.243,1.236,1.19,6.289,1.19,12.5s5.053,11.264,11.265,11.264
		S23.719,18.711,23.719,12.5S18.666,1.236,12.455,1.236z"/>
</g>
</svg>
