<?xml version="1.0" encoding="utf-8"?>
<!-- Generator: Adobe Illustrator 17.0.0, SVG Export Plug-In . SVG Version: 6.00 Build 0)  -->
<!DOCTYPE svg PUBLIC "-//W3C//DTD SVG 1.1//EN" "http://www.w3.org/Graphics/SVG/1.1/DTD/svg11.dtd">
<svg version="1.1" id="Layer_1" xmlns="http://www.w3.org/2000/svg" xmlns:xlink="http://www.w3.org/1999/xlink" x="0px" y="0px"
	 width="500px" height="500px" viewBox="0 0 500 500" enable-background="new 0 0 500 500" xml:space="preserve">
<rect fill="#11C5D7" width="500" height="500"/>
<path fill="none" stroke="#FFFFFF" stroke-width="4" stroke-miterlimit="10" d="M468,90c0,2.761-2.239,5-5,5h-59
	c-2.761,0-5-2.239-5-5V31c0-2.761,2.239-5,5-5h59c2.761,0,5,2.239,5,5V90z"/>
<g>
	<path fill="#FFFFFF" d="M439.572,67.354v16.379h-10.998V67.354h-16.379V56.358h16.379V39.979h10.998v16.379h16.379v10.997h-16.379
		V67.354z"/>
</g>
<g>
	<path fill="#FFFFFF" d="M186.042,246.127c-2.288-0.624-5.2-1.04-7.54-1.04c-4.16,0-6.916,1.093-8.84,3.328
		c-2.184,2.496-3.172,6.396-3.172,11.597c0,4.94,0.884,8.477,2.756,10.868c1.872,2.393,4.732,3.536,9.256,3.536
		c1.56,0,3.484-0.156,4.836-0.363v-10.921h-6.032v-3.64h10.557v17.368c-2.444,0.78-6.5,1.353-9.725,1.353
		c-5.824,0-9.828-1.561-12.428-4.524c-2.652-3.017-4.056-7.54-4.056-13.417c0-7.072,1.924-12.012,4.94-15.028
		c3.068-3.017,7.228-4.004,11.492-4.004c2.808,0,6.136,0.52,8.58,1.352L186.042,246.127z"/>
	<path fill="#FFFFFF" d="M211.001,275.769c-2.236,1.456-4.94,2.444-8.009,2.444c-2.756,0-5.096-0.832-6.656-2.444
		c-1.248-1.3-2.028-3.12-2.028-5.513c0-2.392,0.832-4.264,2.184-5.512c1.924-1.769,4.94-2.444,8.632-2.444h5.304v-1.612
		c0-2.08-0.364-3.38-1.3-4.316c-1.092-1.039-2.756-1.508-5.305-1.508c-1.924,0-4.368,0.208-6.864,0.624l-0.156-3.328
		c2.392-0.571,5.304-0.884,7.749-0.884c3.796,0,6.344,0.832,7.956,2.34c1.612,1.561,2.236,3.588,2.236,6.916v16.953h-3.484
		L211.001,275.769z M210.429,265.472h-4.68c-2.652,0-4.472,0.364-5.668,1.3c-0.884,0.729-1.404,1.82-1.404,3.381
		c0,3.068,1.924,4.576,5.252,4.576c2.08,0,4.628-0.729,6.5-1.664V265.472z"/>
	<path fill="#FFFFFF" d="M238.353,275.924c-2.08,1.353-5.148,2.289-7.54,2.289c-6.5,0-10.245-4.473-10.245-13.313
		c0-8.425,3.9-13.625,10.556-13.625c2.185,0,4.732,0.676,6.761,1.82v-12.793h4.316v37.182h-3.536L238.353,275.924z M237.885,273.168
		v-17.004c-1.872-0.729-4.16-1.248-5.876-1.248c-5.2,0-6.917,4.056-6.917,10.036c0,6.708,2.34,9.724,6.917,9.724
		C233.829,274.676,236.065,274.053,237.885,273.168z"/>
	<path fill="#FFFFFF" d="M259.309,270.204c-1.508,0-2.809-0.156-4.004-0.521c-0.78,0.885-1.404,2.236-1.404,3.121
		c0,1.092,0.676,1.56,2.08,1.56h4.888c4.473,0,6.969,0.728,8.633,2.392c1.3,1.301,1.872,3.068,1.872,5.148
		c0,5.148-3.433,8.009-12.064,8.009c-7.853,0-11.389-2.652-11.389-7.177c0-2.236,1.144-4.42,2.912-5.668
		c-0.832-0.676-1.196-1.612-1.196-2.756c0-2.028,1.196-4.108,3.017-5.877c-2.393-1.664-3.588-4.367-3.588-7.695
		c0-5.513,3.276-9.465,10.245-9.465c0.936,0,1.82,0.104,2.6,0.208l3.068-6.656c1.196,0.26,2.756,0.988,3.588,1.664l-3.536,6.032
		c3.068,1.561,4.524,4.576,4.524,8.217C269.553,266.252,266.277,270.204,259.309,270.204z M253.485,278.057
		c-0.937,1.144-1.508,2.548-1.508,3.9c0,2.756,2.08,4.315,7.749,4.315c5.408,0,7.592-1.56,7.592-4.212
		c0-1.248-0.416-2.184-1.248-2.809c-0.988-0.728-2.652-1.039-5.2-1.039h-5.512C254.628,278.213,254.004,278.16,253.485,278.057z
		 M259.309,254.707c-4.212,0-6.137,2.133-6.137,6.033c0,3.899,1.924,6.031,6.137,6.031c4.212,0,6.136-2.132,6.136-6.031
		C265.445,256.84,263.521,254.707,259.309,254.707z"/>
	<path fill="#FFFFFF" d="M294.668,277.225c-2.184,0.624-5.2,0.988-7.54,0.988c-3.952,0-7.021-0.988-9.101-3.068
		c-2.288-2.288-3.328-5.772-3.328-10.349c0-9.101,4.524-13.521,11.024-13.521c7.124,0,10.557,5.044,10.557,13.416v0.988
		c0,0.416-0.208,0.572-0.624,0.572h-16.433c0,2.809,0.728,5.096,2.236,6.5c1.352,1.248,3.276,1.924,6.5,1.924
		c1.82,0,4.316-0.26,6.292-0.676L294.668,277.225z M292.016,263.08c-0.156-4.889-2.028-8.32-6.292-8.32
		c-4.316,0-6.448,3.172-6.5,8.32H292.016z"/>
	<path fill="#FFFFFF" d="M303.923,246.023c1.248-0.416,2.964-0.78,4.316-0.78v6.761h6.708v3.172h-6.708v14.145
		c0,2.443,0.156,3.691,0.884,4.472c0.572,0.624,1.456,0.988,3.276,0.988c0.884,0,2.6-0.156,3.848-0.416l0.208,3.172
		c-1.352,0.364-3.38,0.677-5.252,0.677c-2.496,0-4.524-0.677-5.668-1.977c-1.248-1.456-1.612-3.172-1.612-6.344v-14.717h-4.628
		v-2.444l4.628-0.676V246.023z"/>
	<path fill="#FFFFFF" d="M336.423,255.539c-2.288-0.52-4.628-0.832-6.708-0.832c-3.641,0-5.564,1.196-5.564,3.589
		c0,5.72,14.196,3.016,14.196,12.116c0,5.408-4.16,7.801-10.296,7.801c-2.444,0-5.564-0.469-7.488-1.093l0.208-3.328
		c2.08,0.572,4.888,0.937,7.124,0.937c4.16,0,6.396-1.404,6.396-4.004c0-5.721-14.197-2.757-14.197-12.117
		c0-4.939,3.848-7.332,9.256-7.332c2.548,0,5.408,0.468,7.437,1.092L336.423,255.539z"/>
</g>
</svg>
