<?xml version="1.0" encoding="utf-8"?>
<!-- Generator: Adobe Illustrator 17.0.0, SVG Export Plug-In . SVG Version: 6.00 Build 0)  -->
<!DOCTYPE svg PUBLIC "-//W3C//DTD SVG 1.1//EN" "http://www.w3.org/Graphics/SVG/1.1/DTD/svg11.dtd">
<svg version="1.1" id="Layer_1" xmlns="http://www.w3.org/2000/svg" xmlns:xlink="http://www.w3.org/1999/xlink" x="0px" y="0px"
	 width="500px" height="500px" viewBox="0 0 500 500" enable-background="new 0 0 500 500" xml:space="preserve">
<rect fill="#11C5D7" width="500" height="500"/>
<path fill="none" stroke="#FFFFFF" stroke-width="4" stroke-miterlimit="10" d="M468,90c0,2.761-2.239,5-5,5h-59
	c-2.761,0-5-2.239-5-5V31c0-2.761,2.239-5,5-5h59c2.761,0,5,2.239,5,5V90z"/>
<g>
	<path fill="#FFFFFF" d="M439.572,67.354v16.379h-10.998V67.354h-16.379V56.358h16.379V39.979h10.998v16.379h16.379v10.997h-16.379
		V67.354z"/>
</g>
<g>
	<path fill="#FFFFFF" d="M133.371,248.109c-2.419-0.66-5.499-1.101-7.974-1.101c-4.399,0-7.314,1.155-9.349,3.52
		c-2.31,2.64-3.354,6.765-3.354,12.264c0,5.225,0.935,8.964,2.915,11.493c1.98,2.53,5.004,3.74,9.789,3.74
		c1.649,0,3.684-0.165,5.114-0.386v-11.548h-6.379v-3.85h11.164v18.367c-2.584,0.825-6.874,1.43-10.284,1.43
		c-6.159,0-10.394-1.649-13.143-4.784c-2.805-3.189-4.29-7.974-4.29-14.188c0-7.479,2.035-12.704,5.224-15.894
		c3.245-3.189,7.644-4.234,12.153-4.234c2.97,0,6.489,0.55,9.074,1.43L133.371,248.109z"/>
	<path fill="#FFFFFF" d="M159.772,279.455c-2.365,1.539-5.224,2.584-8.469,2.584c-2.915,0-5.389-0.88-7.039-2.584
		c-1.32-1.375-2.145-3.3-2.145-5.829c0-2.53,0.88-4.51,2.31-5.83c2.035-1.869,5.224-2.584,9.129-2.584h5.609v-1.705
		c0-2.199-0.385-3.574-1.375-4.564c-1.155-1.1-2.915-1.595-5.609-1.595c-2.035,0-4.62,0.22-7.259,0.66l-0.165-3.52
		c2.529-0.605,5.609-0.936,8.194-0.936c4.014,0,6.709,0.881,8.414,2.476c1.705,1.649,2.365,3.794,2.365,7.313v17.928h-3.685
		L159.772,279.455z M159.167,268.566h-4.949c-2.805,0-4.729,0.385-5.994,1.375c-0.935,0.77-1.485,1.925-1.485,3.574
		c0,3.244,2.035,4.839,5.554,4.839c2.2,0,4.895-0.77,6.874-1.76V268.566z"/>
	<path fill="#FFFFFF" d="M187.272,258.063c-2.419-0.55-4.895-0.88-7.094-0.88c-3.849,0-5.884,1.265-5.884,3.795
		c0,6.049,15.013,3.189,15.013,12.813c0,5.719-4.399,8.248-10.889,8.248c-2.584,0-5.884-0.494-7.919-1.154l0.22-3.52
		c2.2,0.604,5.169,0.989,7.534,0.989c4.399,0,6.764-1.484,6.764-4.234c0-6.049-15.013-2.914-15.013-12.813
		c0-5.225,4.069-7.755,9.789-7.755c2.695,0,5.719,0.495,7.864,1.155L187.272,258.063z"/>
	<path fill="#FFFFFF" d="M197.393,247.999c1.32-0.44,3.135-0.825,4.564-0.825v7.149h7.094v3.354h-7.094v14.958
		c0,2.585,0.165,3.904,0.935,4.729c0.605,0.66,1.54,1.045,3.464,1.045c0.935,0,2.75-0.165,4.07-0.44l0.22,3.354
		c-1.43,0.385-3.575,0.715-5.554,0.715c-2.64,0-4.784-0.715-5.994-2.09c-1.32-1.539-1.705-3.354-1.705-6.709v-15.563h-4.894v-2.585
		l4.894-0.715V247.999z"/>
	<path fill="#FFFFFF" d="M219.612,254.323l0.275,2.31c2.584-2.145,5.279-3.08,7.644-3.08c0.495,0,1.155,0.056,1.76,0.165v4.07
		c-0.605-0.056-1.595-0.11-2.365-0.11c-2.365,0-4.62,0.604-6.544,1.814v21.777h-4.564v-26.946H219.612z"/>
	<path fill="#FFFFFF" d="M243.866,282.039c-8.359,0-12.264-5.279-12.264-14.243s3.905-14.243,12.264-14.243
		c8.358,0,12.263,5.279,12.263,14.243S252.225,282.039,243.866,282.039z M243.866,257.293c-5.5,0-7.479,3.629-7.479,10.503
		s1.979,10.504,7.479,10.504c5.499,0,7.479-3.63,7.479-10.504S249.365,257.293,243.866,257.293z"/>
	<path fill="#FFFFFF" d="M266.197,254.323l0.22,1.979c2.805-1.705,6.159-2.75,9.294-2.75c2.914,0,5.225,0.771,6.764,2.365
		c1.485,1.484,2.255,3.685,2.255,7.039v18.313h-4.563v-17.763c0-2.31-0.386-3.63-1.32-4.564c-0.936-0.935-2.365-1.375-4.345-1.375
		c-2.419,0-5.334,0.715-7.534,1.76v21.942h-4.564v-26.946H266.197z"/>
	<path fill="#FFFFFF" d="M303.156,282.039c-8.359,0-12.264-5.279-12.264-14.243s3.904-14.243,12.264-14.243
		c8.358,0,12.263,5.279,12.263,14.243S311.515,282.039,303.156,282.039z M303.156,257.293c-5.5,0-7.479,3.629-7.479,10.503
		s1.979,10.504,7.479,10.504c5.498,0,7.479-3.63,7.479-10.504S308.654,257.293,303.156,257.293z"/>
	<path fill="#FFFFFF" d="M325.486,254.323l0.22,1.979c2.805-1.76,5.72-2.75,8.688-2.75c3.41,0,5.775,0.99,7.314,3.025
		c3.354-2.035,6.654-3.025,9.679-3.025c2.915,0,5.225,0.771,6.765,2.365c1.484,1.484,2.254,3.685,2.254,7.039v18.313h-4.564v-17.763
		c0-2.31-0.385-3.63-1.319-4.564s-2.364-1.375-4.234-1.375c-2.2,0-4.895,0.66-7.259,1.815c0.22,0.989,0.385,2.199,0.385,3.574
		v18.313h-4.564v-17.763c0-2.31-0.385-3.63-1.32-4.564c-0.935-0.935-2.364-1.375-4.234-1.375c-2.31,0-4.839,0.715-7.039,1.76v21.942
		h-4.564v-26.946H325.486z"/>
	<path fill="#FFFFFF" d="M365.032,247.559l9.679-8.578l2.584,3.464l-10.503,7.534L365.032,247.559z M372.676,281.27h-4.564v-26.946
		h4.564V281.27z"/>
	<path fill="#FFFFFF" d="M396.709,279.455c-2.365,1.539-5.225,2.584-8.469,2.584c-2.914,0-5.389-0.88-7.039-2.584
		c-1.32-1.375-2.145-3.3-2.145-5.829c0-2.53,0.88-4.51,2.31-5.83c2.034-1.869,5.224-2.584,9.129-2.584h5.608v-1.705
		c0-2.199-0.385-3.574-1.374-4.564c-1.155-1.1-2.915-1.595-5.609-1.595c-2.034,0-4.62,0.22-7.259,0.66l-0.165-3.52
		c2.529-0.605,5.608-0.936,8.194-0.936c4.014,0,6.709,0.881,8.413,2.476c1.705,1.649,2.364,3.794,2.364,7.313v17.928h-3.684
		L396.709,279.455z M396.104,268.566h-4.949c-2.805,0-4.729,0.385-5.994,1.375c-0.935,0.77-1.484,1.925-1.484,3.574
		c0,3.244,2.035,4.839,5.555,4.839c2.199,0,4.895-0.77,6.873-1.76V268.566z"/>
</g>
</svg>
