<?xml version="1.0" encoding="utf-8"?>
<!-- Generator: Adobe Illustrator 17.0.0, SVG Export Plug-In . SVG Version: 6.00 Build 0)  -->
<!DOCTYPE svg PUBLIC "-//W3C//DTD SVG 1.1//EN" "http://www.w3.org/Graphics/SVG/1.1/DTD/svg11.dtd">
<svg version="1.1" id="Layer_1" xmlns="http://www.w3.org/2000/svg" xmlns:xlink="http://www.w3.org/1999/xlink" x="0px" y="0px"
	 width="23px" height="23px" viewBox="0 0 23 23" enable-background="new 0 0 23 23" xml:space="preserve">
<path fill="#FFFFFF" d="M21.048,19.41l-3.605-3.946c-0.428-0.468-1.048-0.622-1.611-0.471l-0.58-0.635
	c1.211-1.388,1.955-3.219,1.955-5.231c0-4.31-3.388-7.819-7.553-7.819c-4.164,0-7.553,3.509-7.553,7.819
	c0,4.311,3.388,7.82,7.553,7.82c1.651,0,3.176-0.558,4.42-1.493l0.606,0.663c-0.177,0.573-0.063,1.224,0.365,1.692l3.605,3.946
	c0.324,0.356,0.761,0.536,1.199,0.536c0.407,0,0.813-0.156,1.135-0.468C21.646,21.175,21.674,20.094,21.048,19.41z M9.655,14.137
	c-2.673,0-4.839-2.242-4.839-5.011c0-2.765,2.166-5.009,4.839-5.009c2.672,0,4.838,2.245,4.838,5.009
	C14.493,11.895,12.326,14.137,9.655,14.137z"/>
</svg>
