<?xml version="1.0" encoding="utf-8"?>
<!-- Generator: Adobe Illustrator 16.0.4, SVG Export Plug-In . SVG Version: 6.00 Build 0)  -->
<!DOCTYPE svg PUBLIC "-//W3C//DTD SVG 1.1//EN" "http://www.w3.org/Graphics/SVG/1.1/DTD/svg11.dtd">
<svg version="1.1" id="Layer_1" xmlns="http://www.w3.org/2000/svg" xmlns:xlink="http://www.w3.org/1999/xlink" x="0px" y="0px"
	 width="27px" height="27px" viewBox="0 0 27 27" enable-background="new 0 0 27 27" xml:space="preserve">
<path fill="#FFFFFF" d="M25.596,6.348c-0.867,0.386-1.801,0.646-2.781,0.762c1-0.599,1.768-1.547,2.129-2.678
	c-0.935,0.555-1.971,0.958-3.073,1.175c-0.884-0.941-2.142-1.529-3.533-1.529c-2.673,0-4.841,2.167-4.841,4.841
	c0,0.379,0.043,0.748,0.125,1.103C9.598,9.82,6.031,7.893,3.643,4.964C3.226,5.679,2.988,6.51,2.988,7.398
	c0,1.679,0.855,3.161,2.154,4.029c-0.793-0.025-1.54-0.243-2.193-0.606c0,0.02,0,0.041,0,0.061c0,2.345,1.669,4.302,3.884,4.747
	c-0.406,0.11-0.834,0.17-1.276,0.17c-0.312,0-0.615-0.029-0.911-0.087c0.616,1.923,2.404,3.323,4.522,3.362
	c-1.657,1.299-3.744,2.072-6.012,2.072c-0.39,0-0.776-0.022-1.155-0.067c2.143,1.374,4.687,2.175,7.421,2.175
	c8.905,0,13.773-7.376,13.773-13.774c0-0.21-0.004-0.419-0.012-0.627C24.127,8.172,24.948,7.319,25.596,6.348z"/>
</svg>
