<?xml version="1.0" encoding="utf-8"?>
<!-- Generator: Adobe Illustrator 17.0.0, SVG Export Plug-In . SVG Version: 6.00 Build 0)  -->
<!DOCTYPE svg PUBLIC "-//W3C//DTD SVG 1.1//EN" "http://www.w3.org/Graphics/SVG/1.1/DTD/svg11.dtd">
<svg version="1.1" id="Layer_1" xmlns="http://www.w3.org/2000/svg" xmlns:xlink="http://www.w3.org/1999/xlink" x="0px" y="0px"
	 width="33px" height="33px" viewBox="0 0 33 33" enable-background="new 0 0 33 33" xml:space="preserve">
<g>
	<g>
		<g>
			<defs>
				<path id="SVGID_1_" d="M16.344,17.169c1.994,0,3.696-0.705,5.106-2.116c1.411-1.41,2.116-3.112,2.116-5.106
					c0-1.993-0.705-3.695-2.116-5.106c-1.41-1.41-3.112-2.116-5.106-2.116s-3.696,0.705-5.106,2.116
					C9.827,6.252,9.122,7.954,9.122,9.948c0,1.994,0.705,3.696,2.116,5.106S14.35,17.169,16.344,17.169z"/>
			</defs>
			<use xlink:href="#SVGID_1_"  overflow="visible" fill-rule="evenodd" clip-rule="evenodd" fill="#6BFFFF"/>
			<clipPath id="SVGID_2_">
				<use xlink:href="#SVGID_1_"  overflow="visible"/>
			</clipPath>
			<rect x="7.967" y="1.696" clip-path="url(#SVGID_2_)" fill="#6BFFFF" width="16.476" height="16.476"/>
		</g>
	</g>
	<g>
		<g>
			<defs>
				<path id="SVGID_3_" d="M29.517,24.795c-0.044-0.633-0.132-1.316-0.263-2.05s-0.298-1.414-0.499-2.041
					c-0.201-0.627-0.47-1.238-0.809-1.833c-0.338-0.596-0.727-1.103-1.166-1.523c-0.439-0.42-0.975-0.755-1.608-1.006
					c-0.633-0.251-1.332-0.376-2.097-0.376c-0.113,0-0.376,0.135-0.79,0.404c-0.414,0.27-0.881,0.571-1.401,0.903
					c-0.52,0.332-1.198,0.633-2.031,0.902c-0.834,0.27-1.67,0.404-2.511,0.404c-0.84,0-1.677-0.135-2.51-0.404
					c-0.834-0.269-1.511-0.57-2.031-0.902c-0.52-0.332-0.987-0.633-1.401-0.903c-0.414-0.27-0.677-0.404-0.79-0.404
					c-0.765,0-1.464,0.126-2.097,0.376c-0.633,0.251-1.169,0.586-1.608,1.006c-0.439,0.42-0.828,0.928-1.166,1.523
					c-0.338,0.596-0.608,1.207-0.809,1.833c-0.201,0.627-0.367,1.307-0.498,2.041c-0.132,0.734-0.22,1.417-0.263,2.05
					s-0.066,1.282-0.066,1.947c0,1.504,0.458,2.563,1.373,3.434c0.915,0.871,2.131,1.177,3.648,1.177h16.437
					c1.517,0,2.733-0.306,3.648-1.177c0.915-0.871,1.373-1.994,1.373-3.499C29.584,26.012,29.562,25.428,29.517,24.795z"/>
			</defs>
			<use xlink:href="#SVGID_3_"  overflow="visible" fill-rule="evenodd" clip-rule="evenodd" fill="#6BFFFF"/>
			<clipPath id="SVGID_4_">
				<use xlink:href="#SVGID_3_"  overflow="visible"/>
			</clipPath>
			<rect x="2.201" y="14.877" clip-path="url(#SVGID_4_)" fill="#6BFFFF" width="28.832" height="18.123"/>
		</g>
	</g>
</g>
</svg>
