<?xml version="1.0" encoding="utf-8"?>
<!-- Generator: Adobe Illustrator 16.0.4, SVG Export Plug-In . SVG Version: 6.00 Build 0)  -->
<!DOCTYPE svg PUBLIC "-//W3C//DTD SVG 1.1//EN" "http://www.w3.org/Graphics/SVG/1.1/DTD/svg11.dtd">
<svg version="1.1" id="Layer_1" xmlns="http://www.w3.org/2000/svg" xmlns:xlink="http://www.w3.org/1999/xlink" x="0px" y="0px"
	 width="27px" height="27px" viewBox="0 0 27 27" enable-background="new 0 0 27 27" xml:space="preserve">
<g>
	<path fill="#FFFFFF" d="M19.722,13.046H7.279c-1.978,0-3.581,1.604-3.581,3.582v2.879c0,1.978,1.603,3.581,3.581,3.581H19.72
		c1.979,0,3.582-1.604,3.582-3.581v-2.879C23.302,14.65,21.698,13.046,19.722,13.046z M9.893,15.286H8.736v5.748H7.619v-5.748H6.463
		v-0.978h3.43V15.286z M13.161,21.034h-0.992V20.49c-0.184,0.201-0.374,0.354-0.572,0.458c-0.198,0.107-0.39,0.159-0.576,0.159
		c-0.23,0-0.401-0.073-0.518-0.222c-0.115-0.148-0.174-0.368-0.174-0.665v-4.148h0.991v3.808c0,0.116,0.022,0.202,0.061,0.253
		c0.043,0.055,0.111,0.078,0.204,0.078c0.072,0,0.165-0.034,0.276-0.104c0.112-0.07,0.214-0.158,0.308-0.268v-3.768h0.991
		L13.161,21.034L13.161,21.034z M16.759,20.009c0,0.351-0.077,0.621-0.233,0.808c-0.154,0.188-0.381,0.28-0.674,0.28
		c-0.195,0-0.369-0.034-0.52-0.107c-0.151-0.071-0.294-0.182-0.425-0.336v0.381h-1.003v-6.726h1.003v2.166
		c0.135-0.149,0.276-0.267,0.425-0.345c0.151-0.079,0.305-0.117,0.458-0.117c0.313,0,0.554,0.104,0.718,0.315
		c0.167,0.212,0.25,0.521,0.25,0.927L16.759,20.009L16.759,20.009z M20.198,18.673h-1.896v0.936c0,0.26,0.031,0.441,0.097,0.543
		c0.066,0.101,0.179,0.15,0.336,0.15c0.166,0,0.279-0.043,0.346-0.129c0.063-0.087,0.099-0.273,0.099-0.564v-0.227h1.021v0.255
		c0,0.508-0.124,0.892-0.374,1.15c-0.247,0.256-0.618,0.383-1.112,0.383c-0.445,0-0.796-0.136-1.051-0.407
		c-0.254-0.272-0.384-0.647-0.384-1.126v-2.229c0-0.429,0.143-0.781,0.424-1.052c0.28-0.272,0.641-0.406,1.085-0.406
		c0.454,0,0.804,0.125,1.047,0.376s0.365,0.611,0.365,1.081L20.198,18.673L20.198,18.673z"/>
	<path fill="#FFFFFF" d="M18.744,16.817c-0.159,0-0.271,0.045-0.34,0.138c-0.071,0.087-0.104,0.235-0.104,0.444v0.502h0.876v-0.502
		c0-0.209-0.035-0.357-0.104-0.444C19.006,16.862,18.895,16.817,18.744,16.817z"/>
	<path fill="#FFFFFF" d="M15.324,16.801c-0.07,0-0.142,0.016-0.211,0.047S14.977,16.933,14.909,17v3.091
		c0.079,0.08,0.159,0.142,0.235,0.177c0.076,0.034,0.155,0.054,0.24,0.054c0.122,0,0.211-0.036,0.268-0.107
		c0.057-0.069,0.085-0.182,0.085-0.341v-2.562c0-0.169-0.034-0.295-0.104-0.382C15.56,16.843,15.457,16.801,15.324,16.801z"/>
	<polygon fill="#FFFFFF" points="8.908,11.322 10.165,11.322 10.165,8.248 11.628,3.912 10.351,3.912 9.573,6.875 9.494,6.875 
		8.677,3.912 7.411,3.912 8.908,8.386 	"/>
	<path fill="#FFFFFF" d="M13.331,11.46c0.507,0,0.905-0.134,1.195-0.4c0.288-0.268,0.433-0.632,0.433-1.1V7.137
		c0-0.416-0.146-0.758-0.441-1.022c-0.296-0.264-0.675-0.396-1.137-0.396c-0.507,0-0.912,0.125-1.212,0.376
		c-0.3,0.25-0.45,0.587-0.45,1.011v2.833c0,0.465,0.146,0.833,0.44,1.108C12.451,11.322,12.843,11.46,13.331,11.46z M12.868,7.064
		c0-0.119,0.043-0.214,0.126-0.29c0.086-0.074,0.197-0.109,0.333-0.109c0.146,0,0.267,0.035,0.358,0.109
		c0.09,0.075,0.136,0.171,0.136,0.29v2.979c0,0.146-0.044,0.262-0.134,0.345c-0.089,0.084-0.209,0.125-0.359,0.125
		c-0.147,0-0.262-0.04-0.342-0.124c-0.078-0.082-0.119-0.197-0.119-0.347L12.868,7.064L12.868,7.064z"/>
	<path fill="#FFFFFF" d="M16.646,11.402c0.21,0,0.425-0.06,0.646-0.176c0.225-0.117,0.439-0.287,0.643-0.51v0.606h1.117V5.856
		h-1.117v4.149c-0.104,0.119-0.219,0.216-0.342,0.294c-0.127,0.077-0.231,0.115-0.313,0.115c-0.104,0-0.182-0.029-0.228-0.088
		c-0.045-0.058-0.07-0.15-0.07-0.279v-4.19h-1.116v4.568c0,0.326,0.065,0.569,0.195,0.731
		C16.192,11.319,16.385,11.402,16.646,11.402z"/>
</g>
</svg>
