<?xml version="1.0" encoding="utf-8"?>
<!-- Generator: Adobe Illustrator 17.0.0, SVG Export Plug-In . SVG Version: 6.00 Build 0)  -->
<!DOCTYPE svg PUBLIC "-//W3C//DTD SVG 1.1//EN" "http://www.w3.org/Graphics/SVG/1.1/DTD/svg11.dtd" [
	<!ENTITY ns_flows "http://ns.adobe.com/Flows/1.0/">
	<!ENTITY ns_extend "http://ns.adobe.com/Extensibility/1.0/">
	<!ENTITY ns_ai "http://ns.adobe.com/AdobeIllustrator/10.0/">
	<!ENTITY ns_graphs "http://ns.adobe.com/Graphs/1.0/">
]>
<svg version="1.1" id="Layer_1" xmlns:x="&ns_extend;" xmlns:i="&ns_ai;" xmlns:graph="&ns_graphs;"
	 xmlns="http://www.w3.org/2000/svg" xmlns:xlink="http://www.w3.org/1999/xlink" xmlns:a="http://ns.adobe.com/AdobeSVGViewerExtensions/3.0/"
	 x="0px" y="0px" width="19px" height="15px" viewBox="0 0 19 15" enable-background="new 0 0 19 15" xml:space="preserve">
<g>
	<path fill="#00AFC5" d="M1.608,4.407c0.171,0.451,0.345,0.342,0.524,0.464c0.233,0.165,0.937,0.691,2.11,1.504
		c1.173,0.813,2.072,1.439,2.697,1.878c0.069,0.048,0.214,0.153,0.437,0.314c0.223,0.161,0.408,0.292,0.556,0.391
		c0.148,0.099,0.326,0.211,0.535,0.334S8.873,9.52,9.058,9.582c0.185,0.062,0.357,0.104,0.515,0.104h0.01h0.01
		c0.158,0,0.329-0.042,0.515-0.104c0.185-0.061,0.383-0.16,0.592-0.283c0.209-0.123,0.388-0.238,0.535-0.337
		c0.148-0.099,0.333-0.231,0.556-0.393c0.223-0.161,0.369-0.267,0.437-0.315c0.631-0.439,2.237-1.592,4.817-3.383
		c0.187-0.131,0.359-0.014,0.523-0.465c0.275,0,0.522-0.492,0.733-0.802c0.336-0.494,0.504-0.993,0.504-1.535
		c0-0.453-0.163-0.893-0.489-1.216c-0.326-0.322-0.712-0.537-1.158-0.537H2.008c-0.528,0-0.935,0.241-1.22,0.598
		C0.503,1.271,0.361,1.748,0.361,2.283c0,0.432,0.189,0.879,0.566,1.383C1.146,3.958,1.373,4.407,1.608,4.407z"/>
	<path fill="#00AFC5" d="M17.528,6.009c-2.25,1.523-3.836,2.707-5.002,3.551c-0.391,0.288-0.647,0.5-0.89,0.661
		c-0.03,0.02-0.032,0.047-0.064,0.047c-0.231,0-0.506,0.59-0.861,0.737c-0.405,0.168-0.768,0.555-1.118,0.555h-0.01h-0.01
		c-0.35,0-0.727-0.387-1.132-0.555c-0.355-0.147-0.644-0.639-0.875-0.639c-0.033,0-0.068-0.076-0.098-0.096
		c-0.244-0.161-0.561-0.404-0.952-0.692c-0.926-0.679-2.714-1.872-5.198-3.56C0.927,5.758,0.82,5.45,0.196,5.114v5.154v3.018
		c0,0.453,0.244,0.716,0.566,1.039s0.793,0.359,1.246,0.359h15.15c0.453,0,0.593-0.037,0.916-0.359
		c0.323-0.323,0.237-0.586,0.237-1.039v-3.018V5.114C18.31,5.443,17.919,5.742,17.528,6.009z"/>
</g>
</svg>
