<?xml version="1.0" encoding="utf-8"?>
<!-- Generator: Adobe Illustrator 17.0.0, SVG Export Plug-In . SVG Version: 6.00 Build 0)  -->
<!DOCTYPE svg PUBLIC "-//W3C//DTD SVG 1.1//EN" "http://www.w3.org/Graphics/SVG/1.1/DTD/svg11.dtd" [
	<!ENTITY ns_flows "http://ns.adobe.com/Flows/1.0/">
	<!ENTITY ns_extend "http://ns.adobe.com/Extensibility/1.0/">
	<!ENTITY ns_ai "http://ns.adobe.com/AdobeIllustrator/10.0/">
	<!ENTITY ns_graphs "http://ns.adobe.com/Graphs/1.0/">
]>
<svg version="1.1" id="Layer_1" xmlns:x="&ns_extend;" xmlns:i="&ns_ai;" xmlns:graph="&ns_graphs;"
	 xmlns="http://www.w3.org/2000/svg" xmlns:xlink="http://www.w3.org/1999/xlink" xmlns:a="http://ns.adobe.com/AdobeSVGViewerExtensions/3.0/"
	 x="0px" y="0px" width="31.375px" height="23.75px" viewBox="0 -4.75 31.375 23.75" enable-background="new 0 -4.75 31.375 23.75"
	 xml:space="preserve">
<path fill="#00AFC5" d="M29.172-0.733c-0.793-1.567-1.741-2.498-2.843-2.794c-0.877-0.212-1.775-0.139-2.698,0.222
	c-0.87,0.342-1.609,0.87-2.214,1.586c-0.657,0.793-1.24,1.773-1.75,2.939c-0.315,0.735-0.703,1.815-1.16,3.239
	c-0.245,0.677-0.457,1.167-0.638,1.469c-0.315,0.516-0.703,0.86-1.16,1.034c-0.619,0.258-1.276,0.264-1.972,0.019
	c-0.651-0.232-1.196-0.623-1.634-1.17C12.819,5.445,12.2,4.52,11.245,3.038c-0.74-1.153-1.417-2.03-2.028-2.629
	C8.797-0.01,8.346-0.343,7.863-0.587C7.322-0.858,6.779-0.996,6.238-1.004C5.562-0.996,4.91-0.851,4.285-0.568
	C3.653-0.284,3.118,0.108,2.68,0.611C2.151,1.192,1.72,1.927,1.385,2.816c-0.232,0.619-0.461,1.45-0.686,2.495
	c-0.407,1.94-0.468,3.948-0.184,6.023c0.264,1.985,0.828,3.915,1.693,5.792c0.109,0.2,0.274,0.509,0.493,0.928
	c0.212,0.342,0.461,0.577,0.745,0.705c0.355,0.181,0.728,0.181,1.122,0c0.404-0.174,0.643-0.458,0.714-0.85
	c0.103-0.593,0.046-1.273-0.174-2.04c-0.309-0.87-0.541-1.521-0.696-1.953c-0.438-1.238-0.715-2.108-0.831-2.61
	c-0.239-0.999-0.3-1.901-0.184-2.707c0.058-0.29,0.09-0.438,0.097-0.445c0.052-0.174,0.136-0.296,0.252-0.367
	C3.971,7.837,4.206,7.95,4.451,8.124c0.084,0.065,0.29,0.235,0.619,0.512c0.722,0.722,1.637,2.06,2.746,4.013
	c1.045,1.844,2.004,3.145,2.881,3.906c1.29,1.186,2.897,1.67,4.825,1.45c1.94-0.226,3.374-1.083,4.303-2.572
	c0.535-0.858,1.041-2.111,1.517-3.761c0.554-1.895,0.99-3.178,1.305-3.848c0.361-0.761,0.877-1.441,1.546-2.04
	c0.638-0.56,1.366-1.009,2.186-1.344c0.206,0.232,0.329,0.558,0.367,0.976c0.026,0.239,0.048,0.6,0.067,1.083
	c0.038,0.47,0,1.599-0.116,3.384c-0.097,1.399-0.01,2.517,0.262,3.355c0.116,0.413,0.365,0.732,0.745,0.957
	c0.386,0.239,0.786,0.296,1.198,0.174c0.361-0.065,0.663-0.271,0.909-0.619c0.2-0.283,0.344-0.629,0.435-1.034
	c0.342-1.54,0.497-3.233,0.464-5.075C30.754,4.283,30.242,1.492,29.172-0.733z M3.531,16.749c0.058,0.161,0.2,0.399,0.426,0.716
	c0.168,0.29,0.2,0.545,0.097,0.763c-0.239,0.155-0.47,0.145-0.696-0.029c-0.136-0.109-0.29-0.313-0.464-0.609
	c-1.405-2.268-2.121-5.26-2.146-8.972C0.78,6.052,1.251,3.994,2.16,2.44c0.411-0.723,0.958-1.294,1.642-1.713
	C4.543,0.27,5.304,0.083,6.084,0.166c-0.516,0.065-1.005,0.24-1.469,0.523c-0.445,0.277-0.828,0.635-1.15,1.074
	C2.625,2.89,2.071,4.466,1.801,6.49c-0.245,1.733-0.216,3.487,0.086,5.26C2.191,13.503,2.738,15.169,3.531,16.749z M16.362,17.425
	c-1.527,0.426-2.897,0.254-4.109-0.512c-0.85-0.581-1.66-1.363-2.427-2.35c-0.535-0.69-1.158-1.641-1.867-2.853
	C7.406,10.666,6.968,9.896,6.645,9.4C6.091,8.543,5.484,7.912,4.826,7.505c-0.451-0.302-1.08-0.342-1.886-0.116
	c0.741-0.755,1.45-1.028,2.127-0.822c0.6,0.2,1.16,0.593,1.682,1.179c0.323,0.361,0.725,0.928,1.208,1.701
	c0.78,1.483,1.477,2.656,2.088,3.52c0.877,1.231,1.817,2.211,2.824,2.939c0.573,0.426,1.248,0.68,2.021,0.764
	c0.703,0.071,1.421,0,2.156-0.212c0.451-0.109,0.925-0.313,1.421-0.609c0.252-0.155,0.677-0.447,1.276-0.879
	C18.972,16.194,17.844,17.013,16.362,17.425z M24.251-2.802c-0.948,0.722-1.75,1.727-2.408,3.017
	c-0.47,0.921-0.925,2.14-1.363,3.655c-0.232,1.238-0.405,2.04-0.522,2.408c-0.271,0.89-0.661,1.599-1.17,2.127
	c-0.393,0.413-0.892,0.657-1.498,0.735c-0.573,0.078-1.131,0-1.672-0.232c-0.657-0.283-1.158-0.545-1.498-0.783
	c-0.516-0.361-0.877-0.78-1.083-1.257c0.774,0.302,1.344,0.499,1.712,0.59c0.663,0.161,1.26,0.174,1.789,0.038
	c0.503-0.109,0.954-0.361,1.353-0.755c0.374-0.367,0.654-0.806,0.841-1.315c0.638-1.714,1.118-2.926,1.441-3.636
	c0.606-1.328,1.267-2.446,1.982-3.355c0.516-0.69,1.254-1.164,2.214-1.421C24.341-2.921,24.303-2.859,24.251-2.802z M28.283,13.084
	c0.013,0.271-0.12,0.428-0.397,0.474c-0.277,0.052-0.461-0.048-0.551-0.3c-0.019-0.921-0.026-2.247-0.019-3.974
	c0.006-1.811,0.004-3.136-0.01-3.974c-0.006-0.477-0.119-0.999-0.338-1.567c0.386-0.026,0.705,0.107,0.957,0.396
	c0.245,0.271,0.365,0.6,0.357,0.986C28.295,7.782,28.295,10.434,28.283,13.084z"/>
</svg>
