<?xml version="1.0" encoding="utf-8"?>
<!-- Generator: Adobe Illustrator 17.0.0, SVG Export Plug-In . SVG Version: 6.00 Build 0)  -->
<!DOCTYPE svg PUBLIC "-//W3C//DTD SVG 1.1//EN" "http://www.w3.org/Graphics/SVG/1.1/DTD/svg11.dtd">
<svg version="1.1" id="Layer_1" xmlns="http://www.w3.org/2000/svg" xmlns:xlink="http://www.w3.org/1999/xlink" x="0px" y="0px"
	 width="500px" height="500px" viewBox="0 0 500 500" enable-background="new 0 0 500 500" xml:space="preserve">
<rect fill="#11C5D7" width="500" height="500"/>
<path fill="none" stroke="#FFFFFF" stroke-width="4" stroke-miterlimit="10" d="M468,90c0,2.761-2.239,5-5,5h-59
	c-2.761,0-5-2.239-5-5V31c0-2.761,2.239-5,5-5h59c2.761,0,5,2.239,5,5V90z"/>
<g>
	<path fill="#FFFFFF" d="M439.572,67.354v16.379h-10.998V67.354h-16.379V56.358h16.379V39.979h10.998v16.379h16.379v10.997h-16.379
		V67.354z"/>
</g>
<g>
	<path fill="#FFFFFF" d="M196.442,267.632l13.253-24.747h4.18V280.5h-4.62v-27.991l-10.943,20.018h-4.07l-10.833-20.237V280.5
		h-4.344v-37.615h4.29L196.442,267.632z"/>
	<path fill="#FFFFFF" d="M240.607,280.5l-0.22-1.979c-2.805,1.704-6.049,2.749-9.184,2.749c-2.915,0-5.224-0.77-6.764-2.364
		c-1.485-1.485-2.254-3.685-2.254-7.039v-18.313h4.564v17.763c0,2.31,0.385,3.629,1.32,4.564c0.935,0.935,2.365,1.375,4.345,1.375
		c2.419,0,5.224-0.715,7.424-1.76v-21.942h4.564V280.5H240.607z M228.289,246.789l9.679-8.578l2.584,3.464l-10.503,7.534
		L228.289,246.789z"/>
	<path fill="#FFFFFF" d="M268.052,257.293c-2.42-0.55-4.895-0.88-7.095-0.88c-3.849,0-5.884,1.265-5.884,3.795
		c0,6.049,15.013,3.189,15.013,12.813c0,5.719-4.398,8.248-10.889,8.248c-2.584,0-5.884-0.494-7.918-1.154l0.22-3.52
		c2.2,0.604,5.169,0.989,7.534,0.989c4.399,0,6.764-1.484,6.764-4.234c0-6.049-15.013-2.914-15.013-12.813
		c0-5.225,4.069-7.755,9.788-7.755c2.695,0,5.72,0.495,7.864,1.155L268.052,257.293z"/>
	<path fill="#FFFFFF" d="M278.777,248.439c-1.649,0-2.694-0.825-2.694-2.915v-0.109c0-2.09,1.045-2.915,2.694-2.915h0.275
		c1.649,0,2.694,0.825,2.694,2.915v0.109c0,2.09-1.045,2.915-2.694,2.915H278.777z M281.197,280.5h-4.564v-26.946h4.564V280.5z"/>
	<path fill="#FFFFFF" d="M307.705,280.39c-1.76,0.495-4.784,0.88-6.764,0.88c-4.4,0-7.59-1.1-9.789-3.354
		c-2.255-2.31-3.574-5.829-3.574-10.559s1.209-8.413,3.52-10.889c2.31-2.475,5.773-3.685,9.898-3.685c2.09,0,4.564,0.33,6.434,0.825
		l-0.274,3.52c-1.704-0.33-3.904-0.66-5.609-0.66c-6.324,0-9.184,3.685-9.184,10.834c0,3.409,0.771,5.994,2.255,7.699
		c1.539,1.76,3.85,2.529,7.148,2.529c1.814,0,4.234-0.274,5.609-0.55L307.705,280.39z"/>
	<path fill="#FFFFFF" d="M329.87,278.686c-2.364,1.539-5.224,2.584-8.469,2.584c-2.915,0-5.39-0.88-7.039-2.584
		c-1.319-1.375-2.145-3.3-2.145-5.829c0-2.53,0.88-4.51,2.31-5.83c2.035-1.869,5.225-2.584,9.129-2.584h5.609v-1.705
		c0-2.199-0.385-3.574-1.375-4.564c-1.155-1.1-2.915-1.595-5.609-1.595c-2.035,0-4.619,0.22-7.26,0.66l-0.164-3.52
		c2.529-0.605,5.609-0.936,8.193-0.936c4.015,0,6.709,0.881,8.414,2.476c1.705,1.649,2.365,3.794,2.365,7.313V280.5h-3.686
		L329.87,278.686z M329.266,267.797h-4.949c-2.805,0-4.73,0.385-5.994,1.375c-0.936,0.77-1.485,1.925-1.485,3.574
		c0,3.244,2.034,4.839,5.554,4.839c2.2,0,4.895-0.77,6.875-1.76V267.797z"/>
</g>
</svg>
