<?xml version="1.0" encoding="utf-8"?>
<!-- Generator: Adobe Illustrator 17.0.0, SVG Export Plug-In . SVG Version: 6.00 Build 0)  -->
<!DOCTYPE svg PUBLIC "-//W3C//DTD SVG 1.1//EN" "http://www.w3.org/Graphics/SVG/1.1/DTD/svg11.dtd" [
	<!ENTITY ns_flows "http://ns.adobe.com/Flows/1.0/">
	<!ENTITY ns_extend "http://ns.adobe.com/Extensibility/1.0/">
	<!ENTITY ns_ai "http://ns.adobe.com/AdobeIllustrator/10.0/">
	<!ENTITY ns_graphs "http://ns.adobe.com/Graphs/1.0/">
]>
<svg version="1.1" id="Layer_1" xmlns:x="&ns_extend;" xmlns:i="&ns_ai;" xmlns:graph="&ns_graphs;"
	 xmlns="http://www.w3.org/2000/svg" xmlns:xlink="http://www.w3.org/1999/xlink" xmlns:a="http://ns.adobe.com/AdobeSVGViewerExtensions/3.0/"
	 x="0px" y="0px" width="25.877px" height="26.917px" viewBox="0 0 25.877 26.917" enable-background="new 0 0 25.877 26.917"
	 xml:space="preserve">
<g>
	<path fill="#00AFC5" d="M4.614,10.863c0-3.701,2.041-7.306,6.121-7.306c4.128,0,6.215,3.511,6.215,7.306
		c0,3.749-1.851,7.306-6.215,7.306C6.465,18.17,4.614,14.516,4.614,10.863L4.614,10.863z M0.819,10.863
		c0,6.311,3.605,10.723,9.916,10.723c6.357,0,10.012-4.412,10.012-10.723c0-6.121-3.701-10.675-10.012-10.675
		C4.472,0.188,0.819,4.743,0.819,10.863L0.819,10.863z"/>
	<path fill="#00AFC5" d="M19.934,26.417v-1.369c0.849-0.711,3.656-3.179,3.656-4.745c0-0.807-0.734-1.186-1.398-1.186
		c-0.759,0-1.482,0.332-2.052,0.711l-0.148-1.47c0.807-0.38,1.705-0.617,2.607-0.617c1.613,0,2.656,1.066,2.656,2.774
		c0,1.803-1.852,3.353-3.228,5.052h3.85v0.849L19.934,26.417L19.934,26.417z"/>
</g>
</svg>
