<?xml version="1.0" encoding="utf-8"?>
<!-- Generator: Adobe Illustrator 17.0.0, SVG Export Plug-In . SVG Version: 6.00 Build 0)  -->
<!DOCTYPE svg PUBLIC "-//W3C//DTD SVG 1.1//EN" "http://www.w3.org/Graphics/SVG/1.1/DTD/svg11.dtd">
<svg version="1.1" id="Layer_1" xmlns="http://www.w3.org/2000/svg" xmlns:xlink="http://www.w3.org/1999/xlink" x="0px" y="0px"
	 width="500px" height="500px" viewBox="0 0 500 500" enable-background="new 0 0 500 500" xml:space="preserve">
<rect fill="#A8CF38" width="500" height="500"/>
<path fill="none" stroke="#FFFFFF" stroke-width="4" stroke-miterlimit="10" d="M468,90c0,2.761-2.239,5-5,5h-59
	c-2.761,0-5-2.239-5-5V31c0-2.761,2.239-5,5-5h59c2.761,0,5,2.239,5,5V90z"/>
<g>
	<path fill="#FFFFFF" d="M439.572,67.354v16.379h-10.998V67.354h-16.379V56.358h16.379V39.979h10.998v16.379h16.379v10.997h-16.379
		V67.354z"/>
</g>
<g>
	<path fill="#02577D" d="M98.68,280.855h-4.772v-36.676h10.67c5.093,0,8.633,0.858,10.724,2.949c1.823,1.77,2.735,4.504,2.735,8.151
		c0,5.629-2.52,9.169-6.864,10.67l7.881,14.906h-5.308c-2.359-4.665-4.719-9.384-7.131-14.103c-0.643,0.054-1.608,0.107-2.359,0.107
		h-5.576v13.996H98.68z M98.68,263h5.684c3.807,0,5.845-0.751,7.131-2.199c1.126-1.287,1.608-3.164,1.608-5.523
		c0-2.52-0.536-4.289-1.662-5.416c-1.395-1.393-3.754-1.93-7.4-1.93h-5.362V263H98.68z"/>
	<path fill="#02577D" d="M143.609,280.586c-2.251,0.645-5.362,1.02-7.775,1.02c-4.076,0-7.239-1.02-9.384-3.165
		c-2.359-2.359-3.431-5.951-3.431-10.67c0-9.384,4.665-13.941,11.368-13.941c7.346,0,10.885,5.201,10.885,13.834v1.019
		c0,0.43-0.214,0.591-0.643,0.591h-16.945c0,2.896,0.751,5.255,2.305,6.703c1.393,1.287,3.377,1.984,6.702,1.984
		c1.877,0,4.45-0.268,6.489-0.697L143.609,280.586z M140.874,266.001c-0.161-5.041-2.092-8.579-6.488-8.579
		c-4.45,0-6.649,3.272-6.703,8.579H140.874z"/>
	<path fill="#02577D" d="M168.484,279.246c-2.145,1.393-5.308,2.359-7.775,2.359c-6.703,0-10.564-4.612-10.564-13.727
		c0-8.687,4.022-14.049,10.885-14.049c2.251,0,4.88,0.697,6.97,1.876v-13.191h4.45v38.338h-3.646L168.484,279.246z M168.002,276.405
		v-17.534c-1.93-0.751-4.289-1.287-6.06-1.287c-5.362,0-7.131,4.182-7.131,10.349c0,6.916,2.414,10.026,7.131,10.026
		C163.819,277.959,166.125,277.316,168.002,276.405z"/>
	<path fill="#02577D" d="M199.151,280.586c-2.251,0.645-5.362,1.02-7.775,1.02c-4.076,0-7.239-1.02-9.384-3.165
		c-2.359-2.359-3.431-5.951-3.431-10.67c0-9.384,4.665-13.941,11.368-13.941c7.346,0,10.885,5.201,10.885,13.834v1.019
		c0,0.43-0.214,0.591-0.643,0.591h-16.945c0,2.896,0.751,5.255,2.305,6.703c1.393,1.287,3.377,1.984,6.702,1.984
		c1.877,0,4.45-0.268,6.489-0.697L199.151,280.586z M196.416,266.001c-0.161-5.041-2.092-8.579-6.488-8.579
		c-4.45,0-6.649,3.272-6.703,8.579H196.416z"/>
	<path fill="#02577D" d="M222.633,258.227c-2.359-0.536-4.772-0.858-6.916-0.858c-3.754,0-5.738,1.232-5.738,3.7
		c0,5.897,14.638,3.11,14.638,12.492c0,5.577-4.289,8.043-10.616,8.043c-2.52,0-5.738-0.482-7.722-1.126l0.215-3.431
		c2.145,0.59,5.041,0.966,7.346,0.966c4.289,0,6.596-1.447,6.596-4.128c0-5.899-14.638-2.843-14.638-12.493
		c0-5.095,3.968-7.561,9.545-7.561c2.627,0,5.576,0.482,7.668,1.126L222.633,258.227z"/>
	<path fill="#02577D" d="M257.373,258.227c-2.359-0.536-4.773-0.858-6.918-0.858c-3.754,0-5.738,1.232-5.738,3.7
		c0,5.897,14.639,3.11,14.639,12.492c0,5.577-4.289,8.043-10.618,8.043c-2.52,0-5.738-0.482-7.722-1.126l0.215-3.431
		c2.145,0.59,5.041,0.966,7.346,0.966c4.291,0,6.596-1.447,6.596-4.128c0-5.899-14.638-2.843-14.638-12.493
		c0-5.095,3.968-7.561,9.545-7.561c2.628,0,5.576,0.482,7.669,1.126L257.373,258.227z"/>
	<path fill="#02577D" d="M276.19,281.605c-8.15,0-11.958-5.149-11.958-13.888c0-8.741,3.807-13.888,11.958-13.888
		c8.151,0,11.958,5.147,11.958,13.888C288.147,276.458,284.34,281.605,276.19,281.605z M276.19,257.475
		c-5.362,0-7.293,3.539-7.293,10.242s1.931,10.241,7.293,10.241s7.293-3.538,7.293-10.241S281.551,257.475,276.19,257.475z"/>
	<path fill="#02577D" d="M312.486,280.749c-1.715,0.482-4.665,0.858-6.595,0.858c-4.291,0-7.4-1.073-9.546-3.272
		c-2.197-2.253-3.484-5.684-3.484-10.295c0-4.612,1.178-8.204,3.431-10.616c2.251-2.413,5.63-3.592,9.652-3.592
		c2.038,0,4.451,0.322,6.274,0.804l-0.269,3.431c-1.662-0.322-3.807-0.643-5.47-0.643c-6.166,0-8.954,3.592-8.954,10.562
		c0,3.324,0.751,5.845,2.199,7.508c1.5,1.715,3.753,2.466,6.97,2.466c1.769,0,4.128-0.268,5.47-0.536L312.486,280.749z"/>
	<path fill="#02577D" d="M320.579,249.594c-1.608,0-2.627-0.804-2.627-2.842v-0.107c0-2.038,1.019-2.842,2.627-2.842h0.269
		c1.608,0,2.627,0.804,2.627,2.842v0.107c0,2.038-1.019,2.842-2.627,2.842H320.579z M322.938,280.855h-4.45v-26.275h4.45V280.855z"
		/>
	<path fill="#02577D" d="M346.368,279.085c-2.305,1.5-5.093,2.52-8.257,2.52c-2.842,0-5.255-0.858-6.864-2.52
		c-1.286-1.341-2.091-3.218-2.091-5.684c0-2.466,0.858-4.396,2.251-5.683c1.984-1.823,5.095-2.52,8.901-2.52h5.47v-1.662
		c0-2.145-0.376-3.485-1.341-4.45c-1.126-1.073-2.842-1.555-5.47-1.555c-1.984,0-4.504,0.215-7.077,0.645l-0.162-3.431
		c2.468-0.59,5.47-0.912,7.989-0.912c3.915,0,6.542,0.858,8.204,2.412c1.662,1.608,2.305,3.7,2.305,7.132v17.48h-3.592
		L346.368,279.085z M345.779,268.469h-4.827c-2.734,0-4.611,0.374-5.843,1.339c-0.912,0.751-1.447,1.877-1.447,3.485
		c0,3.164,1.984,4.719,5.416,4.719c2.145,0,4.772-0.751,6.703-1.716v-7.827H345.779z"/>
	<path fill="#02577D" d="M362.128,242.516v38.338h-4.45v-38.339L362.128,242.516L362.128,242.516z"/>
	<path fill="#02577D" d="M388.883,280.586c-2.251,0.645-5.362,1.02-7.774,1.02c-4.074,0-7.239-1.02-9.384-3.165
		c-2.359-2.359-3.431-5.951-3.431-10.67c0-9.384,4.665-13.941,11.368-13.941c7.347,0,10.885,5.201,10.885,13.834v1.019
		c0,0.43-0.215,0.591-0.643,0.591h-16.945c0,2.896,0.751,5.255,2.307,6.703c1.393,1.287,3.377,1.984,6.702,1.984
		c1.877,0,4.451-0.268,6.489-0.697L388.883,280.586z M386.148,266.001c-0.161-5.041-2.091-8.579-6.488-8.579
		c-4.45,0-6.649,3.272-6.703,8.579H386.148z"/>
	<path fill="#02577D" d="M412.363,258.227c-2.359-0.536-4.772-0.858-6.916-0.858c-3.754,0-5.738,1.232-5.738,3.7
		c0,5.897,14.638,3.11,14.638,12.492c0,5.577-4.289,8.043-10.616,8.043c-2.52,0-5.737-0.482-7.722-1.126l0.215-3.431
		c2.145,0.59,5.041,0.966,7.346,0.966c4.289,0,6.596-1.447,6.596-4.128c0-5.899-14.638-2.843-14.638-12.493
		c0-5.095,3.968-7.561,9.545-7.561c2.627,0,5.576,0.482,7.668,1.126L412.363,258.227z"/>
</g>
</svg>
