<?xml version="1.0" encoding="utf-8"?>
<!-- Generator: Adobe Illustrator 16.0.4, SVG Export Plug-In . SVG Version: 6.00 Build 0)  -->
<!DOCTYPE svg PUBLIC "-//W3C//DTD SVG 1.1//EN" "http://www.w3.org/Graphics/SVG/1.1/DTD/svg11.dtd">
<svg version="1.1" id="Layer_1" xmlns="http://www.w3.org/2000/svg" xmlns:xlink="http://www.w3.org/1999/xlink" x="0px" y="0px"
	 width="500px" height="500px" viewBox="0 0 500 500" enable-background="new 0 0 500 500" xml:space="preserve">
<rect fill="#A9CF38" width="500" height="500"/>
<g enable-background="new    ">
	<path fill="#005C84" d="M159.82,269.302h-6.342v-48.753h14.185c6.771,0,11.476,1.142,14.256,3.92
		c2.421,2.354,3.636,5.987,3.636,10.833c0,7.486-3.35,12.189-9.124,14.185l10.478,19.815h-7.057
		c-3.137-6.2-6.273-12.475-9.479-18.745c-0.856,0.069-2.14,0.145-3.137,0.145h-7.413L159.82,269.302L159.82,269.302z
		 M159.82,245.565h7.555c5.06,0,7.768-0.998,9.478-2.922c1.498-1.71,2.14-4.207,2.14-7.343c0-3.348-0.713-5.7-2.209-7.197
		c-1.854-1.854-4.99-2.566-9.835-2.566h-7.127L159.82,245.565L159.82,245.565z"/>
	<path fill="#005C84" d="M219.547,268.943c-2.995,0.854-7.125,1.354-10.335,1.354c-5.417,0-9.623-1.354-12.474-4.206
		c-3.138-3.139-4.562-7.909-4.562-14.185c0-12.477,6.2-18.535,15.111-18.535c9.765,0,14.468,6.914,14.468,18.393v1.354
		c0,0.569-0.286,0.784-0.855,0.784h-22.522c0,3.852,0.999,6.981,3.064,8.908c1.854,1.713,4.491,2.641,8.909,2.641
		c2.494,0,5.916-0.355,8.624-0.928L219.547,268.943z M215.912,249.557c-0.212-6.701-2.779-11.405-8.624-11.405
		c-5.917,0-8.838,4.347-8.911,11.405H215.912z"/>
	<path fill="#005C84" d="M243.564,259.32c-2.067,0-3.849-0.213-5.488-0.711c-1.069,1.211-1.924,3.062-1.924,4.271
		c0,1.497,0.929,2.145,2.852,2.145h6.701c6.131,0,9.552,0.996,11.832,3.272c1.781,1.783,2.564,4.204,2.564,7.062
		c0,7.061-4.705,10.979-16.541,10.979c-10.764,0-15.609-3.637-15.609-9.839c0-3.063,1.568-6.058,3.993-7.767
		c-1.141-0.928-1.639-2.209-1.639-3.777c0-2.78,1.639-5.635,4.133-8.057c-3.277-2.282-4.917-5.988-4.917-10.55
		c0-7.556,4.492-12.972,14.041-12.972c1.284,0,2.495,0.144,3.564,0.285l4.205-9.124c1.645,0.357,3.779,1.354,4.921,2.281
		l-4.853,8.267c4.207,2.139,6.203,6.273,6.203,11.261C257.607,253.904,253.116,259.32,243.564,259.32z M235.582,270.085
		c-1.282,1.567-2.065,3.492-2.065,5.345c0,3.777,2.852,5.918,10.619,5.918c7.415,0,10.407-2.141,10.407-5.771
		c0-1.716-0.568-2.992-1.708-3.853c-1.354-0.998-3.638-1.427-7.131-1.427h-7.555C237.148,270.3,236.293,270.229,235.582,270.085z
		 M243.564,238.082c-5.773,0-8.411,2.923-8.411,8.268s2.637,8.269,8.411,8.269c5.773,0,8.411-2.924,8.411-8.269
		C251.975,241.004,249.339,238.082,243.564,238.082z"/>
	<path fill="#005C84" d="M287.539,266.947c-3.062,1.998-6.773,3.353-10.979,3.353c-3.775,0-6.982-1.143-9.123-3.353
		c-1.711-1.783-2.777-4.274-2.777-7.557c0-3.273,1.142-5.846,2.992-7.56c2.637-2.42,6.771-3.349,11.832-3.349h7.271v-2.209
		c0-2.851-0.499-4.633-1.784-5.916c-1.492-1.427-3.777-2.068-7.268-2.068c-2.641,0-5.987,0.286-9.411,0.856l-0.213-4.561
		c3.274-0.785,7.269-1.213,10.62-1.213c5.199,0,8.691,1.143,10.902,3.208c2.209,2.138,3.063,4.917,3.063,9.479v23.238h-4.774
		L287.539,266.947z M286.754,252.835h-6.412c-3.636,0-6.131,0.499-7.771,1.783c-1.211,0.996-1.926,2.495-1.926,4.633
		c0,4.207,2.644,6.272,7.203,6.272c2.854,0,6.342-0.998,8.907-2.282L286.754,252.835L286.754,252.835z"/>
	<path fill="#005C84" d="M308.491,218.337V269.3h-5.917v-50.963H308.491L308.491,218.337z"/>
	<path fill="#005C84" d="M332.58,270.3c-10.835,0-15.896-6.843-15.896-18.465c0-11.619,5.062-18.46,15.896-18.46
		c10.831,0,15.894,6.841,15.894,18.46C348.475,263.457,343.413,270.3,332.58,270.3z M332.58,238.225
		c-7.127,0-9.695,4.703-9.695,13.615c0,8.909,2.569,13.615,9.695,13.615c7.125,0,9.688-4.706,9.688-13.615
		C342.271,242.927,339.708,238.225,332.58,238.225z"/>
</g>
<g>
	<path fill="#FFFFFF" d="M439.572,67.354v16.379h-10.998V67.354h-16.379V56.358h16.379V39.979h10.998v16.379h16.379v10.997
		L439.572,67.354L439.572,67.354z"/>
</g>
<path fill="none" stroke="#FFFFFF" stroke-width="4" stroke-linecap="round" stroke-miterlimit="10" d="M457.667,95H404
	c-2.761,0-5-2.239-5-5V31c0-2.761,2.239-5,5-5h59c2.761,0,5,2.239,5,5v50.834"/>
</svg>
