<?xml version="1.0" encoding="utf-8"?>
<!-- Generator: Adobe Illustrator 17.0.0, SVG Export Plug-In . SVG Version: 6.00 Build 0)  -->
<!DOCTYPE svg PUBLIC "-//W3C//DTD SVG 1.1//EN" "http://www.w3.org/Graphics/SVG/1.1/DTD/svg11.dtd">
<svg version="1.1" id="Layer_1" xmlns="http://www.w3.org/2000/svg" xmlns:xlink="http://www.w3.org/1999/xlink" x="0px" y="0px"
	 width="500px" height="500px" viewBox="0 0 500 500" enable-background="new 0 0 500 500" xml:space="preserve">
<rect fill="#A8CF38" width="500" height="500"/>
<path fill="none" stroke="#FFFFFF" stroke-width="4" stroke-miterlimit="10" d="M468,90c0,2.761-2.239,5-5,5h-59
	c-2.761,0-5-2.239-5-5V31c0-2.761,2.239-5,5-5h59c2.761,0,5,2.239,5,5V90z"/>
<g>
	<path fill="#FFFFFF" d="M439.572,67.354v16.379h-10.998V67.354h-16.379V56.358h16.379V39.979h10.998v16.379h16.379v10.997h-16.379
		V67.354z"/>
</g>
<g>
	<path fill="#02577D" d="M115.358,242.44v-4.437h33.531l-0.507,4.437h-13.564v38.918h-5.641V242.44H115.358z"/>
	<path fill="#02577D" d="M171.578,281.041c-2.662,0.761-6.338,1.205-9.191,1.205c-4.817,0-8.557-1.205-11.092-3.74
		c-2.789-2.789-4.057-7.035-4.057-12.613c0-11.093,5.514-16.48,13.438-16.48c8.684,0,12.867,6.148,12.867,16.354v1.204
		c0,0.508-0.253,0.697-0.761,0.697h-20.03c0,3.423,0.888,6.212,2.726,7.924c1.648,1.521,3.994,2.345,7.923,2.345
		c2.218,0,5.261-0.316,7.669-0.824L171.578,281.041z M168.345,263.801c-0.19-5.958-2.472-10.142-7.669-10.142
		c-5.261,0-7.86,3.866-7.923,10.142H168.345z"/>
	<path fill="#02577D" d="M202.507,281.231c-2.028,0.57-5.515,1.015-7.796,1.015c-5.071,0-8.747-1.268-11.282-3.867
		c-2.599-2.662-4.12-6.719-4.12-12.17s1.395-9.697,4.057-12.55s6.655-4.247,11.409-4.247c2.409,0,5.261,0.38,7.416,0.951
		l-0.317,4.057c-1.965-0.381-4.5-0.761-6.465-0.761c-7.289,0-10.585,4.247-10.585,12.487c0,3.93,0.888,6.908,2.599,8.873
		c1.775,2.028,4.437,2.916,8.24,2.916c2.092,0,4.881-0.316,6.465-0.634L202.507,281.231z"/>
	<path fill="#02577D" d="M213.85,250.3l0.253,2.282c3.233-1.966,7.099-3.17,10.712-3.17c3.36,0,6.022,0.888,7.796,2.726
		c1.711,1.712,2.599,4.247,2.599,8.113v21.107h-5.261v-20.474c0-2.662-0.443-4.184-1.521-5.261s-2.726-1.585-5.007-1.585
		c-2.789,0-6.148,0.824-8.684,2.028v25.291h-5.261V250.3H213.85z"/>
	<path fill="#02577D" d="M256.441,282.246c-9.634,0-14.134-6.085-14.134-16.417s4.5-16.417,14.134-16.417
		c9.635,0,14.136,6.085,14.136,16.417S266.076,282.246,256.441,282.246z M256.441,253.723c-6.338,0-8.62,4.184-8.62,12.106
		s2.282,12.106,8.62,12.106c6.339,0,8.621-4.184,8.621-12.106S262.78,253.723,256.441,253.723z"/>
	<path fill="#02577D" d="M283.124,236.038v45.32h-5.262v-45.32H283.124z"/>
	<path fill="#02577D" d="M304.546,282.246c-9.635,0-14.135-6.085-14.135-16.417s4.5-16.417,14.135-16.417
		s14.135,6.085,14.135,16.417S314.181,282.246,304.546,282.246z M304.546,253.723c-6.339,0-8.62,4.184-8.62,12.106
		s2.281,12.106,8.62,12.106s8.62-4.184,8.62-12.106S310.885,253.723,304.546,253.723z"/>
	<path fill="#02577D" d="M337.884,272.484c-1.839,0-3.423-0.19-4.881-0.634c-0.951,1.077-1.712,2.726-1.712,3.803
		c0,1.331,0.824,1.902,2.536,1.902h5.958c5.451,0,8.493,0.887,10.521,2.915c1.585,1.585,2.282,3.74,2.282,6.275
		c0,6.275-4.184,9.762-14.705,9.762c-9.571,0-13.882-3.233-13.882-8.747c0-2.726,1.395-5.388,3.55-6.909
		c-1.015-0.824-1.458-1.965-1.458-3.359c0-2.473,1.458-5.008,3.677-7.163c-2.916-2.028-4.374-5.324-4.374-9.381
		c0-6.719,3.993-11.536,12.487-11.536c1.141,0,2.218,0.127,3.169,0.254l3.74-8.113c1.457,0.317,3.359,1.204,4.373,2.028
		l-4.311,7.353c3.74,1.901,5.515,5.578,5.515,10.015C350.37,267.667,346.377,272.484,337.884,272.484z M330.784,282.056
		c-1.141,1.395-1.838,3.105-1.838,4.754c0,3.359,2.535,5.261,9.444,5.261c6.592,0,9.254-1.901,9.254-5.134
		c0-1.521-0.507-2.662-1.521-3.423c-1.205-0.888-3.233-1.268-6.339-1.268h-6.719C332.179,282.246,331.418,282.183,330.784,282.056z
		 M337.884,253.596c-5.135,0-7.479,2.599-7.479,7.353s2.345,7.353,7.479,7.353c5.134,0,7.479-2.599,7.479-7.353
		S343.018,253.596,337.884,253.596z"/>
	<path fill="#02577D" d="M354.867,242.503l11.156-9.888l2.979,3.993l-12.106,8.684L354.867,242.503z M363.678,281.358h-5.261V250.3
		h5.261V281.358z"/>
	<path fill="#02577D" d="M391.376,279.267c-2.726,1.774-6.021,2.979-9.762,2.979c-3.359,0-6.212-1.015-8.113-2.979
		c-1.521-1.585-2.472-3.803-2.472-6.719s1.014-5.197,2.662-6.719c2.345-2.155,6.021-2.979,10.521-2.979h6.466v-1.965
		c0-2.535-0.444-4.12-1.585-5.261c-1.331-1.268-3.359-1.838-6.465-1.838c-2.346,0-5.324,0.253-8.367,0.761l-0.19-4.057
		c2.916-0.697,6.466-1.078,9.444-1.078c4.628,0,7.733,1.015,9.698,2.853c1.965,1.901,2.726,4.374,2.726,8.431v20.663h-4.247
		L391.376,279.267z M390.679,266.717h-5.705c-3.232,0-5.451,0.443-6.909,1.584c-1.077,0.888-1.711,2.219-1.711,4.12
		c0,3.74,2.346,5.578,6.402,5.578c2.535,0,5.641-0.888,7.923-2.028V266.717z"/>
</g>
</svg>
