<?xml version="1.0" encoding="utf-8"?>
<!-- Generator: Adobe Illustrator 17.0.0, SVG Export Plug-In . SVG Version: 6.00 Build 0)  -->
<!DOCTYPE svg PUBLIC "-//W3C//DTD SVG 1.1//EN" "http://www.w3.org/Graphics/SVG/1.1/DTD/svg11.dtd" [
	<!ENTITY ns_flows "http://ns.adobe.com/Flows/1.0/">
	<!ENTITY ns_extend "http://ns.adobe.com/Extensibility/1.0/">
	<!ENTITY ns_ai "http://ns.adobe.com/AdobeIllustrator/10.0/">
	<!ENTITY ns_graphs "http://ns.adobe.com/Graphs/1.0/">
]>
<svg version="1.1" id="Layer_1" xmlns:x="&ns_extend;" xmlns:i="&ns_ai;" xmlns:graph="&ns_graphs;"
	 xmlns="http://www.w3.org/2000/svg" xmlns:xlink="http://www.w3.org/1999/xlink" xmlns:a="http://ns.adobe.com/AdobeSVGViewerExtensions/3.0/"
	 x="0px" y="0px" width="90px" height="25px" viewBox="185 67.5 90 25" enable-background="new 185 67.5 90 25"
	 xml:space="preserve">
<g>
	<path fill="#FFFFFF" d="M210.903,78.375c-1.337,1.934-3.201,3.69-4.804,3.69c-0.681,0.022-0.982-0.369-0.971-1.153
		c0-0.469,0.112-1.132,0.205-1.465c1.514-0.765,3.055-1.623,4.431-3.043c0.766-0.822,1.279-1.647,1.303-2.503
		c0.013-0.802-0.492-1.213-1.491-1.226c-1.452-0.018-3.195,0.973-4.326,2.18c-1.486,1.621-2.63,3.914-2.66,5.951
		c-0.017,1.442,0.669,2.591,2.527,2.522c1.988-0.053,3.945-1.589,4.948-2.698c-0.119,0.475-0.2,0.922-0.2,1.288
		c0,1.285,0.638,2.193,1.896,2.58l0.252-0.119c-0.113-0.345-0.142-0.711-0.113-1.114c0.088-1.249,0.58-2.655,1.311-4.505
		c1.387-3.497,3.408-7.498,4.297-9.858l-2.119,0.403c-0.329,0.071-0.538,0.321-0.648,0.558c-1.022,2.176-2.072,4.492-3.381,7.511
		C211.207,77.698,211.067,78.038,210.903,78.375z M208.916,73.716c0.332,0,0.444,0.226,0.444,0.515c0,1.365-1.683,3.107-3.828,4.381
		C206.07,76.5,207.589,73.697,208.916,73.716z"/>
	<path fill="#FFFFFF" d="M245.141,81.842c0,0.968,0.613,1.563,1.782,1.53c1.212-0.023,2.447-0.743,3.467-1.726
		c0.197,1.041,0.946,1.797,2.477,1.742c1.594-0.059,3.121-1.056,4.181-2.215c0,0.112,0,0.228,0,0.334
		c0,1.071,0.551,1.874,1.777,1.874c1.318,0,2.836-0.994,4.033-2.698l0.04,0.02c-0.111,0.404-0.239,1.091-0.257,1.546
		c-0.02,1.29,0.742,2.032,1.806,2.245l0.258-0.104c-0.389-0.936,0.153-3.257,0.378-4.03c0.791-2.546,2.048-5.454,2.774-6.963
		c-0.33-0.283-1.106-0.475-1.934-0.511c-2.74-0.101-5.499,1.031-7.51,4.591c-0.345,0.619-0.723,1.335-1.003,2.087
		c-0.287,0.381-0.586,0.721-0.712,0.844c-0.726,0.701-1.76,1.6-2.811,1.612c-0.597,0.012-0.927-0.407-0.913-1.152
		c0.012-2.85,2.526-7.177,4.233-7.19c0.468,0,0.669,0.206,0.669,0.606c0,0.473-0.323,1.126-0.785,1.546l0.201,0.181
		c1.146-0.44,2.21-1.238,2.216-2.087c0-0.966-1.116-1.146-2.106-1.139c-1.332,0.019-2.991,0.67-4.322,2.124
		c-1.669,1.822-2.53,4.008-2.699,5.567c-0.761,0.891-1.616,1.494-2.182,1.503c-0.32,0.012-0.55-0.162-0.553-0.499
		c0-0.296,0.169-0.901,0.464-1.687c0.736-1.836,1.804-4.123,3.114-6.843c0,0-1.996,0.335-2.28,0.42
		c-0.305,0.074-0.538,0.274-0.669,0.549c-0.854,1.808-1.868,3.898-2.498,5.458C245.382,80.356,245.141,81.286,245.141,81.842z
		 M263.819,74.052c0.638-0.301,1.169-0.318,1.616-0.227c-0.169,0.352-0.937,1.898-1.534,3.291c-0.945,2.182-2.366,4.385-3.681,4.698
		c-0.453,0.132-0.72-0.064-0.713-0.516C259.545,79.366,261.674,75.057,263.819,74.052z"/>
	<path fill="#FFFFFF" d="M217.095,74.855c-1.488,1.621-2.637,3.914-2.661,5.951c-0.014,1.412,0.731,2.591,2.633,2.522
		c2.042-0.053,3.902-1.235,5.509-2.923c-0.404,1.083-0.751,2.013-0.96,2.516c-0.597,1.49-1.036,2.697-1.951,3.395l0.1,0.18
		c2.691,0.158,3.698-1.734,4.806-4.816c1.106-3.09,2.043-5.774,2.773-7.635c1.179,0,2.847,0.04,3.781-0.169
		c-2.44,1.083-4.51,4.972-4.265,7.535c0.109,1.135,0.787,1.917,2.231,1.917c2.799,0,5.154-3.311,6.05-5.495
		c0.515-1.252,0.857-2.32,0.91-3.395c0.669-0.115,1.303-0.231,1.624-0.278c0.61-0.086,0.492,0.593,0.299,1.103
		c-1.143,3.194-3.126,7.836-3.135,7.906h2.188c0.947-1.971,1.533-3.231,2.287-4.573c0.912-1.577,2.944-4.176,3.754-4.184
		c0.286,0,0.361,0.183,0.29,0.461c-0.142,1.071-2.76,5.166-2.717,7.19c0.026,1.323,0.722,2.121,1.938,2.424l0.253-0.144
		c-0.154-0.287-0.174-0.647-0.177-1.07c-0.022-1.349,1.077-3.714,1.499-4.632c0.676-1.438,1.88-3.542,1.803-4.694
		c-0.042-0.566-0.461-1.066-1.43-1.074c-1.781-0.01-3.554,1.722-5.043,4.042l-0.039-0.008c0.597-1.352,1.061-2.602,1.047-3.214
		c-0.012-0.557-0.33-0.777-0.999-0.777c-0.466,0.012-1.108,0.192-1.738,0.361c-0.881,0.228-1.808,0.469-2.827,0.681
		c-0.622,0.084-0.841,0.199-0.822,0.424c0.127,3.547-2.286,7.716-3.894,7.729c-0.691,0-0.847-0.505-0.847-1.204
		c-0.008-2.453,2.009-6.571,3.978-7.223c0.17-0.049,0.339-0.086,0.453-0.122l0.249-0.661c-0.418,0.088-1.41,0.102-1.935,0.116
		c-0.528,0-4.324,0-4.324,0c1.142-2.722,2.744-4.487,5.093-4.591c1.455-0.047,2.439,0.502,2.525,1.337
		c0.06,0.711-0.136,1.289-0.705,1.877l0.161,0.161c1.287-0.607,2.171-1.641,2.177-2.344c0.022-1.091-1.297-1.764-3.396-1.742
		c-2.67,0.018-5.957,0.619-8.253,5.38c-0.688,0.107-1.31,0.366-1.829,0.92l0.093,0.21c0.375-0.133,0.819-0.155,1.317-0.155
		c-0.32,0.78-0.957,2.476-1.595,4.216c-1.932,2.557-3.878,3.775-5.301,3.775c-0.778,0.022-1.09-0.405-1.098-1.153
		c-0.009-0.469,0.108-1.123,0.202-1.465c1.519-0.765,3.049-1.623,4.434-3.043c0.757-0.822,1.284-1.647,1.305-2.503
		c0.009-0.802-0.483-1.213-1.499-1.226C219.972,72.658,218.231,73.649,217.095,74.855z M220.754,73.716
		c0.33,0,0.464,0.226,0.464,0.515c-0.014,1.365-1.684,3.107-3.847,4.381C217.917,76.5,219.431,73.697,220.754,73.716z"/>
	<path fill="#FFFFFF" d="M251.258,71.284c0.606-0.008,1.218-0.575,1.349-1.242c0.15-0.69-0.248-1.223-0.863-1.207
		c-0.603,0.002-1.209,0.558-1.353,1.246C250.261,70.755,250.638,71.298,251.258,71.284z"/>
	<path fill="#FFFFFF" d="M229.356,90.76c-22.143,0-44.644,0.269-44.644,0.598c0,0.322,22.501,0.605,44.644,0.605
		c22.147,0,44.644-0.283,44.644-0.605C274,91.029,251.503,90.76,229.356,90.76z"/>
	<path fill="#FFFFFF" d="M193.589,74.978l0.142-0.12c-0.2-0.327-0.276-0.908-0.262-1.255c0.072-2.884,3.119-4.52,7.878-4.52
		c0,0,1.181,0,2.632,0c-1.531,0.893-2.812,2.073-3.798,4.301c-0.422,0.957-2.439,6.113-3.261,8.43
		c-1.023,2.756-1.677,4.006-2.488,4.466l0.139,0.248c2.28,0.142,3.639-1.025,4.517-3.179c0.835-2.034,1.94-5.276,2.48-6.716
		c1.754-4.636,2.521-6.586,3.921-7.549c1.945-0.011,3.825-0.011,3.825-0.011c2.095-0.057,2.985-0.575,3.642-1.386l-0.15-0.187
		c-0.523,0.282-1.66,0.339-2.622,0.342h-9.453c-5.319,0-8.584,1.747-9.111,4.348C191.356,73.449,192.056,74.811,193.589,74.978z"/>
</g>
</svg>
