<?xml version="1.0" encoding="utf-8"?>
<!-- Generator: Adobe Illustrator 17.0.0, SVG Export Plug-In . SVG Version: 6.00 Build 0)  -->
<!DOCTYPE svg PUBLIC "-//W3C//DTD SVG 1.1//EN" "http://www.w3.org/Graphics/SVG/1.1/DTD/svg11.dtd" [
	<!ENTITY ns_flows "http://ns.adobe.com/Flows/1.0/">
	<!ENTITY ns_extend "http://ns.adobe.com/Extensibility/1.0/">
	<!ENTITY ns_ai "http://ns.adobe.com/AdobeIllustrator/10.0/">
	<!ENTITY ns_graphs "http://ns.adobe.com/Graphs/1.0/">
]>
<svg version="1.1" id="Layer_1" xmlns:x="&ns_extend;" xmlns:i="&ns_ai;" xmlns:graph="&ns_graphs;"
	 xmlns="http://www.w3.org/2000/svg" xmlns:xlink="http://www.w3.org/1999/xlink" xmlns:a="http://ns.adobe.com/AdobeSVGViewerExtensions/3.0/"
	 x="0px" y="0px" width="16px" height="16px" viewBox="0 0 16 16" enable-background="new 0 0 16 16" xml:space="preserve">
<g>
	<g>
		<g>
			<defs>
				<path id="SVGID_1_" d="M15.565,12.225c-0.044-0.133-0.324-0.328-0.839-0.585c-0.14-0.081-0.339-0.191-0.596-0.331
					c-0.258-0.14-0.492-0.269-0.701-0.387c-0.21-0.118-0.407-0.232-0.591-0.342c-0.029-0.022-0.121-0.086-0.276-0.193
					c-0.155-0.107-0.285-0.186-0.392-0.237c-0.107-0.052-0.212-0.077-0.315-0.077c-0.147,0-0.331,0.105-0.552,0.315
					c-0.221,0.21-0.423,0.438-0.607,0.685c-0.184,0.247-0.379,0.475-0.585,0.685c-0.206,0.21-0.376,0.315-0.508,0.315
					c-0.066,0-0.149-0.018-0.249-0.055c-0.099-0.037-0.175-0.068-0.226-0.094c-0.051-0.026-0.14-0.077-0.265-0.155
					c-0.125-0.077-0.195-0.12-0.21-0.127c-1.009-0.56-1.874-1.2-2.595-1.921C5.337,8.997,4.696,8.132,4.137,7.123
					c-0.007-0.015-0.05-0.085-0.127-0.21C3.932,6.788,3.881,6.7,3.855,6.648C3.829,6.597,3.798,6.521,3.761,6.422
					C3.724,6.322,3.706,6.24,3.706,6.173c0-0.132,0.105-0.302,0.315-0.508c0.21-0.206,0.438-0.401,0.685-0.585
					C4.952,4.896,5.18,4.694,5.39,4.473C5.6,4.252,5.705,4.068,5.705,3.921c0-0.103-0.026-0.208-0.077-0.315
					C5.576,3.499,5.497,3.369,5.39,3.214S5.219,2.967,5.197,2.938c-0.11-0.184-0.224-0.381-0.342-0.591S4.608,1.904,4.468,1.646
					C4.328,1.388,4.218,1.19,4.137,1.05C3.879,0.534,3.684,0.255,3.551,0.211C3.5,0.188,3.422,0.177,3.319,0.177
					c-0.199,0-0.458,0.037-0.779,0.11C2.221,0.361,1.968,0.439,1.784,0.52C1.416,0.674,1.026,1.123,0.614,1.867
					C0.238,2.559,0.051,3.243,0.051,3.921c0,0.199,0.013,0.392,0.039,0.58C0.115,4.688,0.161,4.9,0.227,5.135
					c0.066,0.236,0.12,0.411,0.16,0.525c0.04,0.114,0.116,0.318,0.226,0.613c0.11,0.295,0.177,0.475,0.199,0.541
					C1.07,7.535,1.376,8.179,1.729,8.746c0.581,0.942,1.375,1.916,2.38,2.921c1.005,1.005,1.978,1.798,2.921,2.38
					c0.567,0.353,1.211,0.659,1.933,0.917c0.066,0.022,0.247,0.088,0.541,0.199c0.294,0.11,0.499,0.186,0.613,0.226
					c0.114,0.041,0.289,0.094,0.524,0.16c0.236,0.066,0.447,0.112,0.635,0.138c0.188,0.025,0.381,0.039,0.58,0.039
					c0.677,0,1.362-0.188,2.054-0.563c0.743-0.412,1.192-0.803,1.347-1.171c0.081-0.184,0.158-0.436,0.232-0.756
					c0.074-0.32,0.11-0.58,0.11-0.778C15.599,12.354,15.588,12.277,15.565,12.225z"/>
			</defs>
			<clipPath id="SVGID_2_">
				<use xlink:href="#SVGID_1_"  overflow="visible"/>
			</clipPath>
		</g>
	</g>
	<g>
		<g>
			<defs>
				<path id="SVGID_3_" d="M15.565,12.225c-0.044-0.133-0.324-0.328-0.839-0.585c-0.14-0.081-0.339-0.191-0.596-0.331
					c-0.258-0.14-0.492-0.269-0.701-0.387c-0.21-0.118-0.407-0.232-0.591-0.342c-0.029-0.022-0.121-0.086-0.276-0.193
					c-0.155-0.107-0.285-0.186-0.392-0.237c-0.107-0.052-0.212-0.077-0.315-0.077c-0.147,0-0.331,0.105-0.552,0.315
					c-0.221,0.21-0.423,0.438-0.607,0.685c-0.184,0.247-0.379,0.475-0.585,0.685c-0.206,0.21-0.376,0.315-0.508,0.315
					c-0.066,0-0.149-0.018-0.249-0.055c-0.099-0.037-0.175-0.068-0.226-0.094c-0.051-0.026-0.14-0.077-0.265-0.155
					c-0.125-0.077-0.195-0.12-0.21-0.127c-1.009-0.56-1.874-1.2-2.595-1.921C5.337,8.997,4.696,8.132,4.137,7.123
					c-0.007-0.015-0.05-0.085-0.127-0.21C3.932,6.788,3.881,6.7,3.855,6.648C3.829,6.597,3.798,6.521,3.761,6.422
					C3.724,6.322,3.706,6.24,3.706,6.173c0-0.132,0.105-0.302,0.315-0.508c0.21-0.206,0.438-0.401,0.685-0.585
					C4.952,4.896,5.18,4.694,5.39,4.473C5.6,4.252,5.705,4.068,5.705,3.921c0-0.103-0.026-0.208-0.077-0.315
					C5.576,3.499,5.497,3.369,5.39,3.214S5.219,2.967,5.197,2.938c-0.11-0.184-0.224-0.381-0.342-0.591S4.608,1.904,4.468,1.646
					C4.328,1.388,4.218,1.19,4.137,1.05C3.879,0.534,3.684,0.255,3.551,0.211C3.5,0.188,3.422,0.177,3.319,0.177
					c-0.199,0-0.458,0.037-0.779,0.11C2.221,0.361,1.968,0.439,1.784,0.52C1.416,0.674,1.026,1.123,0.614,1.867
					C0.238,2.559,0.051,3.243,0.051,3.921c0,0.199,0.013,0.392,0.039,0.58C0.115,4.688,0.161,4.9,0.227,5.135
					c0.066,0.236,0.12,0.411,0.16,0.525c0.04,0.114,0.116,0.318,0.226,0.613c0.11,0.295,0.177,0.475,0.199,0.541
					C1.07,7.535,1.376,8.179,1.729,8.746c0.581,0.942,1.375,1.916,2.38,2.921c1.005,1.005,1.978,1.798,2.921,2.38
					c0.567,0.353,1.211,0.659,1.933,0.917c0.066,0.022,0.247,0.088,0.541,0.199c0.294,0.11,0.499,0.186,0.613,0.226
					c0.114,0.041,0.289,0.094,0.524,0.16c0.236,0.066,0.447,0.112,0.635,0.138c0.188,0.025,0.381,0.039,0.58,0.039
					c0.677,0,1.362-0.188,2.054-0.563c0.743-0.412,1.192-0.803,1.347-1.171c0.081-0.184,0.158-0.436,0.232-0.756
					c0.074-0.32,0.11-0.58,0.11-0.778C15.599,12.354,15.588,12.277,15.565,12.225z"/>
			</defs>
			<use xlink:href="#SVGID_3_"  overflow="visible" fill-rule="evenodd" clip-rule="evenodd" fill="#00AFC5"/>
			<clipPath id="SVGID_4_">
				<use xlink:href="#SVGID_3_"  overflow="visible"/>
			</clipPath>
			<rect x="-0.607" y="-0.58" clip-path="url(#SVGID_4_)" fill="#00AFC5" width="16.567" height="17.159"/>
		</g>
	</g>
	<g>
		<g>
			<defs>
				<path id="SVGID_5_" d="M15.565,12.225c-0.044-0.133-0.324-0.328-0.839-0.585c-0.14-0.081-0.339-0.191-0.596-0.331
					c-0.258-0.14-0.492-0.269-0.701-0.387c-0.21-0.118-0.407-0.232-0.591-0.342c-0.029-0.022-0.121-0.086-0.276-0.193
					c-0.155-0.107-0.285-0.186-0.392-0.237c-0.107-0.052-0.212-0.077-0.315-0.077c-0.147,0-0.331,0.105-0.552,0.315
					c-0.221,0.21-0.423,0.438-0.607,0.685c-0.184,0.247-0.379,0.475-0.585,0.685c-0.206,0.21-0.376,0.315-0.508,0.315
					c-0.066,0-0.149-0.018-0.249-0.055c-0.099-0.037-0.175-0.068-0.226-0.094c-0.051-0.026-0.14-0.077-0.265-0.155
					c-0.125-0.077-0.195-0.12-0.21-0.127c-1.009-0.56-1.874-1.2-2.595-1.921C5.337,8.997,4.696,8.132,4.137,7.123
					c-0.007-0.015-0.05-0.085-0.127-0.21C3.932,6.788,3.881,6.7,3.855,6.648C3.829,6.597,3.798,6.521,3.761,6.422
					C3.724,6.322,3.706,6.24,3.706,6.173c0-0.132,0.105-0.302,0.315-0.508c0.21-0.206,0.438-0.401,0.685-0.585
					C4.952,4.896,5.18,4.694,5.39,4.473C5.6,4.252,5.705,4.068,5.705,3.921c0-0.103-0.026-0.208-0.077-0.315
					C5.576,3.499,5.497,3.369,5.39,3.214S5.219,2.967,5.197,2.938c-0.11-0.184-0.224-0.381-0.342-0.591S4.608,1.904,4.468,1.646
					C4.328,1.388,4.218,1.19,4.137,1.05C3.879,0.534,3.684,0.255,3.551,0.211C3.5,0.188,3.422,0.177,3.319,0.177
					c-0.199,0-0.458,0.037-0.779,0.11C2.221,0.361,1.968,0.439,1.784,0.52C1.416,0.674,1.026,1.123,0.614,1.867
					C0.238,2.559,0.051,3.243,0.051,3.921c0,0.199,0.013,0.392,0.039,0.58C0.115,4.688,0.161,4.9,0.227,5.135
					c0.066,0.236,0.12,0.411,0.16,0.525c0.04,0.114,0.116,0.318,0.226,0.613c0.11,0.295,0.177,0.475,0.199,0.541
					C1.07,7.535,1.376,8.179,1.729,8.746c0.581,0.942,1.375,1.916,2.38,2.921c1.005,1.005,1.978,1.798,2.921,2.38
					c0.567,0.353,1.211,0.659,1.933,0.917c0.066,0.022,0.247,0.088,0.541,0.199c0.294,0.11,0.499,0.186,0.613,0.226
					c0.114,0.041,0.289,0.094,0.524,0.16c0.236,0.066,0.447,0.112,0.635,0.138c0.188,0.025,0.381,0.039,0.58,0.039
					c0.677,0,1.362-0.188,2.054-0.563c0.743-0.412,1.192-0.803,1.347-1.171c0.081-0.184,0.158-0.436,0.232-0.756
					c0.074-0.32,0.11-0.58,0.11-0.778C15.599,12.354,15.588,12.277,15.565,12.225z"/>
			</defs>
			<clipPath id="SVGID_6_">
				<use xlink:href="#SVGID_5_"  overflow="visible"/>
			</clipPath>
		</g>
	</g>
</g>
</svg>
