<?xml version="1.0" encoding="utf-8"?>
<!-- Generator: Adobe Illustrator 17.0.0, SVG Export Plug-In . SVG Version: 6.00 Build 0)  -->
<!DOCTYPE svg PUBLIC "-//W3C//DTD SVG 1.1//EN" "http://www.w3.org/Graphics/SVG/1.1/DTD/svg11.dtd" [
	<!ENTITY ns_flows "http://ns.adobe.com/Flows/1.0/">
	<!ENTITY ns_extend "http://ns.adobe.com/Extensibility/1.0/">
	<!ENTITY ns_ai "http://ns.adobe.com/AdobeIllustrator/10.0/">
	<!ENTITY ns_graphs "http://ns.adobe.com/Graphs/1.0/">
]>
<svg version="1.1" id="Layer_1" xmlns:x="&ns_extend;" xmlns:i="&ns_ai;" xmlns:graph="&ns_graphs;"
	 xmlns="http://www.w3.org/2000/svg" xmlns:xlink="http://www.w3.org/1999/xlink" xmlns:a="http://ns.adobe.com/AdobeSVGViewerExtensions/3.0/"
	 x="0px" y="0px" width="67.375px" height="21.25px" viewBox="0 -6.25 67.375 21.25" enable-background="new 0 -6.25 67.375 21.25"
	 xml:space="preserve">
<g>
	<g>
		<path fill="#00B1C6" d="M23.151-1.668c-0.573-1.215-1.273-2.155-2.045-2.545c-0.448-0.239-1.034-0.436-1.718-0.59
			c0.412,0.945,0.8,2.044,1.098,3.218C21.38-1.634,22.276-1.661,23.151-1.668L23.151-1.668z"/>
		<path fill="#00B8CC" d="M17.718,11.17c-1.503,0.897-4.126,1.957-7.091,2.872c-0.897,0.277-1.824,0.539-2.761,0.781
			c0.986,0.071,2.065,0.018,3.183-0.135c3.528-0.479,7.457-1.936,10.154-3.558C20.045,11.188,18.857,11.199,17.718,11.17
			L17.718,11.17z"/>
		<path fill="#9BD9E2" d="M24.036,8.793c1.316-1.819,0.679-7.156-0.885-10.461c-0.875,0.007-1.771,0.036-2.667,0.083
			c0.84,3.318,0.953,7.229-1.132,9.902c-0.042,0.841-0.175,1.503-0.406,1.86c-0.188,0.291-0.617,0.628-1.228,0.993
			c1.137,0.029,2.325,0.018,3.485-0.04C22.485,10.359,23.487,9.551,24.036,8.793L24.036,8.793z"/>
		<path fill="#56C6D6" d="M8.793,10.16c-2.177,0.096-4.486,0.098-6.717-0.036c0.702,1.731,1.611,3.152,2.667,3.826
			c0.836,0.512,1.91,0.787,3.123,0.874c0.937-0.242,1.864-0.505,2.761-0.781C9.913,12.882,9.287,11.539,8.793,10.16L8.793,10.16z"/>
		<path fill="#BDE5EB" d="M10.96,10.03c-0.702,0.053-1.427,0.096-2.168,0.128c0.494,1.379,1.12,2.724,1.834,3.882
			c2.964-0.915,5.588-1.974,7.091-2.872c-3.194-0.079-5.997-0.472-6.65-1.04C11.033,10.098,10.997,10.064,10.96,10.03L10.96,10.03z"
			/>
		<path fill="#00AFC6" d="M18.945,10.177c0.232-0.356,0.363-1.019,0.406-1.86c-0.015,0.02-0.03,0.041-0.046,0.061
			c-0.507,0.635-3.964,1.323-8.344,1.652c0.036,0.034,0.072,0.068,0.108,0.1c0.653,0.567,3.455,0.96,6.65,1.04
			C18.33,10.805,18.757,10.468,18.945,10.177L18.945,10.177z"/>
		<path fill="#9BD9E2" d="M19.386-4.803c-3.019-0.679-7.999-0.538-12.033,0.374C5.928-4.107,4.622-3.688,3.562-3.174
			c1.245-0.091,2.53-0.13,3.795-0.117c3.61,0.037,7.055,0.489,8.911,1.311c0.291,0.128,0.564,0.365,0.819,0.683
			c1.109-0.128,2.253-0.224,3.397-0.287C20.187-2.759,19.799-3.858,19.386-4.803L19.386-4.803z"/>
		<path fill="#00AFC6" d="M7.903,2.116C7.575,0.222,7.395-1.693,7.355-3.292C6.091-3.304,4.806-3.266,3.562-3.174
			C2.576-2.696,1.803-2.136,1.35-1.497c-1.398,1.972-0.892,7.625,0.726,11.62c2.231,0.134,4.54,0.132,6.717,0.036
			C7.695,7.101,7.245,3.87,7.903,2.116L7.903,2.116z"/>
		<path fill="#56C6D6" d="M17.087-1.298c-0.255-0.318-0.528-0.554-0.819-0.683c-1.856-0.822-5.301-1.275-8.911-1.311
			c0.038,1.599,0.22,3.513,0.548,5.407C8.015,1.821,8.155,1.568,8.33,1.365C9.442,0.081,13.01-0.827,17.087-1.298L17.087-1.298z"/>
		<path fill="#00B8CC" d="M7.903,2.116C7.245,3.87,7.695,7.101,8.793,10.16c0.74-0.033,1.465-0.076,2.168-0.128
			C9.485,8.638,8.474,5.409,7.903,2.116L7.903,2.116z"/>
		<path fill="#00B8CC" d="M20.838,0.163c-0.094-0.593-0.216-1.178-0.359-1.745c-1.144,0.063-2.29,0.158-3.397,0.287
			c0.466,0.578,0.87,1.431,1.204,2.418c0.666-0.393,1.285-0.692,1.808-0.868C20.31,0.179,20.559,0.151,20.838,0.163L20.838,0.163z"
			/>
		<path fill="#79CFDC" d="M19.347,8.32c1.729-2.216,1.946-5.282,1.491-8.157c-0.277-0.012-0.527,0.016-0.746,0.09
			c-0.523,0.176-1.14,0.475-1.808,0.868C19.051,3.38,19.447,6.342,19.347,8.32L19.347,8.32z"/>
	</g>
	<g>
		<path fill="#00AFC5" d="M38.498,5.021c-0.085,0-0.729,3.838,3.083,3.823c1.042-0.004,2.02-0.496,2.657-0.945
			c0.34-0.257,0.382-0.258,0.511-0.258c0.171,0,0.191,0.833,0.191,0.941c0,0.321-0.467,0.631-0.787,0.845
			c-1.318,0.855-2.381,0.989-3.104,0.989c-2.679,0-4.656-2.179-4.656-4.554c0-2.332,1.935-4.92,5.167-4.92
			c0.447,0,2.338,0.022,3.188,1.841c0.34,0.75,0.404,1.477,0.404,1.863c0,0.642-0.064,0.584-0.851,0.584
			c-0.531,0-2.848-0.208-3.317-0.208h-2.488V5.021z M41.432,1.971c-0.255,0-2.041,0.147-2.721,2.245
			c0.595,0.022,4.167-0.022,4.741-0.064C43.43,3.768,43.303,1.971,41.432,1.971L41.432,1.971z"/>
		<path fill="#00AFC5" d="M49.227,2.58c0-0.542,0.337-0.931,1.039-1.278c0.595-0.283,1.243-0.412,1.583-0.412
			c0.213,0,0.249,0,0.249,0.975c0,0.498-0.131,0.52-1.236,0.737c-1.742,0.325-1.819,1.3-1.883,1.994
			c-0.107,1.387-0.134,2.276-0.154,4.573c-0.022,0.78-0.025,0.866-0.3,0.909c-0.171,0.042-0.766,0.042-0.937,0.042
			c-0.68,0-0.788,0-0.788-0.563c0-2.492,0.149-7.974,0.191-8.191c0.042-0.173,0.107-0.173,0.616-0.173
			c0.149,0,1.023-0.044,1.15-0.044c0.276,0,0.47,0.195,0.47,0.608V2.58H49.227z"/>
		<path fill="#00AFC5" d="M55.199,2.58c0-0.542,0.584-0.931,1.286-1.278c0.595-0.283,1.365-0.412,1.707-0.412
			c0.213,0,0.311,0,0.311,0.975c0,0.498-0.1,0.52-1.206,0.737c-1.744,0.325-1.804,1.3-1.867,1.994
			c-0.107,1.387-0.126,2.276-0.147,4.573c-0.022,0.78-0.02,0.866-0.296,0.909c-0.171,0.042-0.765,0.042-0.935,0.042
			c-0.68,0-0.787,0-0.787-0.563c0-2.492,0.149-7.974,0.191-8.191c0.042-0.173,0.107-0.173,0.616-0.173
			c0.149,0,0.776-0.044,0.904-0.044c0.276,0,0.223,0.195,0.223,0.608L55.199,2.58L55.199,2.58z"/>
		<path fill="#00AFC5" d="M36.079,9.329c-0.026-0.172-0.089-0.36-0.16-0.518c-0.06-0.132-0.167-0.122-0.339-0.033
			c-0.32,0.165-0.765,0.396-1.43,0.404c-1.421,0.018-1.776-1-1.809-2.725c-0.02-1.069,0.076-2.37,0.18-3.703
			c1.172-0.041,2.34-0.075,2.874-0.082c0.131-0.001,0.251-0.071,0.266-0.283c0.011-0.157,0.026-0.52,0.023-0.713
			c-0.001-0.279-0.026-0.381-0.273-0.381c-0.437,0-1.598,0.059-2.777,0.127c0.07-0.713,0.169-1.703,0.179-1.968
			c0.01-0.279-0.055-0.418-0.431-0.354c-0.142,0.025-0.81,0.191-1.198,0.328c-0.399,0.141-0.448,0.228-0.502,0.922
			c-0.027,0.34-0.068,0.748-0.117,1.2c-0.452,0.03-0.802,0.053-0.967,0.067c-0.254,0.02-0.391,0.044-0.448,0.27
			c-0.042,0.169-0.108,0.457-0.112,0.687c-0.004,0.191,0.078,0.329,0.403,0.307c0.18-0.012,0.535-0.029,0.987-0.048
			c-0.119,1.151-0.228,2.409-0.224,3.482c0.01,2.568,0.941,3.964,2.99,4.103c1.24,0.083,2.204-0.359,2.648-0.677
			C36.025,9.609,36.105,9.496,36.079,9.329L36.079,9.329z"/>
		<path fill="#00AFC5" d="M61.391,2.296c-0.471,0-0.9,0.128-1.2,0.128c-0.322,0-0.429-0.728-0.429-0.9
			c0-0.257,0.214-0.601,2.036-0.601c1.757,0,2.958,0.579,3.621,1.329c0.793,0.878,1.006,1.972,1.006,3.75
			c0,0.707-0.022,2.02-0.086,2.989c0,0.15-0.022,0.451-0.471,0.481c-0.172,0.011-0.926-0.011-1.092,0.025
			c-0.447,0.097-0.442,0.283-1.521,0.599c-0.944,0.277-1.307,0.322-1.842,0.322c-0.664,0-1.435-0.128-1.992-0.601
			c-0.471-0.386-0.75-0.964-0.75-1.607c0-1.692,1.8-2.87,3.771-3.128c0.236-0.022,1.178-0.128,2.014-0.086
			C64.455,4.289,64.412,2.296,61.391,2.296L61.391,2.296z M60.662,8.061c0,0.643,0.493,1.114,1.457,1.114
			c0.9,0,1.864-0.429,2.25-0.601c0.042-0.601,0.064-2.036,0.064-2.679C61.754,6.217,60.662,7.095,60.662,8.061L60.662,8.061z"/>
	</g>
</g>
</svg>
