<?xml version="1.0" encoding="utf-8"?>
<!-- Generator: Adobe Illustrator 17.0.0, SVG Export Plug-In . SVG Version: 6.00 Build 0)  -->
<!DOCTYPE svg PUBLIC "-//W3C//DTD SVG 1.1//EN" "http://www.w3.org/Graphics/SVG/1.1/DTD/svg11.dtd" [
	<!ENTITY ns_flows "http://ns.adobe.com/Flows/1.0/">
	<!ENTITY ns_extend "http://ns.adobe.com/Extensibility/1.0/">
	<!ENTITY ns_ai "http://ns.adobe.com/AdobeIllustrator/10.0/">
	<!ENTITY ns_graphs "http://ns.adobe.com/Graphs/1.0/">
]>
<svg version="1.1" id="Layer_1" xmlns:x="&ns_extend;" xmlns:i="&ns_ai;" xmlns:graph="&ns_graphs;"
	 xmlns="http://www.w3.org/2000/svg" xmlns:xlink="http://www.w3.org/1999/xlink" xmlns:a="http://ns.adobe.com/AdobeSVGViewerExtensions/3.0/"
	 x="0px" y="0px" width="72.167px" height="18.667px" viewBox="0 -3.667 72.167 18.667"
	 enable-background="new 0 -3.667 72.167 18.667" xml:space="preserve">
<g>
	<path fill="#00AFC5" d="M36.74,2.536v11.408h-3.802v-1.422c0,0.575-0.874,1.006-1.504,1.294c-0.629,0.287-1.263,0.431-2.048,0.431
		c-1.366,0-2.368-0.342-3.051-1.028s-1.002-1.709-1.002-3.072V2.536h3.043v6.693c0,0.846,0.308,1.45,0.605,1.812
		c0.298,0.362,0.869,0.542,1.556,0.542c0.779,0,1.322-0.224,1.785-0.673c0.461-0.449,0.617-1.059,0.617-1.834V2.536H36.74
		L36.74,2.536z"/>
	<path fill="#00AFC5" d="M45.257,10.142h3.306c-0.334,1.521-1.007,2.399-2.019,3.107c-1.013,0.709-2.246,1.147-3.702,1.147
		c-1.79,0-3.208-0.534-4.254-1.689s-1.569-2.697-1.569-4.669c0-1.944,0.515-3.466,1.546-4.588c1.031-1.121,2.44-1.677,4.228-1.677
		c1.894,0,3.358,0.554,4.388,1.658c1.031,1.103,1.546,2.676,1.546,4.715c0,0.226-0.002,0.217-0.005,0.33
		c-0.004,0.113-0.012,0.144-0.027,0.144h-8.255c0.045,1.521,0.282,1.814,0.71,2.286c0.429,0.474,1.043,0.8,1.847,0.8
		c0.569,0,1.035-0.23,1.398-0.444C44.757,11.048,45.044,10.902,45.257,10.142L45.257,10.142z M40.439,7.099h4.865
		c-0.03-0.761-0.252-1.512-0.665-1.931C44.226,4.75,43.633,4.49,42.86,4.49c-0.72,0-1.287,0.286-1.7,0.71
		C40.747,5.621,40.507,6.339,40.439,7.099L40.439,7.099z"/>
	<path fill="#00AFC5" d="M67.162,14.023c0,0.007-1.27,0.073-1.729,0.073c-0.405,0-0.78-0.006-0.89-0.006
		c-1.22,0-2.198-0.228-2.647-0.684c-0.449-0.457-0.818-1.355-0.818-2.698V-1.266h3.043v3.802h3.802v2.282H64.12v6.043
		c0,0.313,0.251,0.537,0.39,0.636c0.139,0.099,0.604,0.166,1.034,0.166h1.618V14.023L67.162,14.023z"/>
	<path fill="#00AFC5" d="M67.921,1.016v-3.043h3.043v3.043L67.921,1.016L67.921,1.016z M67.921,13.944V2.536h3.043v11.408H67.921
		L67.921,13.944z"/>
	<path fill="#00AFC5" d="M24.572,14.023c0,0.007-1.035,0.073-1.495,0.073c-0.405,0-0.664-0.006-0.773-0.006
		c-1.22,0-1.993-0.228-2.442-0.684c-0.449-0.457-0.612-1.355-0.612-2.698V-1.266h3.043v3.802h3.802v2.282h-3.802v6.043
		c0,0.313,0.105,0.537,0.242,0.636c0.139,0.099,0.458,0.166,0.888,0.166h1.151L24.572,14.023L24.572,14.023z"/>
	<path fill="#00AFC5" d="M49.67,13.944V2.536h3.043v1.284c0.761-0.575,1.023-1.006,1.652-1.294c0.629-0.287,1.337-0.431,2.122-0.431
		c1.366,0,2.256,0.342,2.939,1.028s0.89,1.709,0.89,3.072v7.748h-3.041V7.115c0-0.846-0.158-1.45-0.457-1.812
		c-0.298-0.362-0.795-0.542-1.482-0.542c-0.779,0-1.434,0.224-1.897,0.673c-0.461,0.449-0.728,1.059-0.728,1.834v6.677H49.67V13.944
		z"/>
	<path fill="#00AFC5" d="M11.262-1.266H5.804c-2.66,0-4.808,1.963-4.808,4.622v5.344c0,2.66,2.149,5.244,4.808,5.244h9.641V3.356
		C15.445,0.697,13.922-1.266,11.262-1.266z M7.555,2.955c0.508,0,0.919,0.412,0.919,0.919S8.062,4.793,7.555,4.793
		S6.636,4.382,6.636,3.874C6.637,3.367,7.048,2.955,7.555,2.955z M7.62,10.142H6.144l0.855-3.043h1.477L7.62,10.142z M10.176,10.761
		l-1.059-0.732c0,0,1.401-1.703,1.401-3.935S9.176,1.998,9.176,1.998L10.2,1.221c0,0,1.622,2.532,1.622,4.872
		C11.822,8.7,10.176,10.761,10.176,10.761z"/>
</g>
</svg>
