<?xml version="1.0" encoding="utf-8"?>
<!-- Generator: Adobe Illustrator 16.0.4, SVG Export Plug-In . SVG Version: 6.00 Build 0)  -->
<!DOCTYPE svg PUBLIC "-//W3C//DTD SVG 1.1//EN" "http://www.w3.org/Graphics/SVG/1.1/DTD/svg11.dtd">
<svg version="1.1" id="Layer_1" xmlns="http://www.w3.org/2000/svg" xmlns:xlink="http://www.w3.org/1999/xlink" x="0px" y="0px"
	 width="25px" height="25px" viewBox="0 0 25 25" enable-background="new 0 0 25 25" xml:space="preserve">
<g>
	<g>
		<path fill="#00567D" d="M18.746,8.718c-0.459,0.204-0.954,0.341-1.473,0.404c0.531-0.317,0.937-0.82,1.127-1.418
			c-0.495,0.294-1.043,0.507-1.629,0.621c-0.467-0.498-1.133-0.81-1.871-0.81c-1.414,0-2.562,1.148-2.562,2.564
			c0,0.201,0.022,0.396,0.066,0.583c-2.13-0.107-4.018-1.126-5.283-2.679c-0.221,0.38-0.347,0.821-0.347,1.29
			c0,0.888,0.477,1.674,1.165,2.133c-0.42-0.013-1.137-0.128-1.137-0.32v0.032c0,1.243,0.859,2.278,2.032,2.513
			c-0.215,0.061-0.454,0.09-0.688,0.09c-0.165,0-0.332-0.015-0.488-0.045c0.326,1.018,1.269,1.76,2.391,1.78
			c-0.877,0.687-1.984,1.097-3.185,1.097c-0.207,0-0.412-0.011-0.612-0.035c1.134,0.728,2.481,1.151,3.928,1.151
			c4.715,0,7.292-3.905,7.292-7.294c0-0.111-0.002-0.222-0.007-0.332C17.969,9.684,18.404,9.232,18.746,8.718"/>
	</g>
	<path fill="#00567D" d="M12.5,25.085c-6.888,0-12.492-5.604-12.492-12.492S5.612,0.101,12.5,0.101
		c6.887,0,12.492,5.604,12.492,12.492S19.387,25.085,12.5,25.085z M12.5,1.291c-6.232,0-11.302,5.07-11.302,11.302
		c0,6.232,5.07,11.302,11.302,11.302c6.232,0,11.301-5.07,11.301-11.302C23.801,6.361,18.732,1.291,12.5,1.291z"/>
</g>
</svg>
