<?xml version="1.0" encoding="utf-8"?>
<!-- Generator: Adobe Illustrator 17.0.0, SVG Export Plug-In . SVG Version: 6.00 Build 0)  -->
<!DOCTYPE svg PUBLIC "-//W3C//DTD SVG 1.1//EN" "http://www.w3.org/Graphics/SVG/1.1/DTD/svg11.dtd" [
	<!ENTITY ns_flows "http://ns.adobe.com/Flows/1.0/">
	<!ENTITY ns_extend "http://ns.adobe.com/Extensibility/1.0/">
	<!ENTITY ns_ai "http://ns.adobe.com/AdobeIllustrator/10.0/">
	<!ENTITY ns_graphs "http://ns.adobe.com/Graphs/1.0/">
]>
<svg version="1.1" id="Layer_1" xmlns:x="&ns_extend;" xmlns:i="&ns_ai;" xmlns:graph="&ns_graphs;"
	 xmlns="http://www.w3.org/2000/svg" xmlns:xlink="http://www.w3.org/1999/xlink" xmlns:a="http://ns.adobe.com/AdobeSVGViewerExtensions/3.0/"
	 x="0px" y="0px" width="30px" height="30px" viewBox="0 0 30 30" enable-background="new 0 0 30 30" xml:space="preserve">
<g>
	<g>
		<g>
			<path fill="#00AFC5" d="M22.043,10.341c-0.518,0.23-1.076,0.384-1.66,0.456c0.597-0.358,1.055-0.924,1.27-1.599
				c-0.559,0.331-1.176,0.571-1.836,0.7c-0.526-0.562-1.278-0.913-2.109-0.913c-1.595,0-2.889,1.295-2.889,2.891
				c0,0.227,0.025,0.447,0.075,0.658c-2.402-0.121-4.531-1.27-5.957-3.021c-0.249,0.429-0.391,0.926-0.391,1.455
				c0,1.001,0.607,1.887,1.383,2.406c-0.473-0.015-1.212-0.145-1.212-0.361v0.036c0,1.401,0.899,2.57,2.222,2.834
				c-0.243,0.068-0.547,0.102-0.81,0.102c-0.186,0-0.392-0.017-0.568-0.051c0.367,1.148,1.422,1.984,2.687,2.007
				c-0.989,0.775-2.241,1.237-3.595,1.237c-0.233,0-0.467-0.013-0.692-0.039c1.279,0.82,2.797,1.298,4.428,1.298
				c5.316,0,8.222-4.403,8.222-8.224c0-0.125-0.003-0.25-0.008-0.374C21.167,11.43,21.657,10.921,22.043,10.341"/>
		</g>
	</g>
	<g>
		<path fill="#00AFC5" d="M15,28.796c-7.767,0-14.086-6.319-14.086-14.085C0.915,6.944,7.233,0.625,15,0.625
			c7.766,0,14.085,6.319,14.085,14.086C29.085,22.477,22.767,28.796,15,28.796z M15,1.967c-7.027,0-12.744,5.717-12.744,12.744
			S7.973,27.454,15,27.454s12.744-5.717,12.744-12.744S22.027,1.967,15,1.967z"/>
	</g>
</g>
</svg>
