<?xml version="1.0" encoding="utf-8"?>
<!-- Generator: Adobe Illustrator 17.0.0, SVG Export Plug-In . SVG Version: 6.00 Build 0)  -->
<!DOCTYPE svg PUBLIC "-//W3C//DTD SVG 1.1//EN" "http://www.w3.org/Graphics/SVG/1.1/DTD/svg11.dtd">
<svg version="1.1" id="Layer_1" xmlns="http://www.w3.org/2000/svg" xmlns:xlink="http://www.w3.org/1999/xlink" x="0px" y="0px"
	 width="500px" height="500px" viewBox="0 0 500 500" enable-background="new 0 0 500 500" xml:space="preserve">
<rect fill="#A8CF38" width="500" height="500"/>
<path fill="none" stroke="#FFFFFF" stroke-width="4" stroke-miterlimit="10" d="M468,90c0,2.761-2.239,5-5,5h-59
	c-2.761,0-5-2.239-5-5V31c0-2.761,2.239-5,5-5h59c2.761,0,5,2.239,5,5V90z"/>
<g>
	<path fill="#FFFFFF" d="M439.572,67.354v16.379h-10.998V67.354h-16.379V56.358h16.379V39.979h10.998v16.379h16.379v10.997h-16.379
		V67.354z"/>
</g>
<g>
	<path fill="#02577D" d="M194.659,234.512l10.394,32.281h0.11l9.734-32.281h4.839l-12.043,37.615h-5.444L189.6,234.512H194.659z"/>
	<path fill="#02577D" d="M226.944,240.066c-1.649,0-2.694-0.825-2.694-2.915v-0.109c0-2.09,1.045-2.915,2.694-2.915h0.275
		c1.65,0,2.695,0.825,2.695,2.915v0.109c0,2.09-1.045,2.915-2.695,2.915H226.944z M229.364,272.127h-4.564v-26.946h4.564V272.127z"
		/>
	<path fill="#02577D" d="M253.396,270.313c-2.365,1.539-5.224,2.584-8.469,2.584c-2.915,0-5.389-0.88-7.039-2.584
		c-1.32-1.375-2.145-3.3-2.145-5.829c0-2.53,0.88-4.51,2.31-5.83c2.035-1.869,5.224-2.584,9.129-2.584h5.608v-1.705
		c0-2.199-0.385-3.574-1.374-4.564c-1.155-1.1-2.915-1.595-5.609-1.595c-2.035,0-4.62,0.22-7.259,0.66l-0.165-3.52
		c2.529-0.605,5.609-0.936,8.194-0.936c4.014,0,6.709,0.881,8.414,2.476c1.705,1.649,2.364,3.794,2.364,7.313v17.928h-3.684
		L253.396,270.313z M252.791,259.424h-4.949c-2.805,0-4.729,0.385-5.994,1.375c-0.935,0.77-1.485,1.925-1.485,3.574
		c0,3.244,2.035,4.839,5.554,4.839c2.2,0,4.895-0.77,6.874-1.76V259.424z"/>
	<path fill="#02577D" d="M269.623,245.181v27.111c0,5.225-0.771,7.919-2.805,10.009c-1.87,1.925-4.895,2.805-9.074,2.805
		l-0.495-3.685c3.079-0.056,5.06-0.55,6.27-1.925c1.155-1.32,1.54-3.245,1.54-6.489v-27.826H269.623z M267.203,240.066
		c-1.65,0-2.695-0.825-2.695-2.915v-0.109c0-2.09,1.045-2.915,2.695-2.915h0.274c1.649,0,2.694,0.825,2.694,2.915v0.109
		c0,2.09-1.045,2.915-2.694,2.915H267.203z"/>
	<path fill="#02577D" d="M297.12,271.852c-2.31,0.66-5.499,1.045-7.974,1.045c-4.18,0-7.425-1.045-9.624-3.244
		c-2.42-2.42-3.52-6.104-3.52-10.943c0-9.624,4.784-14.299,11.658-14.299c7.534,0,11.163,5.335,11.163,14.188v1.045
		c0,0.44-0.22,0.604-0.66,0.604h-17.377c0,2.97,0.77,5.39,2.365,6.875c1.43,1.319,3.464,2.034,6.873,2.034
		c1.926,0,4.564-0.274,6.654-0.715L297.12,271.852z M294.315,256.894c-0.165-5.169-2.146-8.799-6.654-8.799
		c-4.564,0-6.819,3.354-6.874,8.799H294.315z"/>
	<path fill="#02577D" d="M321.211,248.92c-2.42-0.55-4.895-0.88-7.095-0.88c-3.849,0-5.884,1.265-5.884,3.795
		c0,6.049,15.013,3.189,15.013,12.813c0,5.719-4.399,8.248-10.889,8.248c-2.585,0-5.884-0.494-7.919-1.154l0.221-3.52
		c2.199,0.604,5.169,0.989,7.533,0.989c4.399,0,6.764-1.484,6.764-4.234c0-6.049-15.012-2.914-15.012-12.813
		c0-5.225,4.068-7.755,9.788-7.755c2.694,0,5.72,0.495,7.864,1.155L321.211,248.92z"/>
</g>
</svg>
