<?xml version="1.0" encoding="utf-8"?>
<!-- Generator: Adobe Illustrator 17.0.0, SVG Export Plug-In . SVG Version: 6.00 Build 0)  -->
<!DOCTYPE svg PUBLIC "-//W3C//DTD SVG 1.1//EN" "http://www.w3.org/Graphics/SVG/1.1/DTD/svg11.dtd" [
	<!ENTITY ns_flows "http://ns.adobe.com/Flows/1.0/">
	<!ENTITY ns_extend "http://ns.adobe.com/Extensibility/1.0/">
	<!ENTITY ns_ai "http://ns.adobe.com/AdobeIllustrator/10.0/">
	<!ENTITY ns_graphs "http://ns.adobe.com/Graphs/1.0/">
]>
<svg version="1.1" id="Layer_1" xmlns:x="&ns_extend;" xmlns:i="&ns_ai;" xmlns:graph="&ns_graphs;"
	 xmlns="http://www.w3.org/2000/svg" xmlns:xlink="http://www.w3.org/1999/xlink" xmlns:a="http://ns.adobe.com/AdobeSVGViewerExtensions/3.0/"
	 x="0px" y="0px" width="54.25px" height="21.333px" viewBox="0 -7.333 54.25 21.333"
	 enable-background="new 0 -7.333 54.25 21.333" xml:space="preserve">
<g>
	<path fill="#00AFC5" d="M8.309,7.649c0,0,3.066-6.052,3.441-6.766c0.226-0.435,0.837-0.926,1.708-0.461
		c0.985,0.525,1.086,0.58,1.65,0.895c0.472,0.263,0.939,1.031,0.419,1.921c-0.46,0.788-4.063,7.09-4.582,7.958
		c-0.444,0.739-1.182,2.094-2.661,2.094c-1.798,0-2.242-1.035-2.635-1.65L1.042,3.313C0.596,2.467,0.598,1.93,1.362,1.367
		l1.38-0.911C3.999-0.253,4.34,0.571,4.714,1.195C5.107,1.85,8.309,7.649,8.309,7.649L8.309,7.649z"/>
	<path fill="#00AFC5" d="M18.917,0.375c0.985,0,1.362,0,2.084,0c0.787,0,1.04,0.436,1.04,1.293c0,0.592,0,9.724,0,10.512
		s-0.272,1.615-0.797,1.615c-0.525,0-1.745,0-2.402,0c-0.657,0-1.273-0.71-1.273-1.63c0-0.92,0-9.468,0-10.256
		C17.567,0.768,18.285,0.375,18.917,0.375L18.917,0.375z"/>
	<path fill="#00AFC5" d="M22.524-3.783c0,1.378-1.118,2.496-2.496,2.496c-1.378,0-2.496-1.118-2.496-2.496s1.118-2.496,2.496-2.496
		C21.406-6.279,22.524-5.161,22.524-3.783L22.524-3.783z"/>
	<path fill="#00AFC5" d="M31.631,7.583c0,0,3.066-6.052,3.441-6.767c0.228-0.433,0.837-0.924,1.708-0.46
		c0.985,0.525,1.086,0.58,1.65,0.895c0.472,0.263,0.939,1.031,0.419,1.921c-0.46,0.788-4.063,7.09-4.582,7.958
		c-0.444,0.739-1.183,2.094-2.661,2.094c-1.798,0-2.242-1.035-2.635-1.65l-4.607-8.328c-0.445-0.846-0.444-1.383,0.321-1.946
		l1.38-0.911c1.257-0.708,1.597,0.115,1.971,0.739C28.429,1.785,31.631,7.583,31.631,7.583L31.631,7.583z"/>
	<path fill="#00AFC5" d="M46.535,0.487c-3.719,0-6.733,2.912-6.733,6.504s3.015,6.504,6.733,6.504c3.719,0,6.733-2.912,6.733-6.504
		C53.27,3.399,50.255,0.487,46.535,0.487L46.535,0.487L46.535,0.487z M46.503,9.619c-1.488,0-2.693-1.176-2.693-2.628
		c0-1.451,1.207-2.628,2.693-2.628c1.488,0,2.693,1.176,2.693,2.628C49.197,8.443,47.99,9.619,46.503,9.619L46.503,9.619z"/>
</g>
</svg>
