<?xml version="1.0" encoding="utf-8"?>
<!-- Generator: Adobe Illustrator 16.0.4, SVG Export Plug-In . SVG Version: 6.00 Build 0)  -->
<!DOCTYPE svg PUBLIC "-//W3C//DTD SVG 1.1//EN" "http://www.w3.org/Graphics/SVG/1.1/DTD/svg11.dtd">
<svg version="1.1" id="Layer_1" xmlns="http://www.w3.org/2000/svg" xmlns:xlink="http://www.w3.org/1999/xlink" x="0px" y="0px"
	 width="25px" height="25px" viewBox="0 0 25 25" enable-background="new 0 0 25 25" xml:space="preserve">
<g>
	<g>
		<path fill="#00567D" d="M13.814,14.725c-0.037-0.052-0.125-0.078-0.201-0.078c-0.039,0-0.1,0.006-0.139,0.026
			c-0.039,0.019-0.138,0.052-0.138,0.091v1.824c0,0.046,0.103,0.085,0.147,0.104c0.045,0.02,0.092,0.033,0.138,0.033
			c0.078,0,0.172-0.02,0.204-0.065c0.031-0.038,0.095-0.104,0.095-0.2v-1.516C13.922,14.848,13.859,14.775,13.814,14.725
			 M13.814,14.725c-0.037-0.052-0.125-0.078-0.201-0.078c-0.039,0-0.1,0.006-0.139,0.026c-0.039,0.019-0.138,0.052-0.138,0.091
			v1.824c0,0.046,0.103,0.085,0.147,0.104c0.045,0.02,0.092,0.033,0.138,0.033c0.078,0,0.172-0.02,0.204-0.065
			c0.031-0.038,0.095-0.104,0.095-0.2v-1.516C13.922,14.848,13.859,14.775,13.814,14.725 M13.593,14.646
			c-0.038,0-0.088,0.006-0.127,0.026c-0.039,0.019-0.127,0.052-0.127,0.091v1.824c0,0.046,0.103,0.085,0.147,0.104
			c0.045,0.02,0.092,0.033,0.138,0.033c0.078,0,0.172-0.02,0.204-0.065c0.031-0.038,0.095-0.104,0.095-0.2v-1.516
			c0-0.098-0.062-0.168-0.106-0.219C13.777,14.673,13.67,14.646,13.593,14.646 M16.257,15.545H15.09v0.76
			c0,0.156,0.145,0.26,0.186,0.318c0.037,0.064,0.176,0.09,0.266,0.09c0.098,0,0.1-0.025,0.139-0.077
			c0.038-0.046-0.006-0.161-0.006-0.331v-0.176h0.584v0.189c0,0.305,0.03,0.531-0.119,0.68c-0.142,0.154-0.309,0.227-0.599,0.227
			c-0.267,0-0.565-0.078-0.715-0.24c-0.148-0.16-0.318-0.381-0.318-0.666v-1.314c0-0.252,0.204-0.459,0.372-0.62
			c0.161-0.157,0.436-0.239,0.701-0.239s0.395,0.076,0.536,0.226c0.143,0.149,0.142,0.356,0.142,0.634L16.257,15.545L16.257,15.545z
			 M14.505,16.537c0,0.207-0.078,0.368-0.168,0.479s-0.243,0.168-0.417,0.168c-0.118,0-0.227-0.02-0.318-0.063
			c-0.09-0.046-0.264-0.11-0.264-0.201v0.376h-0.584V13.21h0.584v1.243c0-0.084,0.166-0.156,0.256-0.201
			c0.092-0.046,0.184-0.07,0.274-0.07c0.182,0,0.356,0.063,0.454,0.187c0.098,0.122,0.183,0.304,0.183,0.544V16.537z M12.17,17.296
			h-0.584v-0.473c0,0.122-0.149,0.213-0.265,0.271c-0.117,0.064-0.192,0.097-0.302,0.097c-0.135,0-0.336-0.045-0.407-0.137
			c-0.064-0.084-0.193-0.213-0.193-0.388v-2.29h0.584v2.09c0,0.064,0.126,0.117,0.152,0.148c0.02,0.033,0.122,0.046,0.174,0.046
			c0.045,0,0.055-0.019,0.12-0.065c0.071-0.039,0.138-0.091,0.138-0.154v-2.063h0.584L12.17,17.296L12.17,17.296z M10.419,13.793
			H9.836v3.502H9.252v-3.502H8.084V13.21h2.335V13.793z M16.84,12.626H7.916c-1.004,0-1.583,0.669-1.583,1.679v1.87
			c0,1.011,0.579,1.704,1.583,1.704h9.178c1.004,0,2.081-0.693,2.081-1.704v-1.87c0-1.01-1.077-1.679-2.081-1.679 M13.814,14.725
			c-0.037-0.052-0.125-0.078-0.201-0.078c-0.039,0-0.1,0.006-0.139,0.026c-0.039,0.019-0.138,0.052-0.138,0.091v1.824
			c0,0.046,0.103,0.085,0.147,0.104c0.045,0.02,0.092,0.033,0.138,0.033c0.078,0,0.172-0.02,0.204-0.065
			c0.031-0.038,0.095-0.104,0.095-0.2v-1.516C13.922,14.848,13.859,14.775,13.814,14.725 M13.814,14.725
			c-0.037-0.052-0.125-0.078-0.201-0.078c-0.039,0-0.1,0.006-0.139,0.026c-0.039,0.019-0.138,0.052-0.138,0.091v1.824
			c0,0.046,0.103,0.085,0.147,0.104c0.045,0.02,0.092,0.033,0.138,0.033c0.078,0,0.172-0.02,0.204-0.065
			c0.031-0.038,0.095-0.104,0.095-0.2v-1.516C13.922,14.848,13.859,14.775,13.814,14.725 M15.807,14.739
			c0.038,0.051,0.058,0.141,0.058,0.258v0.298h-0.513v-0.298c0-0.117,0.014-0.207,0.06-0.258c0.039-0.054,0.104-0.085,0.2-0.085
			C15.702,14.652,15.768,14.686,15.807,14.739 M10.66,6.789L10.2,8.54h-0.052L9.67,6.789H8.92l0.916,2.893v1.777h0.584V9.597
			l0.992-2.809L10.66,6.789L10.66,6.789z M12.754,10.659c0,0.084-0.05,0.149-0.102,0.2c-0.051,0.053-0.135,0.078-0.226,0.078
			c-0.084,0-0.146-0.026-0.193-0.078c-0.044-0.044-0.063-0.116-0.063-0.2v-1.76c0-0.072,0.013-0.129,0.064-0.169
			c0.046-0.045,0.11-0.064,0.187-0.064c0.085,0,0.177,0.019,0.234,0.064c0.052,0.04,0.099,0.097,0.099,0.169V10.659z M13.1,8.342
			c-0.176-0.162-0.392-0.24-0.663-0.24c-0.298,0-0.471,0.078-0.652,0.227c-0.175,0.148-0.198,0.342-0.198,0.595v1.671
			c0,0.278,0.028,0.491,0.197,0.654c0.175,0.162,0.377,0.245,0.661,0.245c0.298,0,0.502-0.078,0.67-0.24
			c0.175-0.155,0.223-0.37,0.223-0.647V8.944C13.338,8.698,13.268,8.497,13.1,8.342 M15.089,7.956v2.677
			c0,0.071-0.106,0.129-0.179,0.175c-0.078,0.045-0.125,0.07-0.176,0.07c-0.059,0-0.131-0.02-0.156-0.051
			c-0.033-0.04-0.073-0.091-0.073-0.168V7.956h-0.584v2.923c0,0.195,0.033,0.337,0.111,0.435c0.077,0.097,0.19,0.142,0.34,0.142
			c0.129,0,0.229-0.032,0.364-0.096c0.13-0.071,0.352-0.169,0.352-0.305v0.405h0.584V7.956H15.089z"/>
	</g>
	<path fill="#00567D" d="M12.505,24.781c-6.759,0-12.257-5.499-12.257-12.257c0-6.759,5.498-12.257,12.257-12.257
		s12.259,5.499,12.259,12.257C24.764,19.282,19.264,24.781,12.505,24.781z M12.505,1.434c-6.115,0-11.09,4.975-11.09,11.09
		s4.975,11.089,11.09,11.089c6.116,0,11.09-4.975,11.09-11.089C23.595,6.408,18.621,1.434,12.505,1.434z"/>
</g>
</svg>
