<?xml version="1.0" encoding="utf-8"?>
<!-- Generator: Adobe Illustrator 17.0.0, SVG Export Plug-In . SVG Version: 6.00 Build 0)  -->
<!DOCTYPE svg PUBLIC "-//W3C//DTD SVG 1.1//EN" "http://www.w3.org/Graphics/SVG/1.1/DTD/svg11.dtd" [
	<!ENTITY ns_flows "http://ns.adobe.com/Flows/1.0/">
	<!ENTITY ns_extend "http://ns.adobe.com/Extensibility/1.0/">
	<!ENTITY ns_ai "http://ns.adobe.com/AdobeIllustrator/10.0/">
	<!ENTITY ns_graphs "http://ns.adobe.com/Graphs/1.0/">
]>
<svg version="1.1" id="Layer_1" xmlns:x="&ns_extend;" xmlns:i="&ns_ai;" xmlns:graph="&ns_graphs;"
	 xmlns="http://www.w3.org/2000/svg" xmlns:xlink="http://www.w3.org/1999/xlink" xmlns:a="http://ns.adobe.com/AdobeSVGViewerExtensions/3.0/"
	 x="0px" y="0px" width="30px" height="30px" viewBox="0 0 30 30" enable-background="new 0 0 30 30" xml:space="preserve">
<g>
	<g>
		<g>
			<path fill="#00AFC5" d="M16.578,17.334c-0.044-0.06-0.178-0.09-0.267-0.09c-0.045,0-0.062,0.007-0.106,0.03
				c-0.045,0.022-0.106,0.06-0.106,0.105v2.101c0,0.053,0.048,0.098,0.1,0.12c0.052,0.022,0.071,0.037,0.124,0.037
				c0.09,0,0.25-0.022,0.287-0.075c0.037-0.044,0.161-0.12,0.161-0.231v-1.745C16.77,17.474,16.63,17.393,16.578,17.334
				 M16.578,17.334c-0.044-0.06-0.178-0.09-0.267-0.09c-0.045,0-0.062,0.007-0.106,0.03c-0.045,0.022-0.106,0.06-0.106,0.105v2.101
				c0,0.053,0.048,0.098,0.1,0.12c0.052,0.022,0.071,0.037,0.124,0.037c0.09,0,0.25-0.022,0.287-0.075
				c0.037-0.044,0.161-0.12,0.161-0.231v-1.745C16.77,17.474,16.63,17.393,16.578,17.334 M16.252,17.244
				c-0.045,0-0.032,0.007-0.077,0.03c-0.045,0.022-0.077,0.06-0.077,0.105v2.101c0,0.053,0.048,0.098,0.1,0.12
				c0.052,0.022,0.071,0.037,0.124,0.037c0.09,0,0.25-0.022,0.287-0.075c0.037-0.044,0.161-0.12,0.161-0.231v-1.745
				c0-0.113-0.14-0.194-0.192-0.253C16.534,17.274,16.341,17.244,16.252,17.244 M19.459,18.277h-1.345v0.875
				c0,0.18,0.098,0.299,0.143,0.366c0.044,0.074,0.167,0.104,0.272,0.104c0.112,0,0.166-0.03,0.211-0.089
				c0.045-0.053,0.047-0.187,0.047-0.381V18.95h0.672v0.217c0,0.352-0.034,0.611-0.206,0.783c-0.164,0.179-0.39,0.261-0.725,0.261
				c-0.306,0-0.599-0.09-0.771-0.276c-0.17-0.186-0.315-0.44-0.315-0.769v-1.514c0-0.29,0.165-0.529,0.359-0.714
				c0.186-0.18,0.466-0.276,0.772-0.276c0.306,0,0.507,0.088,0.67,0.261c0.164,0.171,0.216,0.41,0.216,0.73V18.277z M17.442,19.421
				c0,0.239-0.159,0.424-0.263,0.552c-0.104,0.126-0.314,0.194-0.515,0.194c-0.136,0-0.209-0.023-0.314-0.074
				c-0.104-0.053-0.252-0.127-0.252-0.232v0.434h-0.672v-4.706h0.672v1.432c0-0.097,0.122-0.179,0.225-0.231
				c0.105-0.053,0.177-0.082,0.281-0.082c0.209,0,0.464,0.074,0.575,0.216c0.113,0.141,0.263,0.35,0.263,0.627V19.421z
				 M14.753,20.294h-0.672V19.75c0,0.141-0.241,0.245-0.375,0.313c-0.134,0.074-0.256,0.112-0.383,0.112
				c-0.156,0-0.334-0.053-0.417-0.158c-0.074-0.096-0.17-0.245-0.17-0.447v-2.637h0.672v2.407c0,0.074,0.076,0.134,0.106,0.17
				c0.023,0.039,0.105,0.053,0.165,0.053c0.051,0,0.115-0.022,0.19-0.075c0.082-0.045,0.211-0.104,0.211-0.178v-2.376h0.672V20.294z
				 M12.736,16.261h-0.672v4.034H10.72v-4.034h-0.672v-0.672h2.689V16.261z M20.132,14.916H9.715c-1.156,0-2.356,0.77-2.356,1.933
				v2.155c0,1.163,1.2,1.963,2.356,1.963h10.57c1.155,0,1.863-0.8,1.863-1.963v-2.155c0-1.162-0.708-1.933-1.863-1.933
				 M16.578,17.334c-0.044-0.06-0.178-0.09-0.267-0.09c-0.045,0-0.062,0.007-0.106,0.03c-0.045,0.022-0.106,0.06-0.106,0.105v2.101
				c0,0.053,0.048,0.098,0.1,0.12c0.052,0.022,0.071,0.037,0.124,0.037c0.09,0,0.25-0.022,0.287-0.075
				c0.037-0.044,0.161-0.12,0.161-0.231v-1.745C16.77,17.474,16.63,17.393,16.578,17.334 M16.578,17.334
				c-0.044-0.06-0.178-0.09-0.267-0.09c-0.045,0-0.062,0.007-0.106,0.03c-0.045,0.022-0.106,0.06-0.106,0.105v2.101
				c0,0.053,0.048,0.098,0.1,0.12c0.052,0.022,0.071,0.037,0.124,0.037c0.09,0,0.25-0.022,0.287-0.075
				c0.037-0.044,0.161-0.12,0.161-0.231v-1.745C16.77,17.474,16.63,17.393,16.578,17.334 M18.802,17.349
				c0.045,0.059,0.067,0.162,0.067,0.297v0.343h-0.589v-0.343c0-0.134,0.015-0.238,0.067-0.297c0.045-0.061,0.12-0.098,0.232-0.098
				C18.682,17.251,18.757,17.288,18.802,17.349 M12.875,8.193l-0.529,2.017h-0.06l-0.551-2.017H10.87l1.194,3.332v2.046h0.672
				v-2.143l1.003-3.235H12.875z M15.426,12.651c0,0.096-0.127,0.172-0.187,0.23c-0.059,0.061-0.19,0.09-0.295,0.09
				c-0.096,0-0.117-0.029-0.17-0.09c-0.051-0.051-0.02-0.134-0.02-0.23v-2.028c0-0.083-0.055-0.149,0.004-0.195
				c0.053-0.052,0.091-0.074,0.18-0.074c0.098,0,0.256,0.022,0.322,0.074c0.06,0.046,0.166,0.112,0.166,0.195V12.651z M15.753,9.982
				c-0.202-0.186-0.485-0.277-0.797-0.277c-0.343,0-0.49,0.09-0.699,0.262c-0.201,0.17-0.176,0.394-0.176,0.685v1.925
				c0,0.32-0.037,0.565,0.157,0.753c0.201,0.186,0.4,0.283,0.727,0.283c0.343,0,0.63-0.09,0.823-0.276
				c0.202-0.179,0.309-0.426,0.309-0.745v-1.916C16.098,10.392,15.947,10.161,15.753,9.982 M18.115,9.538v3.083
				c0,0.082-0.193,0.148-0.275,0.202c-0.09,0.052-0.178,0.081-0.238,0.081c-0.067,0-0.098-0.023-0.128-0.059
				c-0.038-0.046-0.031-0.105-0.031-0.194V9.538H16.77v3.366c0,0.225-0.032,0.388,0.058,0.501c0.089,0.112,0.186,0.164,0.357,0.164
				c0.149,0,0.316-0.037,0.471-0.111c0.15-0.082,0.458-0.194,0.458-0.352v0.466h0.672V9.538H18.115z"/>
		</g>
	</g>
	<g>
		<path fill="#00AFC5" d="M15,28.915c-7.784,0-14.117-6.333-14.117-14.116C0.883,7.014,7.216,0.682,15,0.682
			c7.784,0,14.116,6.333,14.116,14.117C29.117,22.582,22.784,28.915,15,28.915z M15,2.026c-7.042,0-12.772,5.73-12.772,12.772
			S7.958,27.57,15,27.57s12.772-5.729,12.772-12.772S22.043,2.026,15,2.026z"/>
	</g>
</g>
</svg>
